<svg width="103" height="126" viewBox="0 0 103 126" fill="none" xmlns="http://www.w3.org/2000/svg">
<path d="M101.5 100.753V99.2528H100H52.8154L77.3098 76.237C77.3114 76.2355 77.313 76.234 77.3146 76.2326C85.157 68.9922 90.5634 62.4382 93.3921 56.5729C96.2022 50.7462 97.6052 44.5115 97.6052 37.8876C97.6052 30.5374 95.6672 24.1035 91.7445 18.6546C87.9521 13.1176 82.5813 8.90885 75.7039 6.00584C68.9283 2.98571 61.0398 1.5 52.0766 1.5C41.3912 1.5 31.8506 3.50144 23.4898 7.54493C15.1421 11.4697 8.5483 16.9757 3.75691 24.0706L2.89709 25.3438L4.19051 26.1729L24.1727 38.9819L25.3709 39.75L26.2008 38.5937C28.8794 34.8614 32.1785 32.1148 36.1051 30.3192L36.1201 30.3123L36.135 30.3051C40.0851 28.3925 44.5427 27.4213 49.5365 27.4213C55.5718 27.4213 59.8577 28.6824 62.6424 30.959L62.6648 30.9774L62.6879 30.9949C65.5265 33.1381 67.0027 36.2551 67.0027 40.5843C67.0027 43.5717 66.2287 46.6541 64.6268 49.8457C63.0478 52.8792 59.9203 56.671 55.1107 61.2355C55.1099 61.2363 55.1091 61.237 55.1083 61.2378L9.39154 104.21L8.9189 104.655V105.303V123V124.5H10.4189H100H101.5V123V100.753Z" fill="white" stroke="url(#paint0_linear_3009_62)" stroke-width="3"/>
<defs>
<linearGradient id="paint0_linear_3009_62" x1="5.0023" y1="62.9973" x2="100.006" y2="62.9973" gradientUnits="userSpaceOnUse">
<stop stop-color="#FB0E66"/>
<stop offset="1" stop-color="#1CB2E0"/>
</linearGradient>
</defs>
</svg>
