<svg width="100" height="126" viewBox="0 0 100 126" fill="none" xmlns="http://www.w3.org/2000/svg">
<path d="M55.9568 26.4101L34.2258 51.3977L33.8576 51.821V52.382V70.4157V71.9157H35.3576H47.6352C54.7608 71.9157 59.8426 73.1123 63.104 75.2873C66.2581 77.3907 67.8699 80.5154 67.8699 84.9101C67.8699 89.2598 66.1669 92.5554 62.7179 94.9629C59.1815 97.3187 54.2051 98.5787 47.6352 98.5787C41.7077 98.5787 35.8885 97.704 30.173 95.953C24.5712 94.0909 19.6388 91.5262 15.3616 88.2675L13.9211 87.17L13.111 88.7897L2.65844 109.689L2.09151 110.822L3.11448 111.57C8.81217 115.738 15.6714 118.953 23.6629 121.24L23.675 121.243L23.6871 121.247C31.7767 123.415 39.9817 124.5 48.2989 124.5C58.963 124.5 68.0487 122.734 75.4952 119.127C83.0005 115.545 88.6625 110.763 92.3808 104.743L92.3875 104.732C96.0695 98.6544 97.9138 92.0371 97.9138 84.9101C97.9138 75.7042 95.0927 67.9179 89.3981 61.6584C84.1778 55.817 76.914 51.9729 67.7307 50.0407L92.2395 21.6774L92.6046 21.2549V20.6966V3V1.5H91.1046H9.80697H8.30697V3V24.9101V26.4101H9.80697H55.9568Z" stroke="url(#paint0_linear_3009_67)" stroke-width="3"/>
<defs>
<linearGradient id="paint0_linear_3009_67" x1="3.9981" y1="62.992" x2="96.4158" y2="62.992" gradientUnits="userSpaceOnUse">
<stop stop-color="#55EAF7"/>
<stop offset="0.2078" stop-color="#52C0E9"/>
<stop offset="0.5886" stop-color="#4E78D2"/>
<stop offset="0.8625" stop-color="#4B4AC4"/>
<stop offset="1" stop-color="#4A39BE"/>
</linearGradient>
</defs>
</svg>
