<svg width="20" height="21" viewBox="0 0 20 21" fill="none" xmlns="http://www.w3.org/2000/svg">
<path fill-rule="evenodd" clip-rule="evenodd" d="M1.09961 5.62425C1.5157 4.70961 2.10394 3.91108 2.79414 3.18867C4.35546 1.55436 6.24516 0.507726 8.48243 0.150632C11.6138 -0.348862 14.4163 0.388329 16.8383 2.47175C16.9913 2.60319 17.0291 2.68042 16.863 2.84308C16.0083 3.6794 15.1668 4.52942 14.3204 5.37451C14.2338 5.46104 14.1751 5.56675 14.021 5.42599C11.889 3.47402 8.40842 3.49647 6.14264 5.6018C5.36473 6.32475 4.81158 7.19065 4.44975 8.18361C4.39713 8.14911 4.34121 8.11844 4.29132 8.0801C3.22669 7.2613 2.1637 6.44305 1.09961 5.62425Z" fill="#D7282A"/>
<path fill-rule="evenodd" clip-rule="evenodd" d="M4.42495 12.1692C4.73085 12.9447 5.11022 13.678 5.67488 14.3008C7.11011 15.8847 8.88962 16.5677 11.0211 16.3464C12.0117 16.2434 12.9141 15.9082 13.7572 15.3934C13.8384 15.4657 13.9151 15.5429 14.0006 15.6098C14.9874 16.3793 15.9758 17.1477 16.9632 17.9161C15.8739 18.9496 14.5878 19.6375 13.141 20.0028C9.73003 20.8643 6.58601 20.3199 3.79395 18.1187C2.63996 17.2085 1.73156 16.0846 1.0918 14.7543C2.20358 13.8927 3.31426 13.0312 4.42495 12.1692Z" fill="#45AC43"/>
<path fill-rule="evenodd" clip-rule="evenodd" d="M16.9623 17.9166C15.9744 17.1482 14.9865 16.3798 13.9997 15.6103C13.9142 15.5435 13.8375 15.4663 13.7563 15.394C14.4252 14.8841 14.9832 14.2811 15.3494 13.5148C15.4953 13.2092 15.5983 12.8894 15.6954 12.5662C15.7622 12.3433 15.7414 12.2568 15.4657 12.259C13.8216 12.2727 12.1775 12.2661 10.5334 12.2656C10.1853 12.2656 10.1847 12.2656 10.1847 11.9057C10.1847 10.7923 10.1902 9.67936 10.1798 8.5659C10.1776 8.35121 10.2154 8.26851 10.4577 8.2696C13.4899 8.27837 16.5226 8.27672 19.5548 8.27234C19.7187 8.27234 19.8212 8.28439 19.8497 8.4832C20.2269 11.1329 19.9248 13.6644 18.5362 16.003C18.1119 16.7188 17.6015 17.3722 16.9623 17.9166Z" fill="#5D7FBE"/>
<path fill-rule="evenodd" clip-rule="evenodd" d="M4.42418 12.1692C3.3135 13.0307 2.20226 13.8922 1.09158 14.7543C0.548846 13.7465 0.236363 12.6643 0.0899898 11.5366C-0.162738 9.58297 0.115208 7.7033 0.944658 5.91126C0.99016 5.81267 1.04772 5.72011 1.0998 5.62427C2.16334 6.44252 3.22688 7.26131 4.29097 8.07902C4.34085 8.11735 4.39622 8.14802 4.4494 8.18253C4.0037 9.50904 4.02618 10.8383 4.42418 12.1692Z" fill="#F4C300"/>
</svg>
