<svg width="795" height="427" viewBox="0 0 795 427" fill="none" xmlns="http://www.w3.org/2000/svg">
<path d="M79.44 211.562C79.44 212.51 79.08 213.314 78.36 213.974C77.652 214.634 76.62 215.018 75.264 215.126V217.16H74.112V215.126C73.236 215.078 72.402 214.916 71.61 214.64C70.83 214.352 70.206 213.992 69.738 213.56L70.404 212.156C70.836 212.552 71.382 212.882 72.042 213.146C72.702 213.398 73.392 213.548 74.112 213.596V209.42C73.272 209.216 72.57 208.994 72.006 208.754C71.454 208.514 70.986 208.16 70.602 207.692C70.23 207.224 70.044 206.612 70.044 205.856C70.044 204.908 70.386 204.104 71.07 203.444C71.766 202.784 72.78 202.4 74.112 202.292V200.24H75.264V202.274C75.948 202.298 76.608 202.406 77.244 202.598C77.892 202.79 78.45 203.048 78.918 203.372L78.324 204.812C77.352 204.2 76.332 203.864 75.264 203.804V207.998C76.14 208.214 76.86 208.442 77.424 208.682C77.988 208.91 78.462 209.258 78.846 209.726C79.242 210.182 79.44 210.794 79.44 211.562ZM71.808 205.784C71.808 206.3 72.006 206.702 72.402 206.99C72.798 207.278 73.368 207.518 74.112 207.71V203.822C73.344 203.918 72.768 204.146 72.384 204.506C72 204.854 71.808 205.28 71.808 205.784ZM75.264 213.578C76.068 213.506 76.668 213.302 77.064 212.966C77.472 212.618 77.676 212.186 77.676 211.67C77.676 211.142 77.466 210.74 77.046 210.464C76.638 210.176 76.044 209.924 75.264 209.708V213.578ZM88.7477 208.394C89.4677 208.67 90.0197 209.066 90.4037 209.582C90.7877 210.098 90.9797 210.716 90.9797 211.436C90.9797 212.192 90.7757 212.852 90.3677 213.416C89.9597 213.968 89.3777 214.394 88.6217 214.694C87.8657 214.994 86.9777 215.144 85.9577 215.144C84.9497 215.144 84.0677 214.994 83.3117 214.694C82.5677 214.394 81.9917 213.968 81.5837 213.416C81.1757 212.852 80.9717 212.192 80.9717 211.436C80.9717 210.716 81.1577 210.098 81.5297 209.582C81.9137 209.066 82.4657 208.67 83.1857 208.394C82.6097 208.118 82.1717 207.752 81.8717 207.296C81.5717 206.84 81.4217 206.3 81.4217 205.676C81.4217 204.98 81.6077 204.374 81.9797 203.858C82.3637 203.342 82.8977 202.946 83.5817 202.67C84.2657 202.394 85.0577 202.256 85.9577 202.256C86.8697 202.256 87.6677 202.394 88.3517 202.67C89.0477 202.946 89.5817 203.342 89.9537 203.858C90.3377 204.374 90.5297 204.98 90.5297 205.676C90.5297 206.288 90.3737 206.828 90.0617 207.296C89.7617 207.752 89.3237 208.118 88.7477 208.394ZM85.9577 203.714C85.1057 203.714 84.4337 203.9 83.9417 204.272C83.4497 204.632 83.2037 205.124 83.2037 205.748C83.2037 206.372 83.4437 206.864 83.9237 207.224C84.4157 207.584 85.0937 207.764 85.9577 207.764C86.8337 207.764 87.5177 207.584 88.0097 207.224C88.5137 206.864 88.7657 206.372 88.7657 205.748C88.7657 205.124 88.5077 204.632 87.9917 204.272C87.4877 203.9 86.8097 203.714 85.9577 203.714ZM85.9577 213.686C86.9537 213.686 87.7397 213.482 88.3157 213.074C88.8917 212.654 89.1797 212.09 89.1797 211.382C89.1797 210.686 88.8917 210.14 88.3157 209.744C87.7397 209.336 86.9537 209.132 85.9577 209.132C84.9617 209.132 84.1817 209.336 83.6177 209.744C83.0537 210.14 82.7717 210.686 82.7717 211.382C82.7717 212.09 83.0537 212.654 83.6177 213.074C84.1817 213.482 84.9617 213.686 85.9577 213.686ZM96.2277 207.422C98.0277 207.422 99.3477 207.764 100.188 208.448C101.04 209.12 101.466 210.044 101.466 211.22C101.466 211.964 101.286 212.636 100.926 213.236C100.578 213.824 100.044 214.292 99.3237 214.64C98.6157 214.976 97.7397 215.144 96.6957 215.144C95.8077 215.144 94.9497 215.012 94.1217 214.748C93.2937 214.472 92.6097 214.094 92.0697 213.614L92.8977 212.192C93.3297 212.6 93.8817 212.93 94.5537 213.182C95.2257 213.422 95.9337 213.542 96.6777 213.542C97.6257 213.542 98.3577 213.344 98.8737 212.948C99.4017 212.54 99.6657 211.988 99.6657 211.292C99.6657 210.536 99.3777 209.966 98.8017 209.582C98.2257 209.186 97.2417 208.988 95.8497 208.988H92.9877L93.6537 202.4H100.764V203.966H95.1657L94.8237 207.422H96.2277ZM104.17 212.642C104.506 212.642 104.782 212.762 104.998 213.002C105.226 213.23 105.34 213.518 105.34 213.866C105.34 214.046 105.316 214.22 105.268 214.388C105.232 214.556 105.154 214.814 105.034 215.162L104.188 217.664H103.054L103.72 214.982C103.492 214.898 103.306 214.76 103.162 214.568C103.03 214.364 102.964 214.13 102.964 213.866C102.964 213.506 103.078 213.212 103.306 212.984C103.534 212.756 103.822 212.642 104.17 212.642ZM116.074 213.434V215H107.02V213.776L112.15 208.826C112.774 208.226 113.194 207.71 113.41 207.278C113.626 206.834 113.734 206.39 113.734 205.946C113.734 205.286 113.5 204.776 113.032 204.416C112.576 204.044 111.916 203.858 111.052 203.858C109.66 203.858 108.586 204.314 107.83 205.226L106.606 204.164C107.098 203.564 107.74 203.096 108.532 202.76C109.336 202.424 110.23 202.256 111.214 202.256C112.534 202.256 113.584 202.574 114.364 203.21C115.144 203.834 115.534 204.686 115.534 205.766C115.534 206.438 115.39 207.074 115.102 207.674C114.814 208.274 114.268 208.958 113.464 209.726L109.612 213.434H116.074ZM122.377 207.692C123.613 207.812 124.555 208.196 125.203 208.844C125.851 209.48 126.175 210.296 126.175 211.292C126.175 212.012 125.995 212.666 125.635 213.254C125.275 213.83 124.735 214.292 124.015 214.64C123.307 214.976 122.437 215.144 121.405 215.144C120.505 215.144 119.641 215.012 118.813 214.748C117.985 214.472 117.307 214.094 116.779 213.614L117.607 212.192C118.039 212.6 118.591 212.93 119.263 213.182C119.935 213.422 120.649 213.542 121.405 213.542C122.341 213.542 123.067 213.344 123.583 212.948C124.111 212.552 124.375 212.006 124.375 211.31C124.375 210.614 124.117 210.074 123.601 209.69C123.085 209.306 122.305 209.114 121.261 209.114H120.253V207.854L123.421 203.966H117.355V202.4H125.671V203.624L122.377 207.692ZM136.823 202.4V203.624L131.729 215H129.821L134.807 203.966H129.047V206.216H127.319V202.4H136.823ZM143.397 209.312H148.239V210.806H143.397V209.312ZM164.536 211.562C164.536 212.51 164.176 213.314 163.456 213.974C162.748 214.634 161.716 215.018 160.36 215.126V217.16H159.208V215.126C158.332 215.078 157.498 214.916 156.706 214.64C155.926 214.352 155.302 213.992 154.834 213.56L155.5 212.156C155.932 212.552 156.478 212.882 157.138 213.146C157.798 213.398 158.488 213.548 159.208 213.596V209.42C158.368 209.216 157.666 208.994 157.102 208.754C156.55 208.514 156.082 208.16 155.698 207.692C155.326 207.224 155.14 206.612 155.14 205.856C155.14 204.908 155.482 204.104 156.166 203.444C156.862 202.784 157.876 202.4 159.208 202.292V200.24H160.36V202.274C161.044 202.298 161.704 202.406 162.34 202.598C162.988 202.79 163.546 203.048 164.014 203.372L163.42 204.812C162.448 204.2 161.428 203.864 160.36 203.804V207.998C161.236 208.214 161.956 208.442 162.52 208.682C163.084 208.91 163.558 209.258 163.942 209.726C164.338 210.182 164.536 210.794 164.536 211.562ZM156.904 205.784C156.904 206.3 157.102 206.702 157.498 206.99C157.894 207.278 158.464 207.518 159.208 207.71V203.822C158.44 203.918 157.864 204.146 157.48 204.506C157.096 204.854 156.904 205.28 156.904 205.784ZM160.36 213.578C161.164 213.506 161.764 213.302 162.16 212.966C162.568 212.618 162.772 212.186 162.772 211.67C162.772 211.142 162.562 210.74 162.142 210.464C161.734 210.176 161.14 209.924 160.36 209.708V213.578ZM170.05 202.256C171.742 202.256 173.044 202.802 173.956 203.894C174.88 204.986 175.342 206.534 175.342 208.538C175.342 209.942 175.09 211.142 174.586 212.138C174.094 213.122 173.398 213.872 172.498 214.388C171.61 214.892 170.572 215.144 169.384 215.144C168.772 215.144 168.196 215.084 167.656 214.964C167.116 214.832 166.648 214.646 166.252 214.406L166.936 213.002C167.548 213.398 168.358 213.596 169.366 213.596C170.674 213.596 171.694 213.194 172.426 212.39C173.17 211.574 173.542 210.392 173.542 208.844V208.394C173.182 208.934 172.684 209.348 172.048 209.636C171.412 209.912 170.698 210.05 169.906 210.05C169.078 210.05 168.334 209.894 167.674 209.582C167.026 209.27 166.516 208.826 166.144 208.25C165.784 207.662 165.604 206.99 165.604 206.234C165.604 205.442 165.796 204.746 166.18 204.146C166.576 203.546 167.11 203.084 167.782 202.76C168.454 202.424 169.21 202.256 170.05 202.256ZM170.212 208.592C170.776 208.592 171.28 208.484 171.724 208.268C172.168 208.052 172.51 207.758 172.75 207.386C173.002 207.014 173.128 206.6 173.128 206.144C173.128 205.7 173.008 205.298 172.768 204.938C172.54 204.566 172.198 204.272 171.742 204.056C171.298 203.828 170.758 203.714 170.122 203.714C169.294 203.714 168.622 203.936 168.106 204.38C167.602 204.824 167.35 205.418 167.35 206.162C167.35 206.906 167.608 207.5 168.124 207.944C168.64 208.376 169.336 208.592 170.212 208.592ZM182.509 207.35C183.337 207.35 184.075 207.506 184.723 207.818C185.383 208.13 185.899 208.58 186.271 209.168C186.643 209.744 186.829 210.41 186.829 211.166C186.829 211.958 186.631 212.654 186.235 213.254C185.851 213.854 185.317 214.322 184.633 214.658C183.961 214.982 183.205 215.144 182.365 215.144C180.673 215.144 179.365 214.598 178.441 213.506C177.529 212.414 177.073 210.866 177.073 208.862C177.073 207.458 177.319 206.264 177.811 205.28C178.315 204.284 179.011 203.534 179.899 203.03C180.799 202.514 181.843 202.256 183.031 202.256C183.643 202.256 184.219 202.322 184.759 202.454C185.299 202.574 185.767 202.754 186.163 202.994L185.479 204.398C184.879 204.002 184.075 203.804 183.067 203.804C181.759 203.804 180.733 204.212 179.989 205.028C179.245 205.832 178.873 207.008 178.873 208.556C178.873 208.748 178.879 208.898 178.891 209.006C179.251 208.466 179.743 208.058 180.367 207.782C181.003 207.494 181.717 207.35 182.509 207.35ZM182.293 213.686C183.121 213.686 183.793 213.464 184.309 213.02C184.825 212.576 185.083 211.982 185.083 211.238C185.083 210.494 184.819 209.906 184.291 209.474C183.775 209.03 183.079 208.808 182.203 208.808C181.639 208.808 181.135 208.916 180.691 209.132C180.259 209.348 179.917 209.642 179.665 210.014C179.425 210.386 179.305 210.8 179.305 211.256C179.305 211.7 179.419 212.108 179.647 212.48C179.887 212.84 180.229 213.134 180.673 213.362C181.129 213.578 181.669 213.686 182.293 213.686ZM189.564 212.642C189.9 212.642 190.176 212.762 190.392 213.002C190.62 213.23 190.734 213.518 190.734 213.866C190.734 214.046 190.71 214.22 190.662 214.388C190.626 214.556 190.548 214.814 190.428 215.162L189.582 217.664H188.448L189.114 214.982C188.886 214.898 188.7 214.76 188.556 214.568C188.424 214.364 188.358 214.13 188.358 213.866C188.358 213.506 188.472 213.212 188.7 212.984C188.928 212.756 189.216 212.642 189.564 212.642ZM196.114 202.4V215H194.332V203.966H191.488V202.4H196.114ZM209.832 211.904H207.438V215H205.692V211.904H198.69V210.644L205.134 202.4H207.078L200.904 210.356H205.746V207.62H207.438V210.356H209.832V211.904ZM219.714 213.434V215H210.66V213.776L215.79 208.826C216.414 208.226 216.834 207.71 217.05 207.278C217.266 206.834 217.374 206.39 217.374 205.946C217.374 205.286 217.14 204.776 216.672 204.416C216.216 204.044 215.556 203.858 214.692 203.858C213.3 203.858 212.226 204.314 211.47 205.226L210.246 204.164C210.738 203.564 211.38 203.096 212.172 202.76C212.976 202.424 213.87 202.256 214.854 202.256C216.174 202.256 217.224 202.574 218.004 203.21C218.784 203.834 219.174 204.686 219.174 205.766C219.174 206.438 219.03 207.074 218.742 207.674C218.454 208.274 217.908 208.958 217.104 209.726L213.252 213.434H219.714Z" fill="#606060"/>
<path d="M364.44 100.562C364.44 101.51 364.08 102.314 363.36 102.974C362.652 103.634 361.62 104.018 360.264 104.126V106.16H359.112V104.126C358.236 104.078 357.402 103.916 356.61 103.64C355.83 103.352 355.206 102.992 354.738 102.56L355.404 101.156C355.836 101.552 356.382 101.882 357.042 102.146C357.702 102.398 358.392 102.548 359.112 102.596V98.42C358.272 98.216 357.57 97.994 357.006 97.754C356.454 97.514 355.986 97.16 355.602 96.692C355.23 96.224 355.044 95.612 355.044 94.856C355.044 93.908 355.386 93.104 356.07 92.444C356.766 91.784 357.78 91.4 359.112 91.292V89.24H360.264V91.274C360.948 91.298 361.608 91.406 362.244 91.598C362.892 91.79 363.45 92.048 363.918 92.372L363.324 93.812C362.352 93.2 361.332 92.864 360.264 92.804V96.998C361.14 97.214 361.86 97.442 362.424 97.682C362.988 97.91 363.462 98.258 363.846 98.726C364.242 99.182 364.44 99.794 364.44 100.562ZM356.808 94.784C356.808 95.3 357.006 95.702 357.402 95.99C357.798 96.278 358.368 96.518 359.112 96.71V92.822C358.344 92.918 357.768 93.146 357.384 93.506C357 93.854 356.808 94.28 356.808 94.784ZM360.264 102.578C361.068 102.506 361.668 102.302 362.064 101.966C362.472 101.618 362.676 101.186 362.676 100.67C362.676 100.142 362.466 99.74 362.046 99.464C361.638 99.176 361.044 98.924 360.264 98.708V102.578ZM369.774 91.4V104H367.992V92.966H365.148V91.4H369.774ZM376.436 91.4V104H374.654V92.966H371.81V91.4H376.436ZM384.34 104.144C383.344 104.144 382.456 103.892 381.676 103.388C380.908 102.872 380.302 102.128 379.858 101.156C379.414 100.184 379.192 99.032 379.192 97.7C379.192 96.368 379.414 95.216 379.858 94.244C380.302 93.272 380.908 92.534 381.676 92.03C382.456 91.514 383.344 91.256 384.34 91.256C385.324 91.256 386.2 91.514 386.968 92.03C387.748 92.534 388.36 93.272 388.804 94.244C389.248 95.216 389.47 96.368 389.47 97.7C389.47 99.032 389.248 100.184 388.804 101.156C388.36 102.128 387.748 102.872 386.968 103.388C386.2 103.892 385.324 104.144 384.34 104.144ZM384.34 102.542C385.348 102.542 386.152 102.128 386.752 101.3C387.364 100.472 387.67 99.272 387.67 97.7C387.67 96.128 387.364 94.928 386.752 94.1C386.152 93.272 385.348 92.858 384.34 92.858C383.32 92.858 382.504 93.272 381.892 94.1C381.292 94.928 380.992 96.128 380.992 97.7C380.992 99.272 381.292 100.472 381.892 101.3C382.504 102.128 383.32 102.542 384.34 102.542ZM392.193 101.642C392.529 101.642 392.805 101.762 393.021 102.002C393.249 102.23 393.363 102.518 393.363 102.866C393.363 103.046 393.339 103.22 393.291 103.388C393.255 103.556 393.177 103.814 393.057 104.162L392.211 106.664H391.077L391.743 103.982C391.515 103.898 391.329 103.76 391.185 103.568C391.053 103.364 390.987 103.13 390.987 102.866C390.987 102.506 391.101 102.212 391.329 101.984C391.557 101.756 391.845 101.642 392.193 101.642ZM404.017 91.4V92.624L398.923 104H397.015L402.001 92.966H396.241V95.216H394.513V91.4H404.017ZM414.774 91.4V92.624L409.68 104H407.772L412.758 92.966H406.998V95.216H405.27V91.4H414.774ZM419.636 96.422C421.436 96.422 422.756 96.764 423.596 97.448C424.448 98.12 424.874 99.044 424.874 100.22C424.874 100.964 424.694 101.636 424.334 102.236C423.986 102.824 423.452 103.292 422.732 103.64C422.024 103.976 421.148 104.144 420.104 104.144C419.216 104.144 418.358 104.012 417.53 103.748C416.702 103.472 416.018 103.094 415.478 102.614L416.306 101.192C416.738 101.6 417.29 101.93 417.962 102.182C418.634 102.422 419.342 102.542 420.086 102.542C421.034 102.542 421.766 102.344 422.282 101.948C422.81 101.54 423.074 100.988 423.074 100.292C423.074 99.536 422.786 98.966 422.21 98.582C421.634 98.186 420.65 97.988 419.258 97.988H416.396L417.062 91.4H424.172V92.966H418.574L418.232 96.422H419.636Z" fill="#606060"/>
<path d="M575.274 13.562C575.274 14.51 574.914 15.314 574.194 15.974C573.486 16.634 572.454 17.018 571.098 17.126V19.16H569.946V17.126C569.07 17.078 568.236 16.916 567.444 16.64C566.664 16.352 566.04 15.992 565.572 15.56L566.238 14.156C566.67 14.552 567.216 14.882 567.876 15.146C568.536 15.398 569.226 15.548 569.946 15.596V11.42C569.106 11.216 568.404 10.994 567.84 10.754C567.288 10.514 566.82 10.16 566.436 9.692C566.064 9.224 565.878 8.612 565.878 7.856C565.878 6.908 566.22 6.104 566.904 5.444C567.6 4.784 568.614 4.4 569.946 4.292V2.24H571.098V4.274C571.782 4.298 572.442 4.406 573.078 4.598C573.726 4.79 574.284 5.048 574.752 5.372L574.158 6.812C573.186 6.2 572.166 5.864 571.098 5.804V9.998C571.974 10.214 572.694 10.442 573.258 10.682C573.822 10.91 574.296 11.258 574.68 11.726C575.076 12.182 575.274 12.794 575.274 13.562ZM567.642 7.784C567.642 8.3 567.84 8.702 568.236 8.99C568.632 9.278 569.202 9.518 569.946 9.71V5.822C569.178 5.918 568.602 6.146 568.218 6.506C567.834 6.854 567.642 7.28 567.642 7.784ZM571.098 15.578C571.902 15.506 572.502 15.302 572.898 14.966C573.306 14.618 573.51 14.186 573.51 13.67C573.51 13.142 573.3 12.74 572.88 12.464C572.472 12.176 571.878 11.924 571.098 11.708V15.578ZM580.608 4.4V17H578.826V5.966H575.982V4.4H580.608ZM592.22 15.434V17H583.166V15.776L588.296 10.826C588.92 10.226 589.34 9.71 589.556 9.278C589.772 8.834 589.88 8.39 589.88 7.946C589.88 7.286 589.646 6.776 589.178 6.416C588.722 6.044 588.062 5.858 587.198 5.858C585.806 5.858 584.732 6.314 583.976 7.226L582.752 6.164C583.244 5.564 583.886 5.096 584.678 4.76C585.482 4.424 586.376 4.256 587.36 4.256C588.68 4.256 589.73 4.574 590.51 5.21C591.29 5.834 591.68 6.686 591.68 7.766C591.68 8.438 591.536 9.074 591.248 9.674C590.96 10.274 590.414 10.958 589.61 11.726L585.758 15.434H592.22ZM598.524 9.692C599.76 9.812 600.702 10.196 601.35 10.844C601.998 11.48 602.322 12.296 602.322 13.292C602.322 14.012 602.142 14.666 601.782 15.254C601.422 15.83 600.882 16.292 600.162 16.64C599.454 16.976 598.584 17.144 597.552 17.144C596.652 17.144 595.788 17.012 594.96 16.748C594.132 16.472 593.454 16.094 592.926 15.614L593.754 14.192C594.186 14.6 594.738 14.93 595.41 15.182C596.082 15.422 596.796 15.542 597.552 15.542C598.488 15.542 599.214 15.344 599.73 14.948C600.258 14.552 600.522 14.006 600.522 13.31C600.522 12.614 600.264 12.074 599.748 11.69C599.232 11.306 598.452 11.114 597.408 11.114H596.4V9.854L599.568 5.966H593.502V4.4H601.818V5.624L598.524 9.692ZM605.207 14.642C605.543 14.642 605.819 14.762 606.035 15.002C606.263 15.23 606.377 15.518 606.377 15.866C606.377 16.046 606.353 16.22 606.305 16.388C606.269 16.556 606.191 16.814 606.071 17.162L605.225 19.664H604.091L604.757 16.982C604.529 16.898 604.343 16.76 604.199 16.568C604.067 16.364 604.001 16.13 604.001 15.866C604.001 15.506 604.115 15.212 604.343 14.984C604.571 14.756 604.859 14.642 605.207 14.642ZM611.756 4.4V17H609.974V5.966H607.13V4.4H611.756ZM618.418 4.4V17H616.636V5.966H613.792V4.4H618.418ZM624.775 9.422C626.575 9.422 627.895 9.764 628.735 10.448C629.587 11.12 630.013 12.044 630.013 13.22C630.013 13.964 629.833 14.636 629.473 15.236C629.125 15.824 628.591 16.292 627.871 16.64C627.163 16.976 626.287 17.144 625.243 17.144C624.355 17.144 623.497 17.012 622.669 16.748C621.841 16.472 621.157 16.094 620.617 15.614L621.445 14.192C621.877 14.6 622.429 14.93 623.101 15.182C623.773 15.422 624.481 15.542 625.225 15.542C626.173 15.542 626.905 15.344 627.421 14.948C627.949 14.54 628.213 13.988 628.213 13.292C628.213 12.536 627.925 11.966 627.349 11.582C626.773 11.186 625.789 10.988 624.397 10.988H621.535L622.201 4.4H629.311V5.966H623.713L623.371 9.422H624.775ZM636.506 11.312H641.348V12.806H636.506V11.312ZM657.645 13.562C657.645 14.51 657.285 15.314 656.565 15.974C655.857 16.634 654.825 17.018 653.469 17.126V19.16H652.317V17.126C651.441 17.078 650.607 16.916 649.815 16.64C649.035 16.352 648.411 15.992 647.943 15.56L648.609 14.156C649.041 14.552 649.587 14.882 650.247 15.146C650.907 15.398 651.597 15.548 652.317 15.596V11.42C651.477 11.216 650.775 10.994 650.211 10.754C649.659 10.514 649.191 10.16 648.807 9.692C648.435 9.224 648.249 8.612 648.249 7.856C648.249 6.908 648.591 6.104 649.275 5.444C649.971 4.784 650.985 4.4 652.317 4.292V2.24H653.469V4.274C654.153 4.298 654.813 4.406 655.449 4.598C656.097 4.79 656.655 5.048 657.123 5.372L656.529 6.812C655.557 6.2 654.537 5.864 653.469 5.804V9.998C654.345 10.214 655.065 10.442 655.629 10.682C656.193 10.91 656.667 11.258 657.051 11.726C657.447 12.182 657.645 12.794 657.645 13.562ZM650.013 7.784C650.013 8.3 650.211 8.702 650.607 8.99C651.003 9.278 651.573 9.518 652.317 9.71V5.822C651.549 5.918 650.973 6.146 650.589 6.506C650.205 6.854 650.013 7.28 650.013 7.784ZM653.469 15.578C654.273 15.506 654.873 15.302 655.269 14.966C655.677 14.618 655.881 14.186 655.881 13.67C655.881 13.142 655.671 12.74 655.251 12.464C654.843 12.176 654.249 11.924 653.469 11.708V15.578ZM662.979 4.4V17H661.197V5.966H658.353V4.4H662.979ZM670.559 9.692C671.795 9.812 672.737 10.196 673.385 10.844C674.033 11.48 674.357 12.296 674.357 13.292C674.357 14.012 674.177 14.666 673.817 15.254C673.457 15.83 672.917 16.292 672.197 16.64C671.489 16.976 670.619 17.144 669.587 17.144C668.687 17.144 667.823 17.012 666.995 16.748C666.167 16.472 665.489 16.094 664.961 15.614L665.789 14.192C666.221 14.6 666.773 14.93 667.445 15.182C668.117 15.422 668.831 15.542 669.587 15.542C670.523 15.542 671.249 15.344 671.765 14.948C672.293 14.552 672.557 14.006 672.557 13.31C672.557 12.614 672.299 12.074 671.783 11.69C671.267 11.306 670.487 11.114 669.443 11.114H668.435V9.854L671.603 5.966H665.537V4.4H673.853V5.624L670.559 9.692ZM681.472 9.35C682.3 9.35 683.038 9.506 683.686 9.818C684.346 10.13 684.862 10.58 685.234 11.168C685.606 11.744 685.792 12.41 685.792 13.166C685.792 13.958 685.594 14.654 685.198 15.254C684.814 15.854 684.28 16.322 683.596 16.658C682.924 16.982 682.168 17.144 681.328 17.144C679.636 17.144 678.328 16.598 677.404 15.506C676.492 14.414 676.036 12.866 676.036 10.862C676.036 9.458 676.282 8.264 676.774 7.28C677.278 6.284 677.974 5.534 678.862 5.03C679.762 4.514 680.806 4.256 681.994 4.256C682.606 4.256 683.182 4.322 683.722 4.454C684.262 4.574 684.73 4.754 685.126 4.994L684.442 6.398C683.842 6.002 683.038 5.804 682.03 5.804C680.722 5.804 679.696 6.212 678.952 7.028C678.208 7.832 677.836 9.008 677.836 10.556C677.836 10.748 677.842 10.898 677.854 11.006C678.214 10.466 678.706 10.058 679.33 9.782C679.966 9.494 680.68 9.35 681.472 9.35ZM681.256 15.686C682.084 15.686 682.756 15.464 683.272 15.02C683.788 14.576 684.046 13.982 684.046 13.238C684.046 12.494 683.782 11.906 683.254 11.474C682.738 11.03 682.042 10.808 681.166 10.808C680.602 10.808 680.098 10.916 679.654 11.132C679.222 11.348 678.88 11.642 678.628 12.014C678.388 12.386 678.268 12.8 678.268 13.256C678.268 13.7 678.382 14.108 678.61 14.48C678.85 14.84 679.192 15.134 679.636 15.362C680.092 15.578 680.632 15.686 681.256 15.686ZM688.527 14.642C688.863 14.642 689.139 14.762 689.355 15.002C689.583 15.23 689.697 15.518 689.697 15.866C689.697 16.046 689.673 16.22 689.625 16.388C689.589 16.556 689.511 16.814 689.391 17.162L688.545 19.664H687.411L688.077 16.982C687.849 16.898 687.663 16.76 687.519 16.568C687.387 16.364 687.321 16.13 687.321 15.866C687.321 15.506 687.435 15.212 687.663 14.984C687.891 14.756 688.179 14.642 688.527 14.642ZM700.431 15.434V17H691.377V15.776L696.507 10.826C697.131 10.226 697.551 9.71 697.767 9.278C697.983 8.834 698.091 8.39 698.091 7.946C698.091 7.286 697.857 6.776 697.389 6.416C696.933 6.044 696.273 5.858 695.409 5.858C694.017 5.858 692.943 6.314 692.187 7.226L690.963 6.164C691.455 5.564 692.097 5.096 692.889 4.76C693.693 4.424 694.587 4.256 695.571 4.256C696.891 4.256 697.941 4.574 698.721 5.21C699.501 5.834 699.891 6.686 699.891 7.766C699.891 8.438 699.747 9.074 699.459 9.674C699.171 10.274 698.625 10.958 697.821 11.726L693.969 15.434H700.431ZM710.767 15.434V17H701.713V15.776L706.843 10.826C707.467 10.226 707.887 9.71 708.103 9.278C708.319 8.834 708.427 8.39 708.427 7.946C708.427 7.286 708.193 6.776 707.725 6.416C707.269 6.044 706.609 5.858 705.745 5.858C704.353 5.858 703.279 6.314 702.523 7.226L701.299 6.164C701.791 5.564 702.433 5.096 703.225 4.76C704.029 4.424 704.923 4.256 705.907 4.256C707.227 4.256 708.277 4.574 709.057 5.21C709.837 5.834 710.227 6.686 710.227 7.766C710.227 8.438 710.083 9.074 709.795 9.674C709.507 10.274 708.961 10.958 708.157 11.726L704.305 15.434H710.767ZM719.951 10.394C720.671 10.67 721.223 11.066 721.607 11.582C721.991 12.098 722.183 12.716 722.183 13.436C722.183 14.192 721.979 14.852 721.571 15.416C721.163 15.968 720.581 16.394 719.825 16.694C719.069 16.994 718.181 17.144 717.161 17.144C716.153 17.144 715.271 16.994 714.515 16.694C713.771 16.394 713.195 15.968 712.787 15.416C712.379 14.852 712.175 14.192 712.175 13.436C712.175 12.716 712.361 12.098 712.733 11.582C713.117 11.066 713.669 10.67 714.389 10.394C713.813 10.118 713.375 9.752 713.075 9.296C712.775 8.84 712.625 8.3 712.625 7.676C712.625 6.98 712.811 6.374 713.183 5.858C713.567 5.342 714.101 4.946 714.785 4.67C715.469 4.394 716.261 4.256 717.161 4.256C718.073 4.256 718.871 4.394 719.555 4.67C720.251 4.946 720.785 5.342 721.157 5.858C721.541 6.374 721.733 6.98 721.733 7.676C721.733 8.288 721.577 8.828 721.265 9.296C720.965 9.752 720.527 10.118 719.951 10.394ZM717.161 5.714C716.309 5.714 715.637 5.9 715.145 6.272C714.653 6.632 714.407 7.124 714.407 7.748C714.407 8.372 714.647 8.864 715.127 9.224C715.619 9.584 716.297 9.764 717.161 9.764C718.037 9.764 718.721 9.584 719.213 9.224C719.717 8.864 719.969 8.372 719.969 7.748C719.969 7.124 719.711 6.632 719.195 6.272C718.691 5.9 718.013 5.714 717.161 5.714ZM717.161 15.686C718.157 15.686 718.943 15.482 719.519 15.074C720.095 14.654 720.383 14.09 720.383 13.382C720.383 12.686 720.095 12.14 719.519 11.744C718.943 11.336 718.157 11.132 717.161 11.132C716.165 11.132 715.385 11.336 714.821 11.744C714.257 12.14 713.975 12.686 713.975 13.382C713.975 14.09 714.257 14.654 714.821 15.074C715.385 15.482 716.165 15.686 717.161 15.686Z" fill="#606060"/>
<path d="M78 244C78 235.163 85.1634 228 94 228H196V359H78V244Z" fill="#CECECE"/>
<path d="M319 142C319 133.163 326.163 126 335 126H437V359H319V142Z" fill="#FED271"/>
<path d="M560 54C560 45.1635 567.163 38 576 38H678V359H560V54Z" fill="#B976F4"/>
<path d="M196 228L235 251.527V359H196V228Z" fill="#B2B2B2"/>
<path d="M437 126L476 149.501V357H437V126Z" fill="#E5B34E"/>
<path d="M678 38L717 61.5058V358H678V38Z" fill="#A16CD8"/>
<path d="M235 252L319 299.526V358H235L235 252Z" fill="#E8E5E2"/>
<path d="M476 150L560 197.528V358H476L476 150Z" fill="#E8E5E2"/>
<line x1="1.31134e-07" y1="357.5" x2="795" y2="357.5" stroke="#2D1B84" stroke-width="3"/>
<path d="M130.034 398.434V400H120.89V387.4H129.782V388.966H122.69V392.836H129.008V394.366H122.69V398.434H130.034ZM137.791 390.37C139.003 390.37 139.963 390.724 140.671 391.432C141.391 392.128 141.751 393.154 141.751 394.51V400H140.023V394.708C140.023 393.784 139.801 393.088 139.357 392.62C138.913 392.152 138.277 391.918 137.449 391.918C136.513 391.918 135.775 392.194 135.235 392.746C134.695 393.286 134.425 394.066 134.425 395.086V400H132.697V390.46H134.353V391.9C134.701 391.408 135.169 391.03 135.757 390.766C136.357 390.502 137.035 390.37 137.791 390.37ZM150.313 399.442C150.061 399.658 149.749 399.826 149.377 399.946C149.005 400.054 148.621 400.108 148.225 400.108C147.265 400.108 146.521 399.85 145.993 399.334C145.465 398.818 145.201 398.08 145.201 397.12V391.882H143.581V390.46H145.201V388.372H146.929V390.46H149.665V391.882H146.929V397.048C146.929 397.564 147.055 397.96 147.307 398.236C147.571 398.512 147.943 398.65 148.423 398.65C148.951 398.65 149.401 398.5 149.773 398.2L150.313 399.442ZM154.058 392.062C154.358 391.51 154.802 391.09 155.39 390.802C155.978 390.514 156.692 390.37 157.532 390.37V392.044C157.436 392.032 157.304 392.026 157.136 392.026C156.2 392.026 155.462 392.308 154.922 392.872C154.394 393.424 154.13 394.216 154.13 395.248V400H152.402V390.46H154.058V392.062ZM168.49 390.46L163.864 400.954C163.456 401.926 162.976 402.61 162.424 403.006C161.884 403.402 161.23 403.6 160.462 403.6C159.994 403.6 159.538 403.522 159.094 403.366C158.662 403.222 158.302 403.006 158.014 402.718L158.752 401.422C159.244 401.89 159.814 402.124 160.462 402.124C160.882 402.124 161.23 402.01 161.506 401.782C161.794 401.566 162.052 401.188 162.28 400.648L162.586 399.982L158.374 390.46H160.174L163.504 398.092L166.798 390.46H168.49ZM174.937 386.644H176.665V400H174.937V386.644ZM188.586 395.284C188.586 395.416 188.574 395.59 188.55 395.806H180.81C180.918 396.646 181.284 397.324 181.908 397.84C182.544 398.344 183.33 398.596 184.266 398.596C185.406 398.596 186.324 398.212 187.02 397.444L187.974 398.56C187.542 399.064 187.002 399.448 186.354 399.712C185.718 399.976 185.004 400.108 184.212 400.108C183.204 400.108 182.31 399.904 181.53 399.496C180.75 399.076 180.144 398.494 179.712 397.75C179.292 397.006 179.082 396.166 179.082 395.23C179.082 394.306 179.286 393.472 179.694 392.728C180.114 391.984 180.684 391.408 181.404 391C182.136 390.58 182.958 390.37 183.87 390.37C184.782 390.37 185.592 390.58 186.3 391C187.02 391.408 187.578 391.984 187.974 392.728C188.382 393.472 188.586 394.324 188.586 395.284ZM183.87 391.828C183.042 391.828 182.346 392.08 181.782 392.584C181.23 393.088 180.906 393.748 180.81 394.564H186.93C186.834 393.76 186.504 393.106 185.94 392.602C185.388 392.086 184.698 391.828 183.87 391.828ZM199.252 390.46L195.076 400H193.312L189.136 390.46H190.936L194.212 398.11L197.56 390.46H199.252ZM209.223 395.284C209.223 395.416 209.211 395.59 209.187 395.806H201.447C201.555 396.646 201.921 397.324 202.545 397.84C203.181 398.344 203.967 398.596 204.903 398.596C206.043 398.596 206.961 398.212 207.657 397.444L208.611 398.56C208.179 399.064 207.639 399.448 206.991 399.712C206.355 399.976 205.641 400.108 204.849 400.108C203.841 400.108 202.947 399.904 202.167 399.496C201.387 399.076 200.781 398.494 200.349 397.75C199.929 397.006 199.719 396.166 199.719 395.23C199.719 394.306 199.923 393.472 200.331 392.728C200.751 391.984 201.321 391.408 202.041 391C202.773 390.58 203.595 390.37 204.507 390.37C205.419 390.37 206.229 390.58 206.937 391C207.657 391.408 208.215 391.984 208.611 392.728C209.019 393.472 209.223 394.324 209.223 395.284ZM204.507 391.828C203.679 391.828 202.983 392.08 202.419 392.584C201.867 393.088 201.543 393.748 201.447 394.564H207.567C207.471 393.76 207.141 393.106 206.577 392.602C206.025 392.086 205.335 391.828 204.507 391.828ZM211.622 386.644H213.35V400H211.622V386.644ZM122.852 425.492C122.168 424.388 121.64 423.122 121.268 421.694C120.896 420.254 120.71 418.712 120.71 417.068C120.71 415.424 120.896 413.882 121.268 412.442C121.64 410.99 122.168 409.724 122.852 408.644H124.49C123.77 409.904 123.242 411.224 122.906 412.604C122.57 413.984 122.402 415.472 122.402 417.068C122.402 418.664 122.57 420.152 122.906 421.532C123.242 422.912 123.77 424.232 124.49 425.492H122.852ZM130.01 409.4V422H128.228V410.966H125.384V409.4H130.01ZM132.928 416.312H137.77V417.806H132.928V416.312ZM150.742 418.904H148.348V422H146.602V418.904H139.6V417.644L146.044 409.4H147.988L141.814 417.356H146.656V414.62H148.348V417.356H150.742V418.904ZM165.871 412.46L161.245 422.954C160.837 423.926 160.357 424.61 159.805 425.006C159.265 425.402 158.611 425.6 157.843 425.6C157.375 425.6 156.919 425.522 156.475 425.366C156.043 425.222 155.683 425.006 155.395 424.718L156.133 423.422C156.625 423.89 157.195 424.124 157.843 424.124C158.263 424.124 158.611 424.01 158.887 423.782C159.175 423.566 159.433 423.188 159.661 422.648L159.967 421.982L155.755 412.46H157.555L160.885 420.092L164.179 412.46H165.871ZM175.842 417.284C175.842 417.416 175.83 417.59 175.806 417.806H168.066C168.174 418.646 168.54 419.324 169.164 419.84C169.8 420.344 170.586 420.596 171.522 420.596C172.662 420.596 173.58 420.212 174.276 419.444L175.23 420.56C174.798 421.064 174.258 421.448 173.61 421.712C172.974 421.976 172.26 422.108 171.468 422.108C170.46 422.108 169.566 421.904 168.786 421.496C168.006 421.076 167.4 420.494 166.968 419.75C166.548 419.006 166.338 418.166 166.338 417.23C166.338 416.306 166.542 415.472 166.95 414.728C167.37 413.984 167.94 413.408 168.66 413C169.392 412.58 170.214 412.37 171.126 412.37C172.038 412.37 172.848 412.58 173.556 413C174.276 413.408 174.834 413.984 175.23 414.728C175.638 415.472 175.842 416.324 175.842 417.284ZM171.126 413.828C170.298 413.828 169.602 414.08 169.038 414.584C168.486 415.088 168.162 415.748 168.066 416.564H174.186C174.09 415.76 173.76 415.106 173.196 414.602C172.644 414.086 171.954 413.828 171.126 413.828ZM181.452 412.37C182.772 412.37 183.78 412.694 184.476 413.342C185.184 413.99 185.538 414.956 185.538 416.24V422H183.9V420.74C183.612 421.184 183.198 421.526 182.658 421.766C182.13 421.994 181.5 422.108 180.768 422.108C179.7 422.108 178.842 421.85 178.194 421.334C177.558 420.818 177.24 420.14 177.24 419.3C177.24 418.46 177.546 417.788 178.158 417.284C178.77 416.768 179.742 416.51 181.074 416.51H183.81V416.168C183.81 415.424 183.594 414.854 183.162 414.458C182.73 414.062 182.094 413.864 181.254 413.864C180.69 413.864 180.138 413.96 179.598 414.152C179.058 414.332 178.602 414.578 178.23 414.89L177.51 413.594C178.002 413.198 178.59 412.898 179.274 412.694C179.958 412.478 180.684 412.37 181.452 412.37ZM181.056 420.776C181.716 420.776 182.286 420.632 182.766 420.344C183.246 420.044 183.594 419.624 183.81 419.084V417.752H181.146C179.682 417.752 178.95 418.244 178.95 419.228C178.95 419.708 179.136 420.086 179.508 420.362C179.88 420.638 180.396 420.776 181.056 420.776ZM190.392 414.062C190.692 413.51 191.136 413.09 191.724 412.802C192.312 412.514 193.026 412.37 193.866 412.37V414.044C193.77 414.032 193.638 414.026 193.47 414.026C192.534 414.026 191.796 414.308 191.256 414.872C190.728 415.424 190.464 416.216 190.464 417.248V422H188.736V412.46H190.392V414.062ZM198.802 422.108C198.022 422.108 197.272 422.006 196.552 421.802C195.832 421.586 195.268 421.316 194.86 420.992L195.58 419.624C196 419.924 196.51 420.164 197.11 420.344C197.71 420.524 198.316 420.614 198.928 420.614C200.44 420.614 201.196 420.182 201.196 419.318C201.196 419.03 201.094 418.802 200.89 418.634C200.686 418.466 200.428 418.346 200.116 418.274C199.816 418.19 199.384 418.1 198.82 418.004C198.052 417.884 197.422 417.746 196.93 417.59C196.45 417.434 196.036 417.17 195.688 416.798C195.34 416.426 195.166 415.904 195.166 415.232C195.166 414.368 195.526 413.678 196.246 413.162C196.966 412.634 197.932 412.37 199.144 412.37C199.78 412.37 200.416 412.448 201.052 412.604C201.688 412.76 202.21 412.97 202.618 413.234L201.88 414.602C201.1 414.098 200.182 413.846 199.126 413.846C198.394 413.846 197.836 413.966 197.452 414.206C197.068 414.446 196.876 414.764 196.876 415.16C196.876 415.472 196.984 415.718 197.2 415.898C197.416 416.078 197.68 416.21 197.992 416.294C198.316 416.378 198.766 416.474 199.342 416.582C200.11 416.714 200.728 416.858 201.196 417.014C201.676 417.158 202.084 417.41 202.42 417.77C202.756 418.13 202.924 418.634 202.924 419.282C202.924 420.146 202.552 420.836 201.808 421.352C201.076 421.856 200.074 422.108 198.802 422.108ZM204.021 425.492C204.741 424.232 205.269 422.912 205.605 421.532C205.953 420.152 206.127 418.664 206.127 417.068C206.127 415.472 205.953 413.984 205.605 412.604C205.269 411.224 204.741 409.904 204.021 408.644H205.659C206.355 409.724 206.889 410.984 207.261 412.424C207.633 413.864 207.819 415.412 207.819 417.068C207.819 418.712 207.633 420.254 207.261 421.694C206.889 423.134 206.355 424.4 205.659 425.492H204.021Z" fill="#606060"/>
<path d="M380.034 398.434V400H370.89V387.4H379.782V388.966H372.69V392.836H379.008V394.366H372.69V398.434H380.034ZM388.57 400L385.816 396.346L383.026 400H381.1L384.862 395.122L381.28 390.46H383.206L385.834 393.898L388.444 390.46H390.334L386.734 395.122L390.532 400H388.57ZM397.475 390.37C398.399 390.37 399.227 390.574 399.959 390.982C400.691 391.39 401.261 391.96 401.669 392.692C402.089 393.424 402.299 394.27 402.299 395.23C402.299 396.19 402.089 397.042 401.669 397.786C401.261 398.518 400.691 399.088 399.959 399.496C399.227 399.904 398.399 400.108 397.475 400.108C396.791 400.108 396.161 399.976 395.585 399.712C395.021 399.448 394.541 399.064 394.145 398.56V403.492H392.417V390.46H394.073V391.972C394.457 391.444 394.943 391.048 395.531 390.784C396.119 390.508 396.767 390.37 397.475 390.37ZM397.331 398.596C397.943 398.596 398.489 398.458 398.969 398.182C399.461 397.894 399.845 397.498 400.121 396.994C400.409 396.478 400.553 395.89 400.553 395.23C400.553 394.57 400.409 393.988 400.121 393.484C399.845 392.968 399.461 392.572 398.969 392.296C398.489 392.02 397.943 391.882 397.331 391.882C396.731 391.882 396.185 392.026 395.693 392.314C395.213 392.59 394.829 392.98 394.541 393.484C394.265 393.988 394.127 394.57 394.127 395.23C394.127 395.89 394.265 396.478 394.541 396.994C394.817 397.498 395.201 397.894 395.693 398.182C396.185 398.458 396.731 398.596 397.331 398.596ZM413.309 395.284C413.309 395.416 413.297 395.59 413.273 395.806H405.533C405.641 396.646 406.007 397.324 406.631 397.84C407.267 398.344 408.053 398.596 408.989 398.596C410.129 398.596 411.047 398.212 411.743 397.444L412.697 398.56C412.265 399.064 411.725 399.448 411.077 399.712C410.441 399.976 409.727 400.108 408.935 400.108C407.927 400.108 407.033 399.904 406.253 399.496C405.473 399.076 404.867 398.494 404.435 397.75C404.015 397.006 403.805 396.166 403.805 395.23C403.805 394.306 404.009 393.472 404.417 392.728C404.837 391.984 405.407 391.408 406.127 391C406.859 390.58 407.681 390.37 408.593 390.37C409.505 390.37 410.315 390.58 411.023 391C411.743 391.408 412.301 391.984 412.697 392.728C413.105 393.472 413.309 394.324 413.309 395.284ZM408.593 391.828C407.765 391.828 407.069 392.08 406.505 392.584C405.953 393.088 405.629 393.748 405.533 394.564H411.653C411.557 393.76 411.227 393.106 410.663 392.602C410.111 392.086 409.421 391.828 408.593 391.828ZM417.364 392.062C417.664 391.51 418.108 391.09 418.696 390.802C419.284 390.514 419.998 390.37 420.838 390.37V392.044C420.742 392.032 420.61 392.026 420.442 392.026C419.506 392.026 418.768 392.308 418.228 392.872C417.7 393.424 417.436 394.216 417.436 395.248V400H415.708V390.46H417.364V392.062ZM422.968 390.46H424.696V400H422.968V390.46ZM423.832 388.624C423.496 388.624 423.214 388.516 422.986 388.3C422.77 388.084 422.662 387.82 422.662 387.508C422.662 387.196 422.77 386.932 422.986 386.716C423.214 386.488 423.496 386.374 423.832 386.374C424.168 386.374 424.444 386.482 424.66 386.698C424.888 386.902 425.002 387.16 425.002 387.472C425.002 387.796 424.888 388.072 424.66 388.3C424.444 388.516 424.168 388.624 423.832 388.624ZM436.617 395.284C436.617 395.416 436.605 395.59 436.581 395.806H428.841C428.949 396.646 429.315 397.324 429.939 397.84C430.575 398.344 431.361 398.596 432.297 398.596C433.437 398.596 434.355 398.212 435.051 397.444L436.005 398.56C435.573 399.064 435.033 399.448 434.385 399.712C433.749 399.976 433.035 400.108 432.243 400.108C431.235 400.108 430.341 399.904 429.561 399.496C428.781 399.076 428.175 398.494 427.743 397.75C427.323 397.006 427.113 396.166 427.113 395.23C427.113 394.306 427.317 393.472 427.725 392.728C428.145 391.984 428.715 391.408 429.435 391C430.167 390.58 430.989 390.37 431.901 390.37C432.813 390.37 433.623 390.58 434.331 391C435.051 391.408 435.609 391.984 436.005 392.728C436.413 393.472 436.617 394.324 436.617 395.284ZM431.901 391.828C431.073 391.828 430.377 392.08 429.813 392.584C429.261 393.088 428.937 393.748 428.841 394.564H434.961C434.865 393.76 434.535 393.106 433.971 392.602C433.419 392.086 432.729 391.828 431.901 391.828ZM444.111 390.37C445.323 390.37 446.283 390.724 446.991 391.432C447.711 392.128 448.071 393.154 448.071 394.51V400H446.343V394.708C446.343 393.784 446.121 393.088 445.677 392.62C445.233 392.152 444.597 391.918 443.769 391.918C442.833 391.918 442.095 392.194 441.555 392.746C441.015 393.286 440.745 394.066 440.745 395.086V400H439.017V390.46H440.673V391.9C441.021 391.408 441.489 391.03 442.077 390.766C442.677 390.502 443.355 390.37 444.111 390.37ZM455.48 400.108C454.508 400.108 453.638 399.898 452.87 399.478C452.114 399.058 451.52 398.482 451.088 397.75C450.656 397.006 450.44 396.166 450.44 395.23C450.44 394.294 450.656 393.46 451.088 392.728C451.52 391.984 452.114 391.408 452.87 391C453.638 390.58 454.508 390.37 455.48 390.37C456.344 390.37 457.112 390.544 457.784 390.892C458.468 391.24 458.996 391.744 459.368 392.404L458.054 393.25C457.754 392.794 457.382 392.452 456.938 392.224C456.494 391.996 456.002 391.882 455.462 391.882C454.838 391.882 454.274 392.02 453.77 392.296C453.278 392.572 452.888 392.968 452.6 393.484C452.324 393.988 452.186 394.57 452.186 395.23C452.186 395.902 452.324 396.496 452.6 397.012C452.888 397.516 453.278 397.906 453.77 398.182C454.274 398.458 454.838 398.596 455.462 398.596C456.002 398.596 456.494 398.482 456.938 398.254C457.382 398.026 457.754 397.684 458.054 397.228L459.368 398.056C458.996 398.716 458.468 399.226 457.784 399.586C457.112 399.934 456.344 400.108 455.48 400.108ZM470.086 395.284C470.086 395.416 470.074 395.59 470.05 395.806H462.31C462.418 396.646 462.784 397.324 463.408 397.84C464.044 398.344 464.83 398.596 465.766 398.596C466.906 398.596 467.824 398.212 468.52 397.444L469.474 398.56C469.042 399.064 468.502 399.448 467.854 399.712C467.218 399.976 466.504 400.108 465.712 400.108C464.704 400.108 463.81 399.904 463.03 399.496C462.25 399.076 461.644 398.494 461.212 397.75C460.792 397.006 460.582 396.166 460.582 395.23C460.582 394.306 460.786 393.472 461.194 392.728C461.614 391.984 462.184 391.408 462.904 391C463.636 390.58 464.458 390.37 465.37 390.37C466.282 390.37 467.092 390.58 467.8 391C468.52 391.408 469.078 391.984 469.474 392.728C469.882 393.472 470.086 394.324 470.086 395.284ZM465.37 391.828C464.542 391.828 463.846 392.08 463.282 392.584C462.73 393.088 462.406 393.748 462.31 394.564H468.43C468.334 393.76 468.004 393.106 467.44 392.602C466.888 392.086 466.198 391.828 465.37 391.828ZM481.486 386.644V400H479.83V398.488C479.446 399.016 478.96 399.418 478.372 399.694C477.784 399.97 477.136 400.108 476.428 400.108C475.504 400.108 474.676 399.904 473.944 399.496C473.212 399.088 472.636 398.518 472.216 397.786C471.808 397.042 471.604 396.19 471.604 395.23C471.604 394.27 471.808 393.424 472.216 392.692C472.636 391.96 473.212 391.39 473.944 390.982C474.676 390.574 475.504 390.37 476.428 390.37C477.112 390.37 477.742 390.502 478.318 390.766C478.894 391.018 479.374 391.396 479.758 391.9V386.644H481.486ZM476.572 398.596C477.172 398.596 477.718 398.458 478.21 398.182C478.702 397.894 479.086 397.498 479.362 396.994C479.638 396.478 479.776 395.89 479.776 395.23C479.776 394.57 479.638 393.988 479.362 393.484C479.086 392.968 478.702 392.572 478.21 392.296C477.718 392.02 477.172 391.882 476.572 391.882C475.96 391.882 475.408 392.02 474.916 392.296C474.436 392.572 474.052 392.968 473.764 393.484C473.488 393.988 473.35 394.57 473.35 395.23C473.35 395.89 473.488 396.478 473.764 396.994C474.052 397.498 474.436 397.894 474.916 398.182C475.408 398.458 475.96 398.596 476.572 398.596ZM372.852 425.492C372.168 424.388 371.64 423.122 371.268 421.694C370.896 420.254 370.71 418.712 370.71 417.068C370.71 415.424 370.896 413.882 371.268 412.442C371.64 410.99 372.168 409.724 372.852 408.644H374.49C373.77 409.904 373.242 411.224 372.906 412.604C372.57 413.984 372.402 415.472 372.402 417.068C372.402 418.664 372.57 420.152 372.906 421.532C373.242 422.912 373.77 424.232 374.49 425.492H372.852ZM379.528 414.422C381.328 414.422 382.648 414.764 383.488 415.448C384.34 416.12 384.766 417.044 384.766 418.22C384.766 418.964 384.586 419.636 384.226 420.236C383.878 420.824 383.344 421.292 382.624 421.64C381.916 421.976 381.04 422.144 379.996 422.144C379.108 422.144 378.25 422.012 377.422 421.748C376.594 421.472 375.91 421.094 375.37 420.614L376.198 419.192C376.63 419.6 377.182 419.93 377.854 420.182C378.526 420.422 379.234 420.542 379.978 420.542C380.926 420.542 381.658 420.344 382.174 419.948C382.702 419.54 382.966 418.988 382.966 418.292C382.966 417.536 382.678 416.966 382.102 416.582C381.526 416.186 380.542 415.988 379.15 415.988H376.288L376.954 409.4H384.064V410.966H378.466L378.124 414.422H379.528ZM386.426 416.312H391.268V417.806H386.426V416.312ZM397.241 409.256C398.933 409.256 400.235 409.802 401.147 410.894C402.071 411.986 402.533 413.534 402.533 415.538C402.533 416.942 402.281 418.142 401.777 419.138C401.285 420.122 400.589 420.872 399.689 421.388C398.801 421.892 397.763 422.144 396.575 422.144C395.963 422.144 395.387 422.084 394.847 421.964C394.307 421.832 393.839 421.646 393.443 421.406L394.127 420.002C394.739 420.398 395.549 420.596 396.557 420.596C397.865 420.596 398.885 420.194 399.617 419.39C400.361 418.574 400.733 417.392 400.733 415.844V415.394C400.373 415.934 399.875 416.348 399.239 416.636C398.603 416.912 397.889 417.05 397.097 417.05C396.269 417.05 395.525 416.894 394.865 416.582C394.217 416.27 393.707 415.826 393.335 415.25C392.975 414.662 392.795 413.99 392.795 413.234C392.795 412.442 392.987 411.746 393.371 411.146C393.767 410.546 394.301 410.084 394.973 409.76C395.645 409.424 396.401 409.256 397.241 409.256ZM397.403 415.592C397.967 415.592 398.471 415.484 398.915 415.268C399.359 415.052 399.701 414.758 399.941 414.386C400.193 414.014 400.319 413.6 400.319 413.144C400.319 412.7 400.199 412.298 399.959 411.938C399.731 411.566 399.389 411.272 398.933 411.056C398.489 410.828 397.949 410.714 397.313 410.714C396.485 410.714 395.813 410.936 395.297 411.38C394.793 411.824 394.541 412.418 394.541 413.162C394.541 413.906 394.799 414.5 395.315 414.944C395.831 415.376 396.527 415.592 397.403 415.592ZM418.314 412.46L413.688 422.954C413.28 423.926 412.8 424.61 412.248 425.006C411.708 425.402 411.054 425.6 410.286 425.6C409.818 425.6 409.362 425.522 408.918 425.366C408.486 425.222 408.126 425.006 407.838 424.718L408.576 423.422C409.068 423.89 409.638 424.124 410.286 424.124C410.706 424.124 411.054 424.01 411.33 423.782C411.618 423.566 411.876 423.188 412.104 422.648L412.41 421.982L408.198 412.46H409.998L413.328 420.092L416.622 412.46H418.314ZM428.285 417.284C428.285 417.416 428.273 417.59 428.249 417.806H420.509C420.617 418.646 420.983 419.324 421.607 419.84C422.243 420.344 423.029 420.596 423.965 420.596C425.105 420.596 426.023 420.212 426.719 419.444L427.673 420.56C427.241 421.064 426.701 421.448 426.053 421.712C425.417 421.976 424.703 422.108 423.911 422.108C422.903 422.108 422.009 421.904 421.229 421.496C420.449 421.076 419.843 420.494 419.411 419.75C418.991 419.006 418.781 418.166 418.781 417.23C418.781 416.306 418.985 415.472 419.393 414.728C419.813 413.984 420.383 413.408 421.103 413C421.835 412.58 422.657 412.37 423.569 412.37C424.481 412.37 425.291 412.58 425.999 413C426.719 413.408 427.277 413.984 427.673 414.728C428.081 415.472 428.285 416.324 428.285 417.284ZM423.569 413.828C422.741 413.828 422.045 414.08 421.481 414.584C420.929 415.088 420.605 415.748 420.509 416.564H426.629C426.533 415.76 426.203 415.106 425.639 414.602C425.087 414.086 424.397 413.828 423.569 413.828ZM433.895 412.37C435.215 412.37 436.223 412.694 436.919 413.342C437.627 413.99 437.981 414.956 437.981 416.24V422H436.343V420.74C436.055 421.184 435.641 421.526 435.101 421.766C434.573 421.994 433.943 422.108 433.211 422.108C432.143 422.108 431.285 421.85 430.637 421.334C430.001 420.818 429.683 420.14 429.683 419.3C429.683 418.46 429.989 417.788 430.601 417.284C431.213 416.768 432.185 416.51 433.517 416.51H436.253V416.168C436.253 415.424 436.037 414.854 435.605 414.458C435.173 414.062 434.537 413.864 433.697 413.864C433.133 413.864 432.581 413.96 432.041 414.152C431.501 414.332 431.045 414.578 430.673 414.89L429.953 413.594C430.445 413.198 431.033 412.898 431.717 412.694C432.401 412.478 433.127 412.37 433.895 412.37ZM433.499 420.776C434.159 420.776 434.729 420.632 435.209 420.344C435.689 420.044 436.037 419.624 436.253 419.084V417.752H433.589C432.125 417.752 431.393 418.244 431.393 419.228C431.393 419.708 431.579 420.086 431.951 420.362C432.323 420.638 432.839 420.776 433.499 420.776ZM442.835 414.062C443.135 413.51 443.579 413.09 444.167 412.802C444.755 412.514 445.469 412.37 446.309 412.37V414.044C446.213 414.032 446.081 414.026 445.913 414.026C444.977 414.026 444.239 414.308 443.699 414.872C443.171 415.424 442.907 416.216 442.907 417.248V422H441.179V412.46H442.835V414.062ZM451.245 422.108C450.465 422.108 449.715 422.006 448.995 421.802C448.275 421.586 447.711 421.316 447.303 420.992L448.023 419.624C448.443 419.924 448.953 420.164 449.553 420.344C450.153 420.524 450.759 420.614 451.371 420.614C452.883 420.614 453.639 420.182 453.639 419.318C453.639 419.03 453.537 418.802 453.333 418.634C453.129 418.466 452.871 418.346 452.559 418.274C452.259 418.19 451.827 418.1 451.263 418.004C450.495 417.884 449.865 417.746 449.373 417.59C448.893 417.434 448.479 417.17 448.131 416.798C447.783 416.426 447.609 415.904 447.609 415.232C447.609 414.368 447.969 413.678 448.689 413.162C449.409 412.634 450.375 412.37 451.587 412.37C452.223 412.37 452.859 412.448 453.495 412.604C454.131 412.76 454.653 412.97 455.061 413.234L454.323 414.602C453.543 414.098 452.625 413.846 451.569 413.846C450.837 413.846 450.279 413.966 449.895 414.206C449.511 414.446 449.319 414.764 449.319 415.16C449.319 415.472 449.427 415.718 449.643 415.898C449.859 416.078 450.123 416.21 450.435 416.294C450.759 416.378 451.209 416.474 451.785 416.582C452.553 416.714 453.171 416.858 453.639 417.014C454.119 417.158 454.527 417.41 454.863 417.77C455.199 418.13 455.367 418.634 455.367 419.282C455.367 420.146 454.995 420.836 454.251 421.352C453.519 421.856 452.517 422.108 451.245 422.108ZM456.465 425.492C457.185 424.232 457.713 422.912 458.049 421.532C458.397 420.152 458.571 418.664 458.571 417.068C458.571 415.472 458.397 413.984 458.049 412.604C457.713 411.224 457.185 409.904 456.465 408.644H458.103C458.799 409.724 459.333 410.984 459.705 412.424C460.077 413.864 460.263 415.412 460.263 417.068C460.263 418.712 460.077 420.254 459.705 421.694C459.333 423.134 458.799 424.4 458.103 425.492H456.465Z" fill="#606060"/>
<path d="M615.562 400.144C614.614 400.144 613.696 400 612.808 399.712C611.932 399.412 611.242 399.028 610.738 398.56L611.404 397.156C611.884 397.588 612.496 397.942 613.24 398.218C613.996 398.482 614.77 398.614 615.562 398.614C616.606 398.614 617.386 398.44 617.902 398.092C618.418 397.732 618.676 397.258 618.676 396.67C618.676 396.238 618.532 395.89 618.244 395.626C617.968 395.35 617.62 395.14 617.2 394.996C616.792 394.852 616.21 394.69 615.454 394.51C614.506 394.282 613.738 394.054 613.15 393.826C612.574 393.598 612.076 393.25 611.656 392.782C611.248 392.302 611.044 391.66 611.044 390.856C611.044 390.184 611.218 389.578 611.566 389.038C611.926 388.498 612.466 388.066 613.186 387.742C613.906 387.418 614.8 387.256 615.868 387.256C616.612 387.256 617.344 387.352 618.064 387.544C618.784 387.736 619.402 388.012 619.918 388.372L619.324 389.812C618.796 389.476 618.232 389.224 617.632 389.056C617.032 388.876 616.444 388.786 615.868 388.786C614.848 388.786 614.08 388.972 613.564 389.344C613.06 389.716 612.808 390.196 612.808 390.784C612.808 391.216 612.952 391.57 613.24 391.846C613.528 392.11 613.882 392.32 614.302 392.476C614.734 392.62 615.316 392.776 616.048 392.944C616.996 393.172 617.758 393.4 618.334 393.628C618.91 393.856 619.402 394.204 619.81 394.672C620.23 395.14 620.44 395.77 620.44 396.562C620.44 397.222 620.26 397.828 619.9 398.38C619.54 398.92 618.994 399.352 618.262 399.676C617.53 399.988 616.63 400.144 615.562 400.144ZM631.44 395.284C631.44 395.416 631.428 395.59 631.404 395.806H623.664C623.772 396.646 624.138 397.324 624.762 397.84C625.398 398.344 626.184 398.596 627.12 398.596C628.26 398.596 629.178 398.212 629.874 397.444L630.828 398.56C630.396 399.064 629.856 399.448 629.208 399.712C628.572 399.976 627.858 400.108 627.066 400.108C626.058 400.108 625.164 399.904 624.384 399.496C623.604 399.076 622.998 398.494 622.566 397.75C622.146 397.006 621.936 396.166 621.936 395.23C621.936 394.306 622.14 393.472 622.548 392.728C622.968 391.984 623.538 391.408 624.258 391C624.99 390.58 625.812 390.37 626.724 390.37C627.636 390.37 628.446 390.58 629.154 391C629.874 391.408 630.432 391.984 630.828 392.728C631.236 393.472 631.44 394.324 631.44 395.284ZM626.724 391.828C625.896 391.828 625.2 392.08 624.636 392.584C624.084 393.088 623.76 393.748 623.664 394.564H629.784C629.688 393.76 629.358 393.106 628.794 392.602C628.242 392.086 627.552 391.828 626.724 391.828ZM638.933 390.37C640.145 390.37 641.105 390.724 641.813 391.432C642.533 392.128 642.893 393.154 642.893 394.51V400H641.165V394.708C641.165 393.784 640.943 393.088 640.499 392.62C640.055 392.152 639.419 391.918 638.591 391.918C637.655 391.918 636.917 392.194 636.377 392.746C635.837 393.286 635.567 394.066 635.567 395.086V400H633.839V390.46H635.495V391.9C635.843 391.408 636.311 391.03 636.899 390.766C637.499 390.502 638.177 390.37 638.933 390.37ZM646.091 390.46H647.819V400H646.091V390.46ZM646.955 388.624C646.619 388.624 646.337 388.516 646.109 388.3C645.893 388.084 645.785 387.82 645.785 387.508C645.785 387.196 645.893 386.932 646.109 386.716C646.337 386.488 646.619 386.374 646.955 386.374C647.291 386.374 647.567 386.482 647.783 386.698C648.011 386.902 648.125 387.16 648.125 387.472C648.125 387.796 648.011 388.072 647.783 388.3C647.567 388.516 647.291 388.624 646.955 388.624ZM655.204 400.108C654.256 400.108 653.404 399.898 652.648 399.478C651.892 399.058 651.298 398.482 650.866 397.75C650.446 397.006 650.236 396.166 650.236 395.23C650.236 394.294 650.446 393.46 650.866 392.728C651.298 391.984 651.892 391.408 652.648 391C653.404 390.58 654.256 390.37 655.204 390.37C656.152 390.37 656.998 390.58 657.742 391C658.498 391.408 659.086 391.984 659.506 392.728C659.938 393.46 660.154 394.294 660.154 395.23C660.154 396.166 659.938 397.006 659.506 397.75C659.086 398.482 658.498 399.058 657.742 399.478C656.998 399.898 656.152 400.108 655.204 400.108ZM655.204 398.596C655.816 398.596 656.362 398.458 656.842 398.182C657.334 397.894 657.718 397.498 657.994 396.994C658.27 396.478 658.408 395.89 658.408 395.23C658.408 394.57 658.27 393.988 657.994 393.484C657.718 392.968 657.334 392.572 656.842 392.296C656.362 392.02 655.816 391.882 655.204 391.882C654.592 391.882 654.04 392.02 653.548 392.296C653.068 392.572 652.684 392.968 652.396 393.484C652.12 393.988 651.982 394.57 651.982 395.23C651.982 395.89 652.12 396.478 652.396 396.994C652.684 397.498 653.068 397.894 653.548 398.182C654.04 398.458 654.592 398.596 655.204 398.596ZM664.2 392.062C664.5 391.51 664.944 391.09 665.532 390.802C666.12 390.514 666.834 390.37 667.674 390.37V392.044C667.578 392.032 667.446 392.026 667.278 392.026C666.342 392.026 665.604 392.308 665.064 392.872C664.536 393.424 664.272 394.216 664.272 395.248V400H662.544V390.46H664.2V392.062ZM613.852 425.492C613.168 424.388 612.64 423.122 612.268 421.694C611.896 420.254 611.71 418.712 611.71 417.068C611.71 415.424 611.896 413.882 612.268 412.442C612.64 410.99 613.168 409.724 613.852 408.644H615.49C614.77 409.904 614.242 411.224 613.906 412.604C613.57 413.984 613.402 415.472 613.402 417.068C613.402 418.664 613.57 420.152 613.906 421.532C614.242 422.912 614.77 424.232 615.49 425.492H613.852ZM621.01 409.4V422H619.228V410.966H616.384V409.4H621.01ZM628.914 422.144C627.918 422.144 627.03 421.892 626.25 421.388C625.482 420.872 624.876 420.128 624.432 419.156C623.988 418.184 623.766 417.032 623.766 415.7C623.766 414.368 623.988 413.216 624.432 412.244C624.876 411.272 625.482 410.534 626.25 410.03C627.03 409.514 627.918 409.256 628.914 409.256C629.898 409.256 630.774 409.514 631.542 410.03C632.322 410.534 632.934 411.272 633.378 412.244C633.822 413.216 634.044 414.368 634.044 415.7C634.044 417.032 633.822 418.184 633.378 419.156C632.934 420.128 632.322 420.872 631.542 421.388C630.774 421.892 629.898 422.144 628.914 422.144ZM628.914 420.542C629.922 420.542 630.726 420.128 631.326 419.3C631.938 418.472 632.244 417.272 632.244 415.7C632.244 414.128 631.938 412.928 631.326 412.1C630.726 411.272 629.922 410.858 628.914 410.858C627.894 410.858 627.078 411.272 626.466 412.1C625.866 412.928 625.566 414.128 625.566 415.7C625.566 417.272 625.866 418.472 626.466 419.3C627.078 420.128 627.894 420.542 628.914 420.542ZM644.301 416.42H641.025V419.642H639.513V416.42H636.237V414.998H639.513V411.758H641.025V414.998H644.301V416.42ZM660.422 412.46L655.796 422.954C655.388 423.926 654.908 424.61 654.356 425.006C653.816 425.402 653.162 425.6 652.394 425.6C651.926 425.6 651.47 425.522 651.026 425.366C650.594 425.222 650.234 425.006 649.946 424.718L650.684 423.422C651.176 423.89 651.746 424.124 652.394 424.124C652.814 424.124 653.162 424.01 653.438 423.782C653.726 423.566 653.984 423.188 654.212 422.648L654.518 421.982L650.306 412.46H652.106L655.436 420.092L658.73 412.46H660.422ZM670.393 417.284C670.393 417.416 670.381 417.59 670.357 417.806H662.617C662.725 418.646 663.091 419.324 663.715 419.84C664.351 420.344 665.137 420.596 666.073 420.596C667.213 420.596 668.131 420.212 668.827 419.444L669.781 420.56C669.349 421.064 668.809 421.448 668.161 421.712C667.525 421.976 666.811 422.108 666.019 422.108C665.011 422.108 664.117 421.904 663.337 421.496C662.557 421.076 661.951 420.494 661.519 419.75C661.099 419.006 660.889 418.166 660.889 417.23C660.889 416.306 661.093 415.472 661.501 414.728C661.921 413.984 662.491 413.408 663.211 413C663.943 412.58 664.765 412.37 665.677 412.37C666.589 412.37 667.399 412.58 668.107 413C668.827 413.408 669.385 413.984 669.781 414.728C670.189 415.472 670.393 416.324 670.393 417.284ZM665.677 413.828C664.849 413.828 664.153 414.08 663.589 414.584C663.037 415.088 662.713 415.748 662.617 416.564H668.737C668.641 415.76 668.311 415.106 667.747 414.602C667.195 414.086 666.505 413.828 665.677 413.828ZM676.003 412.37C677.323 412.37 678.331 412.694 679.027 413.342C679.735 413.99 680.089 414.956 680.089 416.24V422H678.451V420.74C678.163 421.184 677.749 421.526 677.209 421.766C676.681 421.994 676.051 422.108 675.319 422.108C674.251 422.108 673.393 421.85 672.745 421.334C672.109 420.818 671.791 420.14 671.791 419.3C671.791 418.46 672.097 417.788 672.709 417.284C673.321 416.768 674.293 416.51 675.625 416.51H678.361V416.168C678.361 415.424 678.145 414.854 677.713 414.458C677.281 414.062 676.645 413.864 675.805 413.864C675.241 413.864 674.689 413.96 674.149 414.152C673.609 414.332 673.153 414.578 672.781 414.89L672.061 413.594C672.553 413.198 673.141 412.898 673.825 412.694C674.509 412.478 675.235 412.37 676.003 412.37ZM675.607 420.776C676.267 420.776 676.837 420.632 677.317 420.344C677.797 420.044 678.145 419.624 678.361 419.084V417.752H675.697C674.233 417.752 673.501 418.244 673.501 419.228C673.501 419.708 673.687 420.086 674.059 420.362C674.431 420.638 674.947 420.776 675.607 420.776ZM684.942 414.062C685.242 413.51 685.686 413.09 686.274 412.802C686.862 412.514 687.576 412.37 688.416 412.37V414.044C688.32 414.032 688.188 414.026 688.02 414.026C687.084 414.026 686.346 414.308 685.806 414.872C685.278 415.424 685.014 416.216 685.014 417.248V422H683.286V412.46H684.942V414.062ZM693.353 422.108C692.573 422.108 691.823 422.006 691.103 421.802C690.383 421.586 689.819 421.316 689.411 420.992L690.131 419.624C690.551 419.924 691.061 420.164 691.661 420.344C692.261 420.524 692.867 420.614 693.479 420.614C694.991 420.614 695.747 420.182 695.747 419.318C695.747 419.03 695.645 418.802 695.441 418.634C695.237 418.466 694.979 418.346 694.667 418.274C694.367 418.19 693.935 418.1 693.371 418.004C692.603 417.884 691.973 417.746 691.481 417.59C691.001 417.434 690.587 417.17 690.239 416.798C689.891 416.426 689.717 415.904 689.717 415.232C689.717 414.368 690.077 413.678 690.797 413.162C691.517 412.634 692.483 412.37 693.695 412.37C694.331 412.37 694.967 412.448 695.603 412.604C696.239 412.76 696.761 412.97 697.169 413.234L696.431 414.602C695.651 414.098 694.733 413.846 693.677 413.846C692.945 413.846 692.387 413.966 692.003 414.206C691.619 414.446 691.427 414.764 691.427 415.16C691.427 415.472 691.535 415.718 691.751 415.898C691.967 416.078 692.231 416.21 692.543 416.294C692.867 416.378 693.317 416.474 693.893 416.582C694.661 416.714 695.279 416.858 695.747 417.014C696.227 417.158 696.635 417.41 696.971 417.77C697.307 418.13 697.475 418.634 697.475 419.282C697.475 420.146 697.103 420.836 696.359 421.352C695.627 421.856 694.625 422.108 693.353 422.108ZM698.572 425.492C699.292 424.232 699.82 422.912 700.156 421.532C700.504 420.152 700.678 418.664 700.678 417.068C700.678 415.472 700.504 413.984 700.156 412.604C699.82 411.224 699.292 409.904 698.572 408.644H700.21C700.906 409.724 701.44 410.984 701.812 412.424C702.184 413.864 702.37 415.412 702.37 417.068C702.37 418.712 702.184 420.254 701.812 421.694C701.44 423.134 700.906 424.4 700.21 425.492H698.572Z" fill="#606060"/>
<circle cx="90" cy="406" r="21" fill="#D9D9D9"/>
<circle cx="340" cy="406" r="21" fill="#FED271"/>
<circle cx="581" cy="406" r="21" fill="#B976F4"/>
</svg>
