<svg width="156" height="156" viewBox="0 0 156 156" fill="none" xmlns="http://www.w3.org/2000/svg">
<g filter="url(#filter0_d_3_2935)">
<path d="M124.177 118.091C149.646 92.6224 149.646 51.3303 124.177 25.862C98.708 0.393711 57.4148 0.393633 31.9459 25.8619C6.47701 51.3302 6.47701 92.6224 31.9459 118.091C57.4148 143.559 98.7081 143.559 124.177 118.091Z" fill="url(#paint0_linear_3_2935)"/>
</g>
<path d="M116.856 40.4653H35.4057C33.414 40.4653 31.7988 42.0804 31.7988 44.0696V99.8808C31.7988 101.873 33.414 103.488 35.4057 103.488H116.856C118.848 103.488 120.46 101.873 120.46 99.8808V44.0696C120.46 42.0804 118.848 40.4653 116.856 40.4653ZM35.3956 42.869H116.856C117.518 42.869 118.057 43.4074 118.057 44.0696V52.082H34.2026V44.0696C34.2026 43.4049 34.741 42.869 35.4032 42.869H35.3956ZM116.856 101.084H35.4057C34.741 101.084 34.2026 100.546 34.2026 99.8833V54.5262H118.057V99.8808C118.057 100.546 117.518 101.084 116.856 101.084Z" fill="white"/>
<path d="M97.8836 51.8496C100.3 51.8496 102.259 49.8907 102.259 47.4743C102.259 45.058 100.3 43.0991 97.8836 43.0991C95.4672 43.0991 93.5083 45.058 93.5083 47.4743C93.5134 49.8907 95.4697 51.8445 97.8836 51.8496ZM97.8836 45.5054C98.973 45.5054 99.8552 46.3875 99.8552 47.4769C99.8552 48.5662 98.973 49.4484 97.8836 49.4484C96.7942 49.4484 95.9121 48.5662 95.9121 47.4769C95.9298 46.4027 96.8068 45.5382 97.8836 45.5382V45.5054Z" fill="white"/>
<path d="M108.651 51.8496C111.065 51.8496 113.027 49.8907 113.027 47.4743C113.027 45.058 111.068 43.0991 108.651 43.0991C106.235 43.0991 104.276 45.058 104.276 47.4743C104.281 49.8907 106.237 51.8445 108.651 51.8496ZM108.651 45.5054C109.741 45.5054 110.623 46.3875 110.623 47.4769C110.623 48.5662 109.741 49.4484 108.651 49.4484C107.562 49.4484 106.68 48.5662 106.68 47.4769C106.697 46.4027 107.574 45.5382 108.651 45.5382V45.5054Z" fill="white"/>
<path d="M61.3167 66.6232L55.8696 82.6454H58.008L59.6737 77.5827H65.3634L67.0771 82.6302H69.2888L63.8165 66.6055L61.3167 66.6232ZM60.1059 75.9827L61.7084 71.3447C62.0219 70.3665 62.2772 69.3908 62.5097 68.443C62.7498 69.3732 62.9824 70.326 63.311 71.3674L64.9135 75.9827H60.1059Z" fill="white"/>
<path d="M76.0499 66.5117C74.5763 66.5142 73.1078 66.628 71.6519 66.8479V82.6148C72.9005 82.7488 74.1542 82.8145 75.4104 82.8069C78.527 82.8069 81.0192 82.0057 82.5004 80.4993C84.0852 78.821 84.9194 76.5714 84.8081 74.2663C84.932 72.1077 84.1055 70.0023 82.5409 68.506C81.138 67.1689 79.0224 66.5117 76.0499 66.5117ZM75.8098 81.1413C75.1122 81.1564 74.4171 81.116 73.727 81.0199V68.3619C74.5182 68.2077 75.3245 68.1344 76.1308 68.1471C80.5061 68.1471 82.6521 70.5508 82.6293 74.332C82.6369 78.6668 80.2331 81.1413 75.8098 81.1413Z" fill="white"/>
<path d="M92.2973 73.579C90.0856 72.7222 89.0922 71.9765 89.0922 70.4878C89.0922 69.3908 89.8935 68.0841 92.1128 68.0841C93.1794 68.0942 94.2258 68.3697 95.1585 68.8853L95.75 67.1716C94.653 66.608 93.4322 66.3325 92.2012 66.3704C89.0847 66.3704 87.0171 68.2282 87.0171 70.7203C87.0171 72.98 88.6196 74.3347 91.2559 75.2624C93.4195 76.0636 94.2764 76.9533 94.2764 78.4673C94.2764 79.9813 93.0353 81.192 90.9197 81.192C89.6104 81.1794 88.3314 80.8179 87.2092 80.1431L86.6885 81.8821C87.9422 82.5721 89.3526 82.9234 90.7832 82.9082C94.5646 82.9082 96.392 80.7674 96.392 78.2929C96.392 75.8134 95.0145 74.6204 92.2973 73.579Z" fill="white"/>
<defs>
<filter id="filter0_d_3_2935" x="0.844238" y="0.760742" width="154.435" height="154.431" filterUnits="userSpaceOnUse" color-interpolation-filters="sRGB">
<feFlood flood-opacity="0" result="BackgroundImageFix"/>
<feColorMatrix in="SourceAlpha" type="matrix" values="0 0 0 0 0 0 0 0 0 0 0 0 0 0 0 0 0 0 127 0" result="hardAlpha"/>
<feOffset dy="6"/>
<feGaussianBlur stdDeviation="6"/>
<feColorMatrix type="matrix" values="0 0 0 0 0 0 0 0 0 0 0 0 0 0 0 0 0 0 0.25 0"/>
<feBlend mode="normal" in2="BackgroundImageFix" result="effect1_dropShadow_3_2935"/>
<feBlend mode="normal" in="SourceGraphic" in2="effect1_dropShadow_3_2935" result="shape"/>
</filter>
<linearGradient id="paint0_linear_3_2935" x1="166.002" y1="-16.8183" x2="-52.8976" y2="151.431" gradientUnits="userSpaceOnUse">
<stop stop-color="#FF820F"/>
<stop offset="1" stop-color="#FFC85C"/>
</linearGradient>
</defs>
</svg>
