<svg width="75" height="73" viewBox="0 0 75 73" fill="none" xmlns="http://www.w3.org/2000/svg">
<path d="M62.9962 51.1092C60.5136 51.1074 58.1049 51.9535 56.1687 53.5074L48.5957 45.9344C50.6718 43.4797 51.875 40.4057 52.0168 37.1939L66.9074 36.6369C67.2209 37.4425 67.8092 38.1113 68.5683 38.525C69.3274 38.9386 70.2084 39.0705 71.0553 38.8972C71.9023 38.724 72.6606 38.2567 73.1963 37.5782C73.7319 36.8997 74.0103 36.0535 73.9823 35.1895C73.9542 34.3255 73.6214 33.4992 73.0428 32.8569C72.4642 32.2146 71.6771 31.7976 70.8207 31.6797C69.9643 31.5618 69.0938 31.7505 68.3632 32.2126C67.6325 32.6747 67.0889 33.3803 66.8284 34.2046L51.9353 34.7555C51.6833 32.6618 50.9801 30.6476 49.8743 28.852C48.7684 27.0564 47.2861 25.5221 45.5298 24.3549L49.042 17.9676C50.4869 18.4179 52.0475 18.3155 53.4212 17.6803C54.7948 17.045 55.8835 15.9222 56.4761 14.5297C57.0688 13.1371 57.123 11.5741 56.6284 10.1438C56.1338 8.71348 55.1256 7.51786 53.7993 6.78887C52.4731 6.05988 50.9233 5.84948 49.4507 6.19848C47.9781 6.54748 46.6876 7.43101 45.8295 8.67767C44.9715 9.92434 44.607 11.4453 44.8069 12.9454C45.0068 14.4456 45.7568 15.818 46.9113 16.7965L43.3966 23.1874C40.891 22.065 38.1189 21.675 35.4009 22.0624C32.6828 22.4498 30.13 23.5988 28.0378 25.3765L20.4648 17.8023C22.2136 15.6138 23.0581 12.8388 22.8248 10.0472C22.5915 7.25558 21.2981 4.65926 19.2102 2.79151C17.1224 0.923763 14.3986 -0.0736133 11.5983 0.00423728C8.79803 0.0820878 6.13385 1.22926 4.15299 3.21012C2.17213 5.19098 1.02496 7.85516 0.947108 10.6554C0.869258 13.4557 1.86663 16.1795 3.73438 18.2674C5.60213 20.3552 8.19846 21.6486 10.9901 21.882C13.7817 22.1153 16.5567 21.2708 18.7451 19.5219L26.3181 27.0961C24.0844 29.7259 22.8596 33.0649 22.863 36.5153C22.8666 37.3887 22.948 38.2601 23.1063 39.1191L10.0484 42.635C9.45936 41.6204 8.52135 40.8548 7.40936 40.481C6.29737 40.1072 5.08737 40.1507 4.00511 40.6035C2.92286 41.0562 2.04227 41.8872 1.52766 42.9415C1.01306 43.9957 0.899574 45.2011 1.20839 46.3329C1.51721 47.4647 2.22723 48.4454 3.20598 49.0922C4.18474 49.7389 5.36536 50.0075 6.52757 49.8478C7.68978 49.6881 8.75419 49.111 9.5222 48.2242C10.2902 47.3374 10.7094 46.2015 10.7015 45.0284C10.7015 45.0113 10.7015 44.9967 10.7015 44.9797L23.7484 41.4675C24.8795 44.5909 27.041 47.2358 29.8766 48.9663L26.2135 56.2912C24.4553 55.7468 22.5567 55.8829 20.8941 56.6727C19.2316 57.4625 17.9265 58.8483 17.2378 60.5552C16.549 62.262 16.5268 64.1654 17.1757 65.8879C17.8245 67.6104 19.0969 69.0261 20.7406 69.8544C22.3843 70.6827 24.2793 70.8631 26.0497 70.3597C27.8202 69.8564 29.3368 68.7061 30.2989 67.1369C31.261 65.5678 31.5983 63.6944 31.2439 61.8882C30.8895 60.082 29.8693 58.475 28.3856 57.3858L32.0487 50.0608C34.5065 51.0489 37.1875 51.3469 39.8023 50.9228C42.417 50.4986 44.8663 49.3684 46.8858 47.6541L54.4588 55.2271C52.9115 57.1659 52.0687 59.5727 52.0684 62.0533C52.0681 64.5338 52.9103 66.9408 54.4572 68.88C56.004 70.8192 58.1636 72.1754 60.5822 72.7265C63.0007 73.2775 65.5347 72.9908 67.7689 71.9131C70.0031 70.8355 71.805 69.0309 72.8794 66.7951C73.9537 64.5593 74.2367 62.0249 73.6821 59.6071C73.1274 57.1894 71.768 55.0318 69.8265 53.4878C67.8851 51.9439 65.4768 51.1052 62.9962 51.1092ZM17.9984 17.0567H5.83682C5.83682 15.444 6.47748 13.8973 7.61784 12.757C8.75821 11.6166 10.3049 10.976 11.9176 10.976C11.196 10.976 10.4906 10.762 9.89063 10.3611C9.29064 9.96018 8.82301 9.39037 8.54686 8.72369C8.27072 8.05702 8.19846 7.32344 8.33924 6.6157C8.48002 5.90797 8.8275 5.25787 9.33775 4.74762C9.848 4.23737 10.4981 3.88989 11.2058 3.74911C11.9136 3.60834 12.6472 3.68059 13.3138 3.95673C13.9805 4.23288 14.5503 4.70051 14.9512 5.3005C15.3521 5.90049 15.5661 6.60588 15.5661 7.32748C15.5661 8.29512 15.1817 9.22312 14.4975 9.90734C13.8133 10.5916 12.8852 10.976 11.9176 10.976C13.5303 10.976 15.077 11.6166 16.2174 12.757C17.3577 13.8973 17.9984 15.444 17.9984 17.0567ZM37.4569 26.786C38.4191 26.786 39.3596 27.0713 40.1596 27.6058C40.9596 28.1404 41.5831 28.9001 41.9513 29.789C42.3195 30.6779 42.4158 31.656 42.2281 32.5997C42.0404 33.5433 41.5771 34.4101 40.8967 35.0905C40.2164 35.7708 39.3496 36.2341 38.406 36.4218C37.4623 36.6095 36.4842 36.5132 35.5953 36.145C34.7064 35.7768 33.9467 35.1533 33.4121 34.3533C32.8776 33.5533 32.5923 32.6128 32.5923 31.6506C32.5923 30.3605 33.1048 29.1231 34.0171 28.2108C34.9294 27.2985 36.1667 26.786 37.4569 26.786ZM30.16 45.0284C30.16 43.0931 30.9288 41.2371 32.2972 39.8687C33.6656 38.5002 35.5217 37.7314 37.4569 37.7314C39.3922 37.7314 41.2482 38.5002 42.6166 39.8687C43.9851 41.2371 44.7539 43.0931 44.7539 45.0284H30.16ZM56.9155 68.1354C56.9155 66.5227 57.5561 64.976 58.6965 63.8356C59.8368 62.6952 61.3835 62.0546 62.9962 62.0546C62.2746 62.0546 61.5692 61.8406 60.9693 61.4397C60.3693 61.0388 59.9016 60.469 59.6255 59.8023C59.3493 59.1356 59.2771 58.4021 59.4179 57.6943C59.5586 56.9866 59.9061 56.3365 60.4164 55.8263C60.9266 55.316 61.5767 54.9685 62.2845 54.8277C62.9922 54.687 63.7258 54.7592 64.3924 55.0354C65.0591 55.3115 65.6289 55.7791 66.0298 56.3791C66.4307 56.9791 66.6447 57.6845 66.6447 58.4061C66.6447 59.3737 66.2603 60.3017 65.5761 60.986C64.8919 61.6702 63.9639 62.0546 62.9962 62.0546C64.609 62.0546 66.1556 62.6952 67.296 63.8356C68.4364 64.976 69.077 66.5227 69.077 68.1354H56.9155Z" fill="#707070"/>
<circle cx="24" cy="63" r="8" fill="#434141"/>
<circle cx="70.5" cy="35.5" r="4.5" fill="#434141"/>
<circle cx="33.5" cy="15.5" r="2.5" fill="#434141"/>
</svg>
