<svg width="155" height="155" viewBox="0 0 155 155" fill="none" xmlns="http://www.w3.org/2000/svg">
<g filter="url(#filter0_d_3_3038)">
<path d="M123.866 117.523C149.335 92.0551 149.335 50.7629 123.866 25.2946C98.3975 -0.173672 57.1043 -0.17375 31.6354 25.2945C6.16647 50.7628 6.16646 92.0551 31.6354 117.523C57.1043 142.992 98.3976 142.992 123.866 117.523Z" fill="url(#paint0_linear_3_3038)"/>
</g>
<path d="M79.1895 37.6982C72.3907 37.6982 65.7447 39.7143 60.0917 43.4915C54.4388 47.2686 50.0329 52.6373 47.4311 58.9185C44.8293 65.1997 44.1486 72.1114 45.475 78.7795C46.8013 85.4476 50.0752 91.5726 54.8827 96.38C59.6901 101.187 65.8151 104.461 72.4832 105.788C79.1513 107.114 86.063 106.433 92.3442 103.832C98.6254 101.23 103.994 96.8239 107.771 91.171C111.548 85.518 113.564 78.872 113.564 72.0732C113.554 62.9596 109.929 54.2221 103.485 47.7778C97.0406 41.3335 88.3031 37.7085 79.1895 37.6982ZM79.1895 103.698C72.9346 103.698 66.8203 101.843 61.6196 98.3685C56.4189 94.8935 52.3654 89.9543 49.9718 84.1756C47.5782 78.3969 46.9519 72.0382 48.1721 65.9035C49.3924 59.7689 52.4044 54.1338 56.8272 49.711C61.2501 45.2882 66.8851 42.2762 73.0197 41.0559C79.1544 39.8356 85.5131 40.4619 91.2918 42.8556C97.0705 45.2492 102.01 49.3026 105.485 54.5033C108.96 59.704 110.814 65.8184 110.814 72.0732C110.805 80.4578 107.47 88.4963 101.541 94.425C95.6125 100.354 87.574 103.689 79.1895 103.698ZM66.8155 72.0715C66.8156 74.6687 67.6329 77.2001 69.1515 79.307C70.6701 81.414 72.8131 82.9898 75.277 83.8112C77.7409 84.6327 80.4007 84.6581 82.8799 83.884C85.3591 83.1099 87.5318 81.5754 89.0905 79.4979C89.3106 79.2092 89.6359 79.0193 89.9954 78.9695C90.355 78.9197 90.7197 79.0141 91.0099 79.2321C91.3001 79.4502 91.4923 79.7741 91.5447 80.1333C91.597 80.4925 91.5051 80.8579 91.2891 81.1496C89.384 83.6884 86.7284 85.5635 83.6984 86.5093C80.6685 87.4551 77.4178 87.4237 74.4067 86.4195C71.3956 85.4154 68.7767 83.4894 66.9209 80.9143C65.0652 78.3392 64.0666 75.2455 64.0666 72.0714C64.0666 68.8972 65.0652 65.8035 66.9209 63.2284C68.7767 60.6533 71.3956 58.7273 74.4067 57.7232C77.4178 56.719 80.6685 56.6876 83.6984 57.6334C86.7284 58.5792 89.384 60.4543 91.2891 62.9931C91.5083 63.2846 91.6026 63.6513 91.5514 64.0124C91.5001 64.3735 91.3076 64.6995 91.016 64.9186C90.7245 65.1377 90.3578 65.2321 89.9967 65.1808C89.6356 65.1296 89.3096 64.937 89.0905 64.6455C87.5318 62.568 85.3591 61.0335 82.88 60.2594C80.4009 59.4853 77.741 59.5107 75.2772 60.3321C72.8133 61.1535 70.6703 62.7292 69.1517 64.8362C67.633 66.9431 66.8157 69.4743 66.8155 72.0715Z" fill="white"/>
<defs>
<filter id="filter0_d_3_3038" x="0.533691" y="0.193359" width="154.435" height="154.431" filterUnits="userSpaceOnUse" color-interpolation-filters="sRGB">
<feFlood flood-opacity="0" result="BackgroundImageFix"/>
<feColorMatrix in="SourceAlpha" type="matrix" values="0 0 0 0 0 0 0 0 0 0 0 0 0 0 0 0 0 0 127 0" result="hardAlpha"/>
<feOffset dy="6"/>
<feGaussianBlur stdDeviation="6"/>
<feColorMatrix type="matrix" values="0 0 0 0 0 0 0 0 0 0 0 0 0 0 0 0 0 0 0.25 0"/>
<feBlend mode="normal" in2="BackgroundImageFix" result="effect1_dropShadow_3_3038"/>
<feBlend mode="normal" in="SourceGraphic" in2="effect1_dropShadow_3_3038" result="shape"/>
</filter>
<linearGradient id="paint0_linear_3_3038" x1="165.691" y1="-17.3857" x2="-53.2082" y2="150.864" gradientUnits="userSpaceOnUse">
<stop stop-color="#FF820F"/>
<stop offset="1" stop-color="#FFC85C"/>
</linearGradient>
</defs>
</svg>
