<svg width="155" height="155" viewBox="0 0 155 155" fill="none" xmlns="http://www.w3.org/2000/svg">
<g filter="url(#filter0_d_3_2917)">
<path d="M123.398 117.33C148.867 91.8617 148.867 50.5695 123.398 25.1012C97.9296 -0.367067 56.6364 -0.367071 31.1676 25.1012C5.6987 50.5695 5.6987 91.8617 31.1676 117.33C56.6364 142.798 97.9296 142.798 123.398 117.33Z" fill="url(#paint0_linear_3_2917)"/>
</g>
<rect width="88" height="88" transform="translate(33.2832 27.2158)" fill="url(#paint1_linear_3_2917)"/>
<path d="M109.876 66.3801L102.939 61.1335V37.9952C102.939 37.2484 102.333 36.6455 101.589 36.6455H52.9717C52.2249 36.6455 51.622 37.2512 51.622 37.9952V61.1335L44.5165 66.5074C43.3853 67.362 42.7104 68.7144 42.7104 70.125V101.248C42.7104 103.751 44.7461 105.787 47.2492 105.787H107.317C109.82 105.787 111.856 103.751 111.856 101.248V70.125C111.853 68.6232 111.115 67.2265 109.876 66.3801ZM45.4071 76.9896L57.8699 86.4125L45.4071 95.8354V76.9896ZM60.1102 84.7199L59.723 84.4267V44.7492H94.8351V84.4267L94.4478 84.7199L80.096 73.8698C79.2774 73.253 78.3037 72.9267 77.2832 72.9267C77.2804 72.9267 77.2777 72.9267 77.2749 72.9267C76.2516 72.9267 75.278 73.253 74.4593 73.8726L60.1102 84.7199ZM109.151 76.9896V95.8354L96.6882 86.4125L109.151 76.9896ZM108.274 68.554C108.294 68.5706 108.316 68.5844 108.335 68.5983C108.847 68.9412 109.151 69.511 109.151 70.125V73.6015L102.939 78.2978V64.5188L108.274 68.554ZM100.239 39.3449V80.3389L97.5373 82.38V43.3967C97.5373 42.65 96.9315 42.047 96.1875 42.047H58.3733C57.6265 42.047 57.0236 42.6527 57.0236 43.3967V82.3828L54.3214 80.3417V39.3449H100.239ZM46.1429 68.6619L51.622 64.5188V78.2978L45.4099 73.6015V70.125C45.4099 69.5469 45.6754 69.0159 46.1429 68.6619ZM107.314 103.087H47.2464C46.2341 103.087 45.4099 102.263 45.4099 101.251V99.2207L76.0911 76.0216C76.4369 75.7616 76.8462 75.6233 77.2804 75.6233H77.2832C77.7146 75.6233 78.124 75.7616 78.4697 76.0216L109.154 99.2207V101.251C109.151 102.263 108.327 103.087 107.314 103.087Z" fill="white"/>
<path d="M75.9614 66.3691L78.8267 69.2344C80.1433 70.4513 81.9549 68.6397 80.7379 67.3232L77.8919 64.4773C80.4918 62.0794 82.5302 61.0975 86.5904 59.4187C87.0081 59.2472 87.3095 58.8766 87.398 58.4341C87.4865 57.9916 87.3483 57.5352 87.0274 57.2144L78.434 48.6212C78.1159 48.3031 77.6568 48.1621 77.2142 48.2506C76.7717 48.3391 76.4039 48.6406 76.2297 49.0582C74.3461 53.6079 73.3421 55.6213 70.2333 58.7273L68.3222 60.6384C66.7429 62.2177 66.7429 64.787 68.3222 66.3691L69.2764 67.3232C70.7782 68.8914 73.5025 68.8914 75.0071 67.3232L75.9614 66.3691ZM77.9417 51.9484L83.6974 57.7039C80.7739 58.9707 78.5889 60.1572 75.9807 62.5661L73.0794 59.6649C75.4884 57.0595 76.6749 54.8746 77.9417 51.9484ZM73.096 65.4121C72.5981 65.9321 71.6827 65.9321 71.1876 65.4121L70.2333 64.4579C69.7078 63.9324 69.7078 63.075 70.2333 62.5468L71.1876 61.5926L74.0529 64.4579L73.096 65.4121Z" fill="white"/>
<defs>
<filter id="filter0_d_3_2917" x="0.065918" y="0" width="154.434" height="154.431" filterUnits="userSpaceOnUse" color-interpolation-filters="sRGB">
<feFlood flood-opacity="0" result="BackgroundImageFix"/>
<feColorMatrix in="SourceAlpha" type="matrix" values="0 0 0 0 0 0 0 0 0 0 0 0 0 0 0 0 0 0 127 0" result="hardAlpha"/>
<feOffset dy="6"/>
<feGaussianBlur stdDeviation="6"/>
<feComposite in2="hardAlpha" operator="out"/>
<feColorMatrix type="matrix" values="0 0 0 0 0 0 0 0 0 0 0 0 0 0 0 0 0 0 0.25 0"/>
<feBlend mode="normal" in2="BackgroundImageFix" result="effect1_dropShadow_3_2917"/>
<feBlend mode="normal" in="SourceGraphic" in2="effect1_dropShadow_3_2917" result="shape"/>
</filter>
<linearGradient id="paint0_linear_3_2917" x1="165.223" y1="-17.5791" x2="-53.6761" y2="150.67" gradientUnits="userSpaceOnUse">
<stop stop-color="#FF820F"/>
<stop offset="1" stop-color="#FFC85C"/>
</linearGradient>
<linearGradient id="paint1_linear_3_2917" x1="103.331" y1="-15.9084" x2="-44.3567" y2="97.6035" gradientUnits="userSpaceOnUse">
<stop stop-color="#FF820F"/>
<stop offset="1" stop-color="#FFC85C"/>
</linearGradient>
</defs>
</svg>
