<svg width="155" height="155" viewBox="0 0 155 155" fill="none" xmlns="http://www.w3.org/2000/svg">
<g filter="url(#filter0_d_3_2904)">
<path d="M123.898 117.569C149.367 92.1005 149.367 50.8083 123.898 25.34C98.4296 -0.128298 57.1364 -0.128302 31.6676 25.34C6.1987 50.8083 6.1987 92.1005 31.6676 117.569C57.1364 143.037 98.4296 143.037 123.898 117.569Z" fill="url(#paint0_linear_3_2904)"/>
</g>
<path d="M77.7772 36.0413C58.2287 36.0299 42.3746 51.8695 42.3633 71.4175C42.3576 82.3219 47.3807 92.6229 55.9764 99.3344C56.0047 99.3542 56.0274 99.3797 56.0557 99.3967C65.9773 107.137 79.2702 109.012 90.9483 104.321C97.3625 108.785 106.179 107.205 110.644 100.791C114.024 95.9348 114.024 89.4896 110.647 84.6309C117.928 66.4852 109.123 45.8719 90.9767 38.5882C86.778 36.9025 82.2988 36.0384 77.7772 36.0413ZM45.1936 71.4544C45.1879 53.4617 59.77 38.8686 77.7631 38.8601C95.7562 38.8545 110.349 53.4362 110.358 71.4289C110.358 75.1033 109.74 78.7523 108.522 82.22C103.233 77.3868 95.1555 77.2933 89.7584 82.0075C89.2315 81.676 88.6989 81.3531 88.1436 81.0669C93.4727 75.3413 93.1525 66.3776 87.424 61.0458C81.6954 55.714 72.7343 56.0369 67.4024 61.7653C62.3424 67.202 62.3396 75.6218 67.3967 81.0612C61.671 84.0331 57.4751 89.2969 55.8574 95.541C49.0665 89.3762 45.1907 80.6306 45.1936 71.4544ZM66.4447 71.4544C66.4447 65.1962 71.5188 60.1222 77.7772 60.1222C84.0355 60.1222 89.1096 65.1962 89.1096 71.4544C89.1096 77.7126 84.0355 82.7866 77.7772 82.7866C71.5188 82.7809 66.4504 77.7097 66.4447 71.4544ZM58.3137 97.5694C59.5121 91.1639 63.7731 85.7556 69.7198 83.0897C74.556 86.4582 80.9758 86.4639 85.8176 83.101C86.4919 83.4013 87.1491 83.7413 87.7866 84.1153C83.6163 89.5292 83.9364 97.1558 88.5487 102.201C78.3268 105.788 66.9915 104.051 58.3137 97.5694ZM99.0255 104.037C92.7672 104.037 87.6931 98.9633 87.6931 92.7051C87.6931 86.4469 92.7672 81.3729 99.0255 81.3729C105.284 81.3729 110.358 86.4469 110.358 92.7051C110.352 98.9604 105.281 104.029 99.0255 104.037Z" fill="white"/>
<path d="M103.272 88.9685L98.8809 94.7989L95.7787 91.7024C95.2149 91.1584 94.3197 91.1754 93.7758 91.7364C93.246 92.286 93.246 93.1557 93.7758 93.7053L96.8723 96.8047C97.9772 97.9124 99.7734 97.9124 100.878 96.8075C100.972 96.714 101.06 96.6149 101.139 96.5072L105.53 90.674C106.001 90.0479 105.87 89.1611 105.244 88.6908C104.618 88.2234 103.731 88.348 103.264 88.9741L103.272 88.9685Z" fill="white"/>
<defs>
<filter id="filter0_d_3_2904" x="0.565918" y="0.23877" width="154.434" height="154.431" filterUnits="userSpaceOnUse" color-interpolation-filters="sRGB">
<feFlood flood-opacity="0" result="BackgroundImageFix"/>
<feColorMatrix in="SourceAlpha" type="matrix" values="0 0 0 0 0 0 0 0 0 0 0 0 0 0 0 0 0 0 127 0" result="hardAlpha"/>
<feOffset dy="6"/>
<feGaussianBlur stdDeviation="6"/>
<feComposite in2="hardAlpha" operator="out"/>
<feColorMatrix type="matrix" values="0 0 0 0 0 0 0 0 0 0 0 0 0 0 0 0 0 0 0.25 0"/>
<feBlend mode="normal" in2="BackgroundImageFix" result="effect1_dropShadow_3_2904"/>
<feBlend mode="normal" in="SourceGraphic" in2="effect1_dropShadow_3_2904" result="shape"/>
</filter>
<linearGradient id="paint0_linear_3_2904" x1="165.723" y1="-17.3403" x2="-53.1761" y2="150.909" gradientUnits="userSpaceOnUse">
<stop stop-color="#FF820F"/>
<stop offset="1" stop-color="#FFC85C"/>
</linearGradient>
</defs>
</svg>
