<svg width="155" height="155" viewBox="0 0 155 155" fill="none" xmlns="http://www.w3.org/2000/svg">
<g filter="url(#filter0_d_3_2893)">
<path d="M123.398 117.569C148.867 92.1005 148.867 50.8083 123.398 25.34C97.9296 -0.128298 56.6364 -0.128302 31.1676 25.34C5.6987 50.8083 5.6987 92.1005 31.1676 117.569C56.6364 143.037 97.9296 143.037 123.398 117.569Z" fill="url(#paint0_linear_3_2893)"/>
</g>
<path d="M102.261 106.252C97.5671 106.252 93.1948 103.718 90.8506 99.6402L77.2846 76.0338L63.7184 99.6402C61.3743 103.718 57.0019 106.252 52.3081 106.252C47.5866 106.252 43.3444 103.774 40.9587 99.6263C38.5814 95.4869 38.5758 90.554 40.9449 86.4312L65.7439 43.2798C68.1269 39.132 72.4439 36.6572 77.2901 36.6572C82.128 36.6572 86.4394 39.132 88.8223 43.2798L113.621 86.4312C115.99 90.554 115.985 95.4841 113.608 99.6235C111.225 103.774 106.982 106.252 102.261 106.252ZM77.279 39.132C73.5744 39.132 70.0693 41.231 68.1269 44.6077C66.1956 47.9677 66.2122 51.8511 68.1712 55.2612L92.9703 98.4126C94.8766 101.731 98.4289 103.791 102.242 103.791C104.109 103.791 105.957 103.293 107.587 102.349C112.696 99.3841 114.453 92.7977 111.502 87.6644C108.429 82.314 105.724 77.6038 103.342 73.4504C85.4641 42.2999 85.4641 42.2999 82.624 40.6603L82.4799 40.5768C80.8285 39.6164 79.0801 39.132 77.279 39.132ZM52.3386 82.2834C48.5259 82.2834 44.9737 84.3434 43.0674 87.6616C41.416 90.5373 41.1776 93.9586 42.4134 97.0458C43.6492 100.133 46.1818 102.435 49.3655 103.365C50.3325 103.643 51.33 103.785 52.3303 103.785C56.143 103.785 59.6952 101.725 61.5988 98.4098C63.0285 95.9211 63.4082 93.0232 62.6684 90.2533C61.9285 87.4807 60.158 85.1646 57.6808 83.7282C56.0543 82.7817 54.2062 82.2834 52.3386 82.2834ZM52.3553 79.8253C57.908 79.8253 62.8789 83.3635 64.7243 88.6276L65.6691 91.3251L75.8714 73.5729L75.4945 72.916C73.3859 69.2497 71.7207 66.3574 70.399 64.0663C65.3921 55.3781 65.3921 55.3781 64.9903 54.1366L64.0316 51.1858L47.1405 80.5797L49.939 80.0536C50.7343 79.9005 51.549 79.8253 52.3553 79.8253Z" fill="white"/>
<defs>
<filter id="filter0_d_3_2893" x="0.065918" y="0.23877" width="154.434" height="154.431" filterUnits="userSpaceOnUse" color-interpolation-filters="sRGB">
<feFlood flood-opacity="0" result="BackgroundImageFix"/>
<feColorMatrix in="SourceAlpha" type="matrix" values="0 0 0 0 0 0 0 0 0 0 0 0 0 0 0 0 0 0 127 0" result="hardAlpha"/>
<feOffset dy="6"/>
<feGaussianBlur stdDeviation="6"/>
<feComposite in2="hardAlpha" operator="out"/>
<feColorMatrix type="matrix" values="0 0 0 0 0 0 0 0 0 0 0 0 0 0 0 0 0 0 0.25 0"/>
<feBlend mode="normal" in2="BackgroundImageFix" result="effect1_dropShadow_3_2893"/>
<feBlend mode="normal" in="SourceGraphic" in2="effect1_dropShadow_3_2893" result="shape"/>
</filter>
<linearGradient id="paint0_linear_3_2893" x1="165.223" y1="-17.3403" x2="-53.6761" y2="150.909" gradientUnits="userSpaceOnUse">
<stop stop-color="#FF820F"/>
<stop offset="1" stop-color="#FFC85C"/>
</linearGradient>
</defs>
</svg>
