<svg width="74" height="74" viewBox="0 0 74 74" fill="none" xmlns="http://www.w3.org/2000/svg">
<path d="M13.557 16.5633C12.8777 16.7223 13.3113 16.6934 12.7477 16.7656C10.334 17.2859 12.1262 17.7484 13.557 16.5633ZM56.0059 17.5316C56.1793 17.416 56.7863 16.8234 54.893 16.2453C55.0086 16.8379 54.5027 16.7801 54.5027 17.1125C55.9047 18.3844 56.4828 20.5957 58.275 21.0582C58.6219 19.4684 56.6852 18.6879 56.0059 17.5316V17.5316ZM12.2707 16.1008C12.4875 17.3871 13.4559 14.7422 13.4703 13.8027C13.0945 14.0195 12.7188 14.2363 12.3285 14.4098C13.2391 14.8723 12.4441 15.3637 11.4613 16.1008C9.4668 18.5867 13.3258 14.1641 12.2707 16.1008V16.1008ZM37 0C16.5633 0 0 16.5633 0 37C0 57.4223 16.5633 74 37 74C57.4367 74 74 57.4223 74 37C74 16.5633 57.4367 0 37 0ZM37.9828 12.4008L38.1562 12.4586C37.4625 13.3547 41.7695 15.9707 38.6766 16.1875C35.7859 17.0113 39.8906 15.4359 37.6504 15.7105C38.8355 14.0629 36.7109 14.034 37.9828 12.4008V12.4008ZM20.4367 14.7711C19.3961 13.9039 16.1297 15.9563 17.2715 15.4648C20.1043 14.352 17.4594 15.5805 18.1242 16.9102C17.5172 18.1676 17.9219 15.6672 16.4187 17.1559C15.3348 17.4016 12.6754 19.8586 13.0078 19.107C12.9211 20.2777 9.84258 21.6652 9.42344 23.6164C8.41172 26.3191 9.17773 23.5152 8.98984 22.4602C7.54453 20.6246 4.91406 25.5676 5.69453 27.5187C7.00977 25.2062 6.90859 27.273 5.95469 28.2992C6.92305 30.077 5.07305 32.3895 6.90859 33.7047C7.71797 33.8926 9.33672 30.9875 8.62852 34.0082C9.11992 31.3922 9.98711 34.6297 11.3891 33.907C11.4758 35.2801 12.3285 34.6441 12.5164 36.3062C14.8578 36.1328 16.9969 40.093 14.2074 40.8445C14.6266 40.7289 15.4504 41.466 16.4043 40.9023C18.023 42.1887 22.2867 42.3477 22.4023 45.5273C19.4684 46.9293 21.6797 50.7738 19.1359 52.1469C16.2164 51.7133 18.1387 55.7457 16.9102 55.2832C17.4016 58.1883 13.9617 54.9074 15.2914 56.5117C17.734 58.0148 14.2219 57.7113 15.3203 58.8098C14.0918 58.5496 16.0863 61.0934 16.4187 62.0328C18.182 64.8945 14.9012 61.3969 13.9328 60.443C13.0078 58.593 10.8254 55.052 10.2184 52.1469C9.87148 47.9266 6.60508 45.0938 5.85352 40.9746C5.10195 38.6766 7.92031 34.991 6.40273 33.7047C5.0875 32.6785 5.62227 29.1664 4.8418 27.3164C6.79297 18.8613 12.9934 11.7359 20.4367 7.51562C19.6707 8.0793 24.816 6.05586 24.2234 6.54727C24.0645 6.90859 27.2297 5.17422 29.1375 4.91406C28.9352 4.94297 24.1801 6.64844 25.4953 6.41719C23.4574 7.41445 25.293 6.85078 26.3047 6.34492C24.2812 7.83359 22.7203 7.41445 20.4223 8.72969C18.1098 9.33672 18.5867 11.7359 16.9391 12.9355C17.9074 13.109 20.3355 10.4352 21.752 9.4957C25.0039 7.92031 20.1043 12.3574 23.1973 10.4496C22.1566 11.418 22.3734 12.9645 21.7375 13.398C21.4195 13.3113 22.9949 14.1496 20.4367 14.7711ZM25.4953 8.12266C25.1629 8.5707 24.7004 9.53906 24.4258 8.94648C24.05 9.13438 23.9055 9.94375 23.1973 9.29336C23.6164 8.98984 24.05 8.26719 23.2262 8.71523C23.602 8.31055 26.9551 7.16875 26.7672 6.73516C27.3598 6.35937 27.302 6.17148 26.6227 6.40273C26.2758 6.28711 27.4465 5.3043 29.0074 5.17422C29.2242 5.17422 29.3109 5.31875 28.9207 5.27539C26.5648 5.99805 27.5766 5.7957 29.1664 5.27539C28.5594 5.62227 28.1402 5.72344 28.0391 5.88242C29.6289 5.3043 27.9523 6.30156 28.3137 6.2293C27.8656 6.46055 28.3859 6.53281 27.5187 6.86523C27.6777 6.73516 26.1023 7.80469 27.0418 7.48672C26.1313 8.35391 25.7266 8.36836 25.4953 8.12266V8.12266ZM26.8828 10.1895C26.9117 8.80195 28.9063 7.92031 28.6605 7.84805C31.1176 6.6918 27.8078 7.89141 29.7445 6.85078C30.4672 6.77852 31.9992 4.46602 34.1238 4.32148C36.4652 3.61328 35.3812 4.36484 37.1156 3.7L36.7687 3.98906C36.4652 4.03242 36.841 4.56719 35.7426 5.37656C35.627 6.63398 33.6469 6.05586 34.6297 7.4C33.9938 6.48945 33.0398 7.37109 34.2395 7.45781C32.9531 8.44062 29.9613 8.61406 28.5305 10.2473C27.6055 11.577 26.7527 11.1578 26.8828 10.1895V10.1895ZM37.159 14.8145C36.1762 17.1848 35.2223 14.4676 36.9566 14.034C37.3902 14.2652 37.5637 14.3375 37.159 14.8145ZM33.459 10.0738C33.1699 9.0043 33.4012 9.56797 35.1211 9.06211C36.3062 9.91484 34.066 10.4785 33.459 10.0738ZM60.3707 52.4938C59.0121 50.1523 62.0184 47.9844 63.0301 46.0187C62.9 48.3168 62.6109 50.5859 60.3707 52.4938ZM65.4871 25.741C64.0129 25.8566 62.6832 26.2035 61.3535 25.3652C58.2895 22.0121 61.9172 29.152 62.9289 26.2324C66.5711 27.6199 62.8711 33.6035 60.573 32.982C59.2867 30.207 57.6969 27.1574 54.893 25.7988C57.0465 28.1836 58.116 31.1176 60.4285 33.2711C60.5875 36.2773 63.6371 32.1727 63.4492 34.4996C63.7383 38.5031 58.9254 40.9023 59.7637 44.9203C61.5559 48.577 56.3094 49.2418 56.902 52.5227C54.7918 54.8785 52.5371 58.0582 48.7504 57.5523C48.7504 55.5578 47.7387 53.8668 47.5074 51.8145C45.4551 49.2129 49.6754 46.4234 47.0594 43.7062C44.0387 43.027 47.6809 38.8645 44.5734 39.2547C42.709 37.3902 39.9773 39.1969 37.3035 39.2113C33.9504 39.5293 30.4961 35.0922 31.9848 31.9559C30.7996 28.6895 35.7426 27.7355 35.8727 24.8594C38.243 22.8793 41.6105 23.125 44.8191 22.6625C44.5879 24.9605 47.016 24.975 48.8516 25.741C49.8777 23.2551 53.0719 26.1457 55.2543 24.5703C56.0059 20.8992 53.1297 23.1105 51.482 21.9398C49.4875 19.0203 55.7457 20.4367 55.0953 18.9047C52.6672 18.8902 54.0402 15.9129 52.3203 17.575C53.8668 17.8496 52.0457 19.0637 52.0891 17.6762C49.7477 16.9969 52.0023 20.3355 50.8172 20.6535C49.0105 19.902 49.8633 21.5062 50.0512 21.752C49.2707 23.443 48.3168 19.266 46.1055 19.3816C43.9086 17.3727 45.2383 20.2922 47.1461 20.7691C46.7414 20.8848 47.3773 22.5469 46.8715 21.8387C45.2961 19.6707 42.3043 18.2254 40.5266 20.8848C40.3387 23.3707 35.2801 24.0789 36.0895 21.1738C34.9043 18.1676 39.7605 21.0871 39.3125 18.6879C36.1906 16.6211 40.1652 17.2859 41.2203 15.3492C43.6195 15.4215 41.3215 13.3836 42.4488 12.791C42.3332 15.0023 44.2844 14.5832 45.8309 14.1641C45.4551 12.8922 46.7559 12.9355 45.9609 11.8805C49.5453 10.4496 43.2293 12.5453 44.5012 9.40898C42.9547 8.33945 43.8508 11.7648 44.5012 12.1262C44.5445 13.1813 43.6484 14.482 42.4199 12.2707C40.6277 13.4414 40.8156 11.0855 40.7 11.3313C40.4977 10.4207 42.0586 10.3773 42.073 8.7875C41.943 7.77578 41.9719 7.24102 42.6945 7.1832C42.7523 7.32773 45.6574 7.37109 46.6836 8.5707C43.8797 8.00703 46.2645 9.0332 47.5219 9.61133C46.1777 8.55625 48.0566 9.61133 46.9582 8.41172C47.3918 8.49844 45.7586 6.76406 47.4352 8.28164C46.5246 7.19766 49.2129 7.51563 47.623 6.70625C49.95 7.35664 48.577 6.76406 47.2039 6.17148C43.4172 3.9168 53.8957 9.22109 49.6176 6.86523C52.3492 7.45781 43.7785 4.75508 47.6809 5.94023C46.1922 5.28984 47.6375 5.65117 48.9816 6.07031C46.568 5.31875 42.9547 3.9168 43.0992 3.85898C43.9375 3.9168 44.7613 4.10469 45.5563 4.33594C48.0277 5.07305 44.848 4.1625 45.5273 4.17695C54.0258 6.35938 61.4691 12.0539 65.993 19.4973C67.048 20.6102 69.9242 27.9668 68.4211 24.7004C69.1004 27.302 69.2016 30.1059 69.5629 32.7652C68.8113 31.927 67.973 28.834 67.2504 27.1141C66.9469 27.7789 66.6 26.1746 65.4871 25.741Z" fill="#707070"/>
<path d="M70.7757 46L74 48.2189L60.0202 68H56.796L49 57.2833L52.2243 54.3326L58.4081 59.9979L70.7757 46Z" fill="#434141"/>
</svg>
