<svg width="64" height="74" viewBox="0 0 64 74" fill="none" xmlns="http://www.w3.org/2000/svg">
<path d="M42.3731 0H4.88057C3.56026 0.0346399 2.30708 0.584269 1.39334 1.52946C0.479604 2.47465 -0.0208712 3.73903 0.000667483 5.04786V68.9521C-0.0208712 70.261 0.479604 71.5253 1.39334 72.4705C2.30708 73.4157 3.56026 73.9654 4.88057 74H59.1194C60.4397 73.9654 61.6929 73.4157 62.6067 72.4705C63.5204 71.5253 64.0209 70.261 63.9993 68.9521V20.9314L42.3731 0ZM39.9998 23.7857V4.86286L59.4661 23.7857H39.9998Z" fill="#707070"/>
<line x1="13" y1="33" x2="51" y2="33" stroke="white" stroke-width="2" stroke-linecap="round"/>
<line x1="13" y1="40" x2="51" y2="40" stroke="white" stroke-width="2" stroke-linecap="round"/>
<line x1="13" y1="47" x2="51" y2="47" stroke="white" stroke-width="2" stroke-linecap="round"/>
<line x1="13" y1="54" x2="51" y2="54" stroke="white" stroke-width="2" stroke-linecap="round"/>
<line x1="13" y1="61" x2="51" y2="61" stroke="white" stroke-width="2" stroke-linecap="round"/>
<path fill-rule="evenodd" clip-rule="evenodd" d="M49.3425 45.7947C49.9444 45.2817 50.7092 45 51.5 45C52.2908 45 53.0556 45.2817 53.6575 45.7947L55.0666 46.9965C55.2444 47.1481 55.4656 47.2397 55.6985 47.2581L57.5445 47.4056C58.3323 47.4687 59.072 47.8102 59.6309 48.3691C60.1898 48.928 60.5313 49.6677 60.5944 50.4555L60.7419 52.3026C60.7605 52.5351 60.8521 52.7559 61.0035 52.9334L62.2053 54.3425C62.7183 54.9444 63 55.7092 63 56.5C63 57.2908 62.7183 58.0556 62.2053 58.6575L61.0035 60.0666C60.8519 60.2444 60.7603 60.4656 60.7419 60.6985L60.5944 62.5445C60.5313 63.3323 60.1898 64.072 59.6309 64.6309C59.072 65.1898 58.3323 65.5313 57.5445 65.5944L55.6974 65.7419C55.4649 65.7605 55.2441 65.8521 55.0666 66.0035L53.6575 67.2053C53.0556 67.7183 52.2908 68 51.5 68C50.7092 68 49.9444 67.7183 49.3425 67.2053L47.9334 66.0035C47.7556 65.8519 47.5344 65.7603 47.3015 65.7419L45.4555 65.5944C44.6677 65.5313 43.928 65.1898 43.3691 64.6309C42.8102 64.072 42.4687 63.3323 42.4056 62.5445L42.2581 60.6974C42.2395 60.4649 42.1479 60.2441 41.9965 60.0666L40.7947 58.6575C40.2817 58.0556 40 57.2908 40 56.5C40 55.7092 40.2817 54.9444 40.7947 54.3425L41.9965 52.9334C42.1481 52.7556 42.2397 52.5344 42.2581 52.3015L42.4056 50.4555C42.4687 49.6677 42.8102 48.928 43.3691 48.3691C43.928 47.8102 44.6677 47.4687 45.4555 47.4056L47.3026 47.2581C47.5351 47.2395 47.7559 47.1479 47.9334 46.9965L49.3425 45.7947ZM55.6098 55.0665C55.8118 54.8574 55.9235 54.5773 55.921 54.2866C55.9185 53.996 55.8019 53.7179 55.5963 53.5123C55.3908 53.3068 55.1127 53.1902 54.822 53.1877C54.5313 53.1851 54.2513 53.2969 54.0422 53.4988L50.3913 57.1497L48.9578 55.7162C48.7487 55.5142 48.4687 55.4025 48.178 55.405C47.8873 55.4075 47.6092 55.5241 47.4037 55.7297C47.1981 55.9352 47.0815 56.2133 47.079 56.504C47.0765 56.7947 47.1882 57.0747 47.3902 57.2838L49.6075 59.5012C49.8154 59.709 50.0974 59.8258 50.3913 59.8258C50.6853 59.8258 50.9673 59.709 51.1752 59.5012L55.6098 55.0665Z" fill="#434141"/>
</svg>
