<svg width="105" height="105" viewBox="0 0 105 105" fill="none" xmlns="http://www.w3.org/2000/svg">
<path d="M57.7208 62.0494C57.7212 62.7461 57.5843 63.436 57.3179 64.0798C57.0516 64.7236 56.6611 65.3087 56.1686 65.8015C55.6762 66.2943 55.0914 66.6853 54.4478 66.9521C53.8042 67.2189 53.1143 67.3562 52.4176 67.3564V82.7929H41.8093V79.685C41.8116 78.6878 41.5311 77.7104 41.0003 76.8663C40.4694 76.0221 39.71 75.3459 38.8103 74.916C33.3594 72.3371 28.753 68.2631 25.5272 63.1682C22.3013 58.0734 20.5888 52.1671 20.5889 46.1369V46.0996H31.1972V46.135C31.1838 46.84 31.3111 47.5406 31.5716 48.1959C31.8322 48.8511 32.2207 49.4479 32.7146 49.9512C33.2084 50.4545 33.7977 50.8543 34.4479 51.1273C35.0981 51.4002 35.7962 51.5408 36.5014 51.5408C37.2065 51.5408 37.9046 51.4002 38.5547 51.1273C39.2049 50.8543 39.7942 50.4545 40.2881 49.9512C40.7819 49.4479 41.1705 48.8511 41.431 48.1959C41.6916 47.5406 41.8189 46.84 41.8055 46.135V46.0996H52.4138V56.7452C53.8203 56.7452 55.1692 57.3039 56.1637 58.2985C57.1583 59.293 57.717 60.6419 57.717 62.0484L57.7208 62.0494Z" fill="#FFFFF9"/>
<path d="M84.2486 46.1009V46.1363C84.2497 52.1647 82.5389 58.0694 79.3151 63.1634C76.0914 68.2573 71.4873 72.3311 66.0387 74.9106C65.136 75.3404 64.3739 76.0177 63.841 76.8636C63.3081 77.7095 63.0262 78.6893 63.0282 79.6891V84.3014H52.4199V67.3567C53.8092 67.3303 55.1327 66.7599 56.1059 65.768C57.0791 64.7762 57.6243 63.4421 57.6243 62.0526C57.6243 60.663 57.0791 59.3289 56.1059 58.3371C55.1327 57.3452 53.8092 56.7748 52.4199 56.7484V46.1009H63.0282C63.0546 44.7116 63.625 43.3881 64.6169 42.4149C65.6087 41.4417 66.9428 40.8965 68.3323 40.8965C69.7219 40.8965 71.056 41.4417 72.0479 42.4149C73.0397 43.3881 73.6101 44.7116 73.6365 46.1009H84.2486Z" fill="#FFFFF9"/>
<path d="M84.2481 46.101H73.6398C73.6134 44.7116 73.043 43.3881 72.0511 42.4149C71.0593 41.4417 69.7252 40.8966 68.3356 40.8966C66.9461 40.8966 65.6119 41.4417 64.6201 42.4149C63.6282 43.3881 63.0578 44.7116 63.0314 46.101H52.4231V35.5213C51.0338 35.4949 49.7103 34.9245 48.7371 33.9327C47.7639 32.9408 47.2188 31.6067 47.2188 30.2172C47.2188 28.8276 47.7639 27.4935 48.7371 26.5017C49.7103 25.5098 51.0338 24.9394 52.4231 24.913V14.3047C60.8591 14.3044 68.9502 17.6531 74.9186 23.6149C80.8871 29.5767 84.2447 37.6641 84.2538 46.1L84.2481 46.101Z" fill="#FA9600"/>
<path d="M47.1146 30.2187C47.1149 30.9154 47.2524 31.6052 47.5193 32.2488C47.7862 32.8923 48.1773 33.477 48.6702 33.9694C49.1631 34.4618 49.7482 34.8522 50.3921 35.1184C51.0359 35.3846 51.7259 35.5214 52.4226 35.5209V46.1005H41.8143V46.1359C41.8277 46.8409 41.7004 47.5415 41.4399 48.1968C41.1793 48.852 40.7907 49.4488 40.2969 49.9521C39.803 50.4554 39.2137 50.8552 38.5635 51.1282C37.9133 51.4011 37.2153 51.5417 36.5101 51.5417C35.805 51.5417 35.107 51.4011 34.4568 51.1282C33.8066 50.8552 33.2173 50.4554 32.7234 49.9521C32.2296 49.4488 31.841 48.852 31.5804 48.1968C31.3199 47.5415 31.1926 46.8409 31.206 46.1359V46.1005H20.5977C20.5943 41.9216 21.4154 37.783 23.0139 33.9219C24.6124 30.0608 26.9569 26.553 29.9131 23.5994C32.8694 20.6458 36.3794 18.3044 40.2419 16.7094C44.1045 15.1144 48.2437 14.2971 52.4226 14.3042V24.9126C51.7261 24.9123 51.0364 25.0494 50.3929 25.3158C49.7493 25.5822 49.1646 25.9728 48.6721 26.4653C48.1797 26.9578 47.789 27.5425 47.5226 28.186C47.2561 28.8296 47.1192 29.5193 47.1194 30.2158L47.1146 30.2187Z" fill="#FFFFF9"/>
<path d="M80.8433 28.6564C80.7394 28.4802 80.6015 28.3266 80.4376 28.2043C80.2736 28.0821 80.087 27.9938 79.8885 27.9446C79.69 27.8954 79.4837 27.8862 79.2816 27.9177C79.0795 27.9492 78.8858 28.0207 78.7117 28.128C78.5376 28.2353 78.3866 28.3763 78.2677 28.5426C78.1487 28.7089 78.0642 28.8973 78.0189 29.0967C77.9736 29.2962 77.9686 29.5026 78.0041 29.704C78.0396 29.9054 78.1149 30.0977 78.2256 30.2697C80.8829 34.587 82.4102 39.5039 82.6668 44.567H74.9934C74.6393 43.0667 73.7889 41.73 72.5802 40.7733C71.3714 39.8167 69.8751 39.2961 68.3336 39.2961C66.7921 39.2961 65.2958 39.8167 64.087 40.7733C62.8783 41.73 62.0279 43.0667 61.6738 44.567H53.9555V35.5279C53.9555 35.3261 53.9158 35.1264 53.8385 34.94C53.7613 34.7536 53.6481 34.5842 53.5054 34.4416C53.3627 34.299 53.1932 34.1859 53.0068 34.1088C52.8203 34.0316 52.6205 33.992 52.4187 33.9921C51.4298 33.9763 50.4867 33.5725 49.793 32.8676C49.0992 32.1627 48.7104 31.2133 48.7104 30.2242C48.7104 29.2352 49.0992 28.2858 49.793 27.5809C50.4867 26.876 51.4298 26.4721 52.4187 26.4564C52.8263 26.4564 53.2172 26.2945 53.5054 26.0063C53.7936 25.7181 53.9555 25.3272 53.9555 24.9196V15.8834C61.6805 16.2473 68.9669 19.5788 74.2958 25.1834C74.4351 25.3305 74.6021 25.4485 74.7872 25.5308C74.9723 25.6131 75.1718 25.658 75.3743 25.6629C75.5768 25.6678 75.7782 25.6326 75.9671 25.5594C76.1559 25.4862 76.3285 25.3763 76.4748 25.2362C76.621 25.096 76.7381 24.9284 76.8193 24.7428C76.9005 24.5573 76.9443 24.3575 76.948 24.155C76.9517 23.9524 76.9154 23.7511 76.8411 23.5627C76.7667 23.3743 76.6559 23.2024 76.5149 23.057C73.4126 19.7952 69.6774 17.2007 65.5378 15.4324C61.3982 13.664 56.9413 12.7589 52.4398 12.7726H52.3987C44.3144 12.7692 36.5037 15.7003 30.4175 21.0213C30.1199 21.2924 29.9406 21.6694 29.9179 22.0712C29.8952 22.4731 30.0309 22.8678 30.296 23.1707C30.5611 23.4736 30.9344 23.6605 31.3358 23.6912C31.7371 23.7219 32.1345 23.5941 32.4426 23.335C37.5766 18.8456 44.0759 16.2209 50.8877 15.8863V23.5578C49.3801 23.9058 48.0349 24.7545 47.0717 25.9654C46.1085 27.1764 45.5841 28.6779 45.5841 30.2252C45.5841 31.7725 46.1085 33.2741 47.0717 34.485C48.0349 35.6959 49.3801 36.5446 50.8877 36.8927V44.5679H41.8162C41.6143 44.5679 41.4144 44.6077 41.2279 44.685C41.0414 44.7623 40.8719 44.8756 40.7292 45.0184C40.5865 45.1612 40.4733 45.3307 40.3961 45.5172C40.319 45.7038 40.2793 45.9037 40.2794 46.1056V46.142C40.2794 47.1414 39.8824 48.0999 39.1757 48.8066C38.469 49.5133 37.5105 49.9103 36.5111 49.9103C35.5117 49.9103 34.5531 49.5133 33.8464 48.8066C33.1397 48.0999 32.7427 47.1414 32.7427 46.142V46.1056C32.7427 45.9037 32.703 45.7037 32.6257 45.5172C32.5484 45.3306 32.4351 45.1611 32.2923 45.0183C32.1495 44.8755 31.98 44.7622 31.7935 44.685C31.6069 44.6077 31.4069 44.5679 31.205 44.5679H22.1631C22.4485 38.5835 24.5182 32.8213 28.1057 28.0228C28.2264 27.861 28.3141 27.677 28.3637 27.4814C28.4134 27.2857 28.424 27.0822 28.3949 26.8824C28.3659 26.6827 28.2978 26.4906 28.1946 26.3171C28.0913 26.1437 27.9549 25.9922 27.7931 25.8715C27.6314 25.7507 27.4474 25.6631 27.2517 25.6134C27.056 25.5638 26.8525 25.5532 26.6528 25.5822C26.453 25.6112 26.2609 25.6793 26.0875 25.7826C25.914 25.8858 25.7626 26.0222 25.6419 26.184C21.3438 31.9349 19.0296 38.9261 19.0475 46.1056C18.7407 58.784 26.8307 70.9482 38.1491 76.3059C38.7848 76.6129 39.3209 77.0931 39.6957 77.6913C40.0706 78.2894 40.2689 78.9812 40.2679 79.6871V82.7492C37.1141 82.7492 34.9619 84.4389 34.9619 87.4685C34.9619 90.4981 37.0434 92.1916 40.2679 92.1887V99.1844C40.3171 100.696 40.9397 102.132 42.0093 103.202C43.0789 104.271 44.5153 104.894 46.027 104.943H58.8029C60.3146 104.894 61.7512 104.272 62.8208 103.202C63.8904 102.133 64.513 100.696 64.5619 99.1844V92.1887C68.1621 92.1887 69.8699 90.2773 69.868 87.4685C69.868 84.5393 68.0254 82.7492 64.5619 82.7492V79.691C64.5624 78.9829 64.7627 78.2894 65.1399 77.6902C65.5171 77.091 66.0558 76.6105 66.6941 76.304C72.3701 73.5439 77.1637 69.2552 80.536 63.9201C83.9082 58.585 85.7254 52.415 85.7833 46.1038C85.7827 39.9429 84.0726 33.903 80.8433 28.6564ZM39.4671 73.5305C34.5214 71.1703 30.304 67.5196 27.2596 62.963C24.2152 58.4065 22.4564 53.113 22.1688 47.6405H29.8269C30.1679 49.1568 31.0148 50.5119 32.2283 51.4828C33.4419 52.4537 34.9498 52.9827 36.5039 52.9827C38.0581 52.9827 39.5659 52.4537 40.7794 51.4828C41.993 50.5119 42.8399 49.1568 43.1809 47.6405H50.882V56.7484C50.8819 56.9504 50.9215 57.1503 50.9988 57.3369C51.076 57.5236 51.1892 57.6932 51.3321 57.836C51.4749 57.9788 51.6445 58.092 51.8311 58.1693C52.0177 58.2465 52.2177 58.2862 52.4197 58.2861C53.4189 58.2861 54.3771 58.683 55.0837 59.3895C55.7902 60.096 56.1871 61.0543 56.1871 62.0535C56.1871 63.0526 55.7902 64.0109 55.0837 64.7174C54.3771 65.4239 53.4189 65.8209 52.4197 65.8209C52.2177 65.8207 52.0177 65.8604 51.8311 65.9376C51.6445 66.0149 51.4749 66.1281 51.3321 66.2709C51.1892 66.4138 51.076 66.5833 50.9988 66.77C50.9215 66.9566 50.8819 67.1566 50.882 67.3586V82.7492H43.3462V79.691C43.3454 78.4035 42.981 77.1425 42.2951 76.053C41.6091 74.9634 40.6295 74.0898 39.469 73.5325L39.4671 73.5305ZM58.8057 101.873H46.0289C44.0755 101.873 43.2478 100.133 43.3443 98.5938H61.4903C61.4903 100.234 60.9742 101.873 58.8057 101.873ZM65.1487 89.119H55.6471C55.4452 89.1189 55.2451 89.1585 55.0585 89.2358C54.8719 89.313 54.7023 89.4263 54.5595 89.5691C54.4167 89.7119 54.3034 89.8815 54.2262 90.0681C54.1489 90.2547 54.1093 90.4547 54.1094 90.6567V90.6768C54.1093 90.8788 54.1489 91.0788 54.2262 91.2654C54.3034 91.452 54.4167 91.6216 54.5595 91.7644C54.7023 91.9072 54.8719 92.0205 55.0585 92.0977C55.2451 92.175 55.4452 92.2146 55.6471 92.2145H61.4893V95.5203H43.3443V92.2107H48.9496C49.3574 92.2107 49.7485 92.0487 50.0369 91.7603C50.3253 91.4719 50.4872 91.0808 50.4872 90.673C50.4872 90.673 50.4872 90.6663 50.4872 90.6634C50.4872 90.6606 50.4872 90.6557 50.4872 90.6529C50.4872 90.245 50.3253 89.8539 50.0369 89.5656C49.7485 89.2772 49.3574 89.1152 48.9496 89.1152H39.6859C39.4535 89.1427 39.2179 89.1206 38.9946 89.0504C38.7713 88.9803 38.5654 88.8636 38.3905 88.7082C38.2155 88.5527 38.0755 88.3619 37.9796 88.1484C37.8837 87.9349 37.8341 87.7035 37.8341 87.4694C37.8341 87.2354 37.8837 87.004 37.9796 86.7905C38.0755 86.577 38.2155 86.3862 38.3905 86.2308C38.5654 86.0753 38.7713 85.9586 38.9946 85.8885C39.2179 85.8183 39.4535 85.7962 39.6859 85.8237H65.1487C65.3695 85.8162 65.5896 85.8532 65.7959 85.9325C66.0021 86.0118 66.1903 86.1318 66.3492 86.2854C66.508 86.439 66.6344 86.623 66.7207 86.8264C66.807 87.0298 66.8515 87.2485 66.8515 87.4694C66.8515 87.6904 66.807 87.9091 66.7207 88.1125C66.6344 88.3159 66.508 88.4999 66.3492 88.6535C66.1903 88.8071 66.0021 88.9271 65.7959 89.0064C65.5896 89.0857 65.3695 89.1227 65.1487 89.1152V89.119ZM65.379 73.5257C64.2162 74.0828 63.2342 74.9569 62.5462 76.0474C61.8583 77.138 61.4922 78.4006 61.4903 79.69V82.7492H53.9546V68.7185C55.4629 68.3713 56.8089 67.5229 57.7727 66.3119C58.7366 65.1009 59.2614 63.5988 59.2614 62.0511C59.2614 60.5033 58.7366 59.0013 57.7727 57.7903C56.8089 56.5793 55.4629 55.7308 53.9546 55.3836V47.6424H63.0261C63.4325 47.6427 63.8225 47.4819 64.1107 47.1954C64.3989 46.9088 64.5618 46.5197 64.5638 46.1133C64.5638 45.1139 64.9609 44.1554 65.6676 43.4487C66.3743 42.742 67.3327 42.3449 68.3321 42.3449C69.3316 42.3449 70.2901 42.742 70.9968 43.4487C71.7035 44.1554 72.1005 45.1139 72.1005 46.1133C72.1028 46.5197 72.2658 46.9086 72.5539 47.1951C72.8421 47.4816 73.2319 47.6424 73.6382 47.6424H82.6687C82.3808 53.1129 80.623 58.4044 77.5804 62.9598C74.5378 67.5151 70.323 71.1656 65.38 73.5267L65.379 73.5257Z" fill="black"/>
<path d="M52.4196 9.44095C52.2177 9.44095 52.0178 9.40117 51.8313 9.32388C51.6448 9.24659 51.4753 9.13332 51.3326 8.99052C51.1899 8.84771 51.0767 8.67817 50.9995 8.49161C50.9224 8.30505 50.8827 8.10511 50.8828 7.90322V1.53727C50.8828 1.12956 51.0448 0.738551 51.3331 0.450261C51.6214 0.161971 52.0124 0 52.4201 0C52.8278 0 53.2188 0.161971 53.5071 0.450261C53.7954 0.738551 53.9573 1.12956 53.9573 1.53727V7.90322C53.9575 8.10519 53.9177 8.30522 53.8405 8.49184C53.7633 8.67846 53.65 8.84799 53.5072 8.99081C53.3644 9.13363 53.1948 9.24694 53.0082 9.32417C52.8216 9.40141 52.6216 9.44108 52.4196 9.44095Z" fill="black"/>
<path d="M73.9251 15.2038C73.7497 15.1031 73.5959 14.9688 73.4726 14.8084C73.3493 14.6481 73.2588 14.465 73.2065 14.2696C73.1542 14.0742 73.141 13.8704 73.1677 13.6699C73.1945 13.4694 73.2606 13.2762 73.3622 13.1013L76.5457 7.58782C76.7496 7.23473 77.0854 6.97716 77.4793 6.87168C77.8731 6.7662 78.2927 6.82147 78.6458 7.02538C78.9989 7.2293 79.2565 7.56512 79.362 7.95898C79.4675 8.35284 79.4122 8.77247 79.2083 9.12555L76.0248 14.639C75.8013 14.9708 75.4654 15.2106 75.0789 15.3141C74.6925 15.4175 74.2816 15.3777 73.9223 15.2019L73.9251 15.2038Z" fill="black"/>
<path d="M89.6711 30.9492C89.5697 30.7743 89.5038 30.581 89.4772 30.3806C89.4506 30.1801 89.4639 29.9764 89.5162 29.7811C89.5685 29.5858 89.6587 29.4027 89.7819 29.2424C89.9051 29.082 90.0588 28.9475 90.234 28.8466L95.7465 25.6642C95.9213 25.5632 96.1142 25.4976 96.3143 25.4712C96.5144 25.4448 96.7177 25.4581 96.9127 25.5102C97.1077 25.5624 97.2905 25.6525 97.4507 25.7754C97.6108 25.8982 97.7452 26.0513 97.8461 26.2261C97.9471 26.4009 98.0127 26.5938 98.0391 26.7939C98.0655 26.994 98.0522 27.1973 98 27.3923C97.9478 27.5873 97.8578 27.7701 97.735 27.9302C97.6121 28.0904 97.459 28.2248 97.2842 28.3258L91.7717 31.5092C91.4149 31.6977 90.9999 31.7445 90.6101 31.6401C90.2202 31.5357 89.8841 31.2879 89.6692 30.9463L89.6711 30.9492Z" fill="black"/>
<path d="M6.98966 78.6847C6.79119 78.3299 6.73899 77.9118 6.84412 77.5191C6.94925 77.1264 7.20345 76.7903 7.55262 76.5822L13.0651 73.3987C13.4182 73.1949 13.8377 73.1398 14.2315 73.2453C14.6253 73.3509 14.961 73.6085 15.1648 73.9616C15.3685 74.3147 15.4237 74.7343 15.3182 75.128C15.2126 75.5218 14.9549 75.8575 14.6019 76.0613L9.08936 79.2447C8.91823 79.3598 8.72445 79.4369 8.52103 79.4708C8.31762 79.5047 8.10933 79.4947 7.91013 79.4413C7.71093 79.388 7.52545 79.2926 7.36619 79.1616C7.20693 79.0306 7.07754 78.867 6.9868 78.6818L6.98966 78.6847Z" fill="black"/>
<path d="M28.8114 14.643L25.6279 9.12946C25.424 8.77638 25.3687 8.35674 25.4742 7.96289C25.5797 7.56903 25.8373 7.23321 26.1904 7.02929C26.5434 6.82537 26.9631 6.77011 27.3569 6.87559C27.7508 6.98106 28.0866 7.23864 28.2905 7.59172L31.474 13.1052C31.6724 13.46 31.7247 13.8781 31.6196 14.2708C31.5144 14.6635 31.2602 14.9996 30.9111 15.2078C30.5541 15.3958 30.1393 15.4423 29.7496 15.338C29.3598 15.2336 29.0238 14.9861 28.8085 14.6448L28.8114 14.643Z" fill="black"/>
<path d="M13.0652 31.5111L7.5527 28.3286C7.19962 28.1247 6.94199 27.7889 6.83651 27.395C6.73103 27.0012 6.78636 26.5815 6.99027 26.2284C7.19419 25.8754 7.53001 25.6178 7.92387 25.5123C8.31772 25.4068 8.73736 25.4621 9.09044 25.666L14.6029 28.8485C14.7859 28.9416 14.9472 29.0721 15.0765 29.2316C15.2057 29.3911 15.2999 29.576 15.353 29.7743C15.4061 29.9726 15.4169 30.1799 15.3846 30.3826C15.3524 30.5854 15.2778 30.779 15.1658 30.9511C14.9569 31.2993 14.6207 31.5527 14.2284 31.6577C13.8361 31.7627 13.4183 31.7112 13.0633 31.514L13.0652 31.5111Z" fill="black"/>
<path d="M95.7459 79.2465L90.2334 76.063C90.0585 75.962 89.9053 75.8276 89.7824 75.6674C89.6595 75.5072 89.5694 75.3244 89.5172 75.1294C89.4649 74.9343 89.4516 74.731 89.478 74.5308C89.5044 74.3307 89.57 74.1377 89.6709 73.9629C89.7719 73.788 89.9063 73.6348 90.0665 73.5119C90.2267 73.389 90.4095 73.2989 90.6045 73.2467C90.7995 73.1944 91.0029 73.1811 91.2031 73.2075C91.4032 73.2339 91.5963 73.2995 91.7711 73.4004L97.2836 76.5839C97.4612 76.6824 97.6172 76.8156 97.7422 76.9757C97.8672 77.1358 97.9588 77.3194 98.0113 77.5156C98.0638 77.7119 98.0763 77.9167 98.048 78.1178C98.0197 78.3189 97.9512 78.5123 97.8465 78.6864C97.7595 78.875 97.632 79.0423 97.4732 79.1761C97.3143 79.31 97.1279 79.4072 96.9272 79.4609C96.7265 79.5146 96.5165 79.5235 96.312 79.487C96.1075 79.4504 95.9136 79.3693 95.7439 79.2493L95.7459 79.2465Z" fill="black"/>
<path d="M7.86536 53.9929H1.49941C1.09834 53.9829 0.717089 53.8166 0.436961 53.5294C0.156834 53.2422 0 52.8569 0 52.4557C0 52.0545 0.156834 51.6692 0.436961 51.382C0.717089 51.0948 1.09834 50.9285 1.49941 50.9185H7.86536C8.26643 50.9285 8.64768 51.0948 8.92781 51.382C9.20794 51.6692 9.36471 52.0545 9.36471 52.4557C9.36471 52.8569 9.20794 53.2422 8.92781 53.5294C8.64768 53.8166 8.26643 53.9829 7.86536 53.9929Z" fill="black"/>
<path d="M103.335 53.9929H96.9691C96.5681 53.9829 96.1868 53.8166 95.9067 53.5294C95.6266 53.2422 95.4697 52.8569 95.4697 52.4557C95.4697 52.0545 95.6266 51.6692 95.9067 51.382C96.1868 51.0948 96.5681 50.9285 96.9691 50.9185H103.335C103.736 50.9285 104.117 51.0948 104.398 51.382C104.678 51.6692 104.834 52.0545 104.834 52.4557C104.834 52.8569 104.678 53.2422 104.398 53.5294C104.117 53.8166 103.736 53.9829 103.335 53.9929Z" fill="black"/>
</svg>
