<svg width="155" height="155" viewBox="0 0 155 155" fill="none" xmlns="http://www.w3.org/2000/svg">
<g filter="url(#filter0_d_3_2951)">
<path d="M123.898 117.834C149.367 92.3661 149.367 51.0739 123.898 25.6056C98.4296 0.137327 57.1364 0.137323 31.6676 25.6056C6.1987 51.0739 6.1987 92.3661 31.6676 117.834C57.1364 143.303 98.4296 143.303 123.898 117.834Z" fill="url(#paint0_linear_3_2951)"/>
</g>
<rect width="88" height="88" transform="translate(33.7832 27.7202)" fill="url(#paint1_linear_3_2951)"/>
<path d="M104.294 44.9093C93.9604 34.5479 77.1871 34.5251 66.8283 44.8581C56.8309 54.8268 56.4096 70.8826 65.8663 81.3636L63.8429 83.3869C62.2094 81.7534 59.5572 81.7506 57.9237 83.3869L44.11 97.2003C42.4765 98.8337 42.4736 101.486 44.11 103.119L46.0821 105.092C47.7156 106.725 50.3651 106.725 52.0015 105.092L65.8151 91.2782C67.4486 89.6448 67.4515 86.9925 65.8151 85.359L67.8385 83.3357C78.6953 93.145 95.4458 92.297 105.258 81.4433C114.732 70.9595 114.308 54.8837 104.294 44.9093ZM63.8429 89.3061L50.0293 103.119C49.4857 103.663 48.6006 103.663 48.057 103.119L46.085 101.144C45.5414 100.601 45.5414 99.7188 46.085 99.1724L59.8986 85.359C60.4507 84.8326 61.3186 84.8326 61.8707 85.359L63.8429 87.334C64.3865 87.8804 64.3865 88.7626 63.8429 89.3061ZM102.324 80.4302C93.0611 89.6931 78.0407 89.6931 68.7776 80.4302C59.5144 71.1672 59.5144 56.1473 68.7776 46.8843C78.0407 37.6213 93.0583 37.6213 102.324 46.8843C111.57 56.1529 111.57 71.1587 102.324 80.4302Z" fill="white"/>
<defs>
<filter id="filter0_d_3_2951" x="0.565918" y="0.504395" width="154.434" height="154.431" filterUnits="userSpaceOnUse" color-interpolation-filters="sRGB">
<feFlood flood-opacity="0" result="BackgroundImageFix"/>
<feColorMatrix in="SourceAlpha" type="matrix" values="0 0 0 0 0 0 0 0 0 0 0 0 0 0 0 0 0 0 127 0" result="hardAlpha"/>
<feOffset dy="6"/>
<feGaussianBlur stdDeviation="6"/>
<feComposite in2="hardAlpha" operator="out"/>
<feColorMatrix type="matrix" values="0 0 0 0 0 0 0 0 0 0 0 0 0 0 0 0 0 0 0.25 0"/>
<feBlend mode="normal" in2="BackgroundImageFix" result="effect1_dropShadow_3_2951"/>
<feBlend mode="normal" in="SourceGraphic" in2="effect1_dropShadow_3_2951" result="shape"/>
</filter>
<linearGradient id="paint0_linear_3_2951" x1="165.723" y1="-17.0747" x2="-53.1761" y2="151.174" gradientUnits="userSpaceOnUse">
<stop stop-color="#FF820F"/>
<stop offset="1" stop-color="#FFC85C"/>
</linearGradient>
<linearGradient id="paint1_linear_3_2951" x1="103.331" y1="-15.9084" x2="-44.3567" y2="97.6035" gradientUnits="userSpaceOnUse">
<stop stop-color="#FF820F"/>
<stop offset="1" stop-color="#FFC85C"/>
</linearGradient>
</defs>
</svg>
