<svg width="155" height="156" viewBox="0 0 155 156" fill="none" xmlns="http://www.w3.org/2000/svg">
<g filter="url(#filter0_d_3_2970)">
<path d="M123.851 118.091C149.32 92.6224 149.32 51.3303 123.851 25.862C98.3819 0.393711 57.0887 0.393633 31.6198 25.8619C6.15084 51.3302 6.15084 92.6224 31.6197 118.091C57.0887 143.559 98.3819 143.559 123.851 118.091Z" fill="url(#paint0_linear_3_2970)"/>
</g>
<path d="M100.153 102.403C100.153 102.138 100.048 101.883 99.8604 101.696C99.6729 101.508 99.4185 101.403 99.1533 101.403H63.1533C62.8881 101.403 62.6338 101.508 62.4462 101.696C62.2587 101.883 62.1533 102.138 62.1533 102.403C62.1533 102.668 62.2587 102.922 62.4462 103.11C62.6338 103.297 62.8881 103.403 63.1533 103.403H99.1533C99.4185 103.403 99.6729 103.297 99.8604 103.11C100.048 102.922 100.153 102.668 100.153 102.403Z" fill="white"/>
<path d="M58.7011 58.111C57.8651 58.667 56.5971 60.359 57.7991 62.763C58.7971 64.757 60.8791 67.197 63.0931 67.841C63.6252 68.0078 64.1868 68.0591 64.7404 67.9915C65.2939 67.9239 65.8267 67.7389 66.3031 67.449C68.5011 66.133 71.0971 64.353 72.1971 63.589C73.5851 64.291 75.3371 64.437 77.1171 63.979L77.1411 63.971C77.0371 67.273 75.9191 69.335 70.4531 74.411C65.5811 78.933 62.6911 84.873 62.7191 90.303C62.7391 93.865 64.0371 96.923 66.4791 99.141C66.6631 99.3095 66.9036 99.403 67.1531 99.403H95.1531C95.4183 99.403 95.6727 99.2977 95.8602 99.1101C96.0477 98.9226 96.1531 98.6682 96.1531 98.403C96.1531 98.1378 96.0477 97.8834 95.8602 97.6959C95.6727 97.5084 95.4183 97.403 95.1531 97.403H67.5511C65.7131 95.593 64.7371 93.143 64.7211 90.293C64.6951 85.489 67.4151 79.963 71.8151 75.877C77.6451 70.465 79.1531 67.901 79.1531 63.403C79.1531 63.321 79.1251 63.249 79.1071 63.173C80.2011 62.583 81.1471 61.803 81.7931 60.859C82.6031 59.679 84.3471 56.649 83.0531 53.967C82.9958 53.8488 82.9159 53.7431 82.8177 53.6558C82.7196 53.5685 82.6052 53.5014 82.4812 53.4583C82.3571 53.4152 82.2258 53.397 82.0947 53.4047C81.9636 53.4123 81.8353 53.4458 81.7171 53.503C81.5989 53.5603 81.4931 53.6402 81.4059 53.7384C81.3186 53.8365 81.2515 53.9509 81.2084 54.0749C81.1653 54.199 81.1471 54.3303 81.1547 54.4614C81.1624 54.5925 81.1958 54.7208 81.2531 54.839C81.8351 56.045 81.4211 57.873 80.1451 59.729C79.4091 60.801 78.0931 61.667 76.6231 62.043C75.1291 62.425 73.7091 62.257 72.7191 61.579C72.5507 61.4636 72.351 61.4025 72.1468 61.404C71.9427 61.4054 71.7439 61.4693 71.5771 61.587C71.5411 61.611 68.0231 64.089 65.2791 65.735C65.0385 65.883 64.7685 65.9766 64.4879 66.0091C64.2074 66.0415 63.9231 66.0122 63.6551 65.923C62.1071 65.471 60.4051 63.499 59.5911 61.871C58.9331 60.555 59.6071 59.927 59.9131 59.703C66.8071 53.749 70.2671 47.563 70.4091 47.301C70.4749 47.1799 70.5152 47.0467 70.5276 46.9095C70.54 46.7722 70.5242 46.6339 70.4811 46.503C70.0485 45.168 69.688 43.8107 69.4011 42.437C71.4931 43.697 75.0911 45.457 78.8371 45.457C84.0451 45.457 96.1531 47.401 96.1531 65.409C96.1531 65.507 96.1351 75.297 92.2131 86.063C92.1666 86.1868 92.1452 86.3186 92.15 86.4508C92.1549 86.5829 92.1859 86.7128 92.2412 86.8329C92.2966 86.953 92.3752 87.0609 92.4725 87.1504C92.5699 87.2399 92.684 87.3092 92.8083 87.3543C92.9327 87.3994 93.0647 87.4194 93.1968 87.4131C93.3289 87.4069 93.4584 87.3745 93.5779 87.3178C93.6974 87.2611 93.8044 87.1813 93.8929 87.083C93.9813 86.9847 94.0493 86.8698 94.0931 86.745C98.1351 75.649 98.1551 65.813 98.1531 65.403C98.1531 45.037 83.3671 43.455 78.8371 43.455C73.8191 43.455 68.8131 39.649 68.7651 39.609C68.6159 39.4965 68.4385 39.4275 68.2525 39.4095C68.0665 39.3915 67.8791 39.4252 67.7111 39.507C67.5438 39.5895 67.4028 39.7171 67.3042 39.8754C67.2056 40.0337 67.1533 40.2165 67.1531 40.403C67.1531 42.365 68.0831 45.539 68.4451 46.697C67.6091 48.093 64.3131 53.259 58.7011 58.111Z" fill="white"/>
<path d="M91.1233 42.4828C87.9213 40.3248 84.3413 39.4028 79.1533 39.4028C78.8881 39.4028 78.6337 39.5082 78.4462 39.6957C78.2587 39.8833 78.1533 40.1376 78.1533 40.4028C78.1533 40.668 78.2587 40.9224 78.4462 41.1099C78.6337 41.2975 78.8881 41.4028 79.1533 41.4028C83.9133 41.4028 87.1593 42.2208 90.0073 44.1408C94.6353 47.2648 100.153 53.4888 100.153 65.4028C100.153 68.3048 100.153 72.2788 98.1833 80.1608C98.126 80.4157 98.1706 80.6828 98.3077 80.9052C98.4448 81.1275 98.6634 81.2874 98.9169 81.3506C99.1703 81.4139 99.4384 81.3754 99.6639 81.2435C99.8893 81.1116 100.054 80.8967 100.123 80.6448C102.153 72.5268 102.153 68.4088 102.153 65.4028C102.153 52.6108 96.1553 45.8768 91.1233 42.4828Z" fill="white"/>
<defs>
<filter id="filter0_d_3_2970" x="0.518066" y="0.760742" width="154.435" height="154.431" filterUnits="userSpaceOnUse" color-interpolation-filters="sRGB">
<feFlood flood-opacity="0" result="BackgroundImageFix"/>
<feColorMatrix in="SourceAlpha" type="matrix" values="0 0 0 0 0 0 0 0 0 0 0 0 0 0 0 0 0 0 127 0" result="hardAlpha"/>
<feOffset dy="6"/>
<feGaussianBlur stdDeviation="6"/>
<feColorMatrix type="matrix" values="0 0 0 0 0 0 0 0 0 0 0 0 0 0 0 0 0 0 0.25 0"/>
<feBlend mode="normal" in2="BackgroundImageFix" result="effect1_dropShadow_3_2970"/>
<feBlend mode="normal" in="SourceGraphic" in2="effect1_dropShadow_3_2970" result="shape"/>
</filter>
<linearGradient id="paint0_linear_3_2970" x1="165.676" y1="-16.8183" x2="-53.2238" y2="151.431" gradientUnits="userSpaceOnUse">
<stop stop-color="#FF820F"/>
<stop offset="1" stop-color="#FFC85C"/>
</linearGradient>
</defs>
</svg>
