<svg width="67" height="75" viewBox="0 0 67 75" fill="none" xmlns="http://www.w3.org/2000/svg">
<path d="M7.82464 56.7189C8.87256 57.8315 9.91308 58.9367 10.8926 60.3414V62.9639H24.6301V60.3414C24.3843 58.301 23.9519 54.6249 23.913 53.6029C23.8613 52.165 21.9318 49.5443 21.9318 49.5443L16.0084 42.0776C16.0084 42.0776 14.3321 40.3071 13.3729 38.3443C12.4118 36.3797 10.3714 38.8507 10.1016 40.6176C9.82807 42.3844 10.3456 43.3159 10.3456 43.3159L13.7277 50.0396C13.7277 50.0396 9.80589 44.6669 8.58794 42.5083C7.97065 41.4141 7.79876 39.0965 7.6047 36.5072C7.41804 33.9845 7.21104 31.2029 6.55494 29.0406C5.22425 24.6604 1.37634 25.7564 0.709144 27.7154C0.0437991 29.6727 0.193502 42.6081 0.435614 44.7649C0.625976 46.4541 1.64432 48.1064 2.79204 49.9694C3.10993 50.4869 3.43891 51.0191 3.76234 51.5717C5.04867 53.7748 6.4422 55.2552 7.82464 56.7189Z" fill="#707070"/>
<path d="M56.1067 60.3411C57.0862 58.9365 58.1267 57.8313 59.1747 56.7187C60.5571 55.2549 61.9506 53.7746 63.2388 51.5715C63.5604 51.0171 63.8894 50.4866 64.2072 49.971C65.355 48.108 66.3733 46.4539 66.5637 44.7647C66.8058 42.6078 66.9573 29.6724 66.2901 27.7152C65.6229 25.7561 61.775 24.6602 60.4443 29.0422C59.7901 31.2046 59.5831 33.9842 59.3946 36.507C59.2005 39.0963 59.0286 41.4139 58.4113 42.508C57.1934 44.6686 53.2697 50.0394 53.2697 50.0394L56.6537 43.3157C56.6537 43.3157 57.1712 42.3842 56.8995 40.6174C56.6279 38.8505 54.5856 36.3795 53.6283 38.3441C52.6672 40.3069 50.9909 42.0774 50.9909 42.0774L45.0675 49.5441C45.0675 49.5441 43.138 52.1648 43.0862 53.6027C43.0493 54.6247 42.6149 58.3008 42.3691 60.3411V62.9637H56.1067V60.3411Z" fill="#707070"/>
<path d="M37.1938 72.2046C37.1938 72.6947 37.3886 73.1648 37.7352 73.5114C38.0818 73.858 38.5519 74.0528 39.042 74.0528H53.8275C54.3176 74.0528 54.7877 73.858 55.1343 73.5114C55.4809 73.1648 55.6757 72.6947 55.6757 72.2046V68.5082C55.6757 68.018 55.4809 67.548 55.1343 67.2014C54.7877 66.8548 54.3176 66.66 53.8275 66.66H39.042C38.5519 66.66 38.0818 66.8548 37.7352 67.2014C37.3886 67.548 37.1938 68.018 37.1938 68.5082V72.2046Z" fill="#707070"/>
<path d="M29.805 72.2046C29.805 72.6947 29.6103 73.1648 29.2637 73.5114C28.9171 73.858 28.447 74.0528 27.9569 74.0528H13.1714C12.6813 74.0528 12.2112 73.858 11.8646 73.5114C11.518 73.1648 11.3232 72.6947 11.3232 72.2046V68.5082C11.3232 68.018 11.518 67.548 11.8646 67.2014C12.2112 66.8548 12.6813 66.66 13.1714 66.66H27.9569C28.447 66.66 28.9171 66.8548 29.2637 67.2014C29.6103 67.548 29.805 68.018 29.805 68.5082V72.2046Z" fill="#707070"/>
<path d="M26 24.3718C33.5926 24.3718 40 25.676 40 30.7081C40 35.742 33.5506 37 26 37C18.4092 37 12 35.6957 12 30.6637C12 25.6298 18.4494 24.3718 26 24.3718ZM26 0C31.1434 0 35.2645 4.35494 35.2645 9.78845C35.2645 15.222 31.1434 19.5787 26 19.5787C20.8583 19.5787 16.7355 15.222 16.7355 9.78845C16.7355 4.35494 20.8583 0 26 0Z" fill="#707070"/>
<path d="M52.5 34.5787C52.5 33.5756 52.1713 32.7371 51.5753 32.0606C50.9884 31.3945 50.1648 30.9102 49.2065 30.5572C47.298 29.8542 44.7245 29.6261 42 29.6261C39.2914 29.6261 36.7185 29.846 34.8068 30.5403C33.847 30.8889 33.0203 31.3689 32.4305 32.032C31.8312 32.7057 31.5 33.5431 31.5 34.5475C31.5 35.5505 31.8288 36.389 32.4249 37.0655C33.0119 37.7316 33.8356 38.216 34.7939 38.5689C36.7026 39.2719 39.2761 39.5 42 39.5C44.7086 39.5 47.2815 39.2801 49.1932 38.5858C50.153 38.2372 50.9797 37.7572 51.5695 37.0941C52.1688 36.4204 52.5 35.583 52.5 34.5787ZM49.1175 19.8784C49.1175 15.8025 45.9681 12.5 42 12.5C38.0332 12.5 34.8825 15.8025 34.8825 19.8784C34.8825 23.9542 38.0331 27.258 42 27.258C45.9682 27.258 49.1175 23.9541 49.1175 19.8784Z" fill="#707070" stroke="white"/>
<path d="M37.3027 45.0007C36.947 45.0008 36.5948 45.0721 36.2671 45.2105C35.9394 45.349 35.6427 45.5517 35.3947 45.8067L34.9997 46.2107L34.6047 45.8057C34.3566 45.5507 34.06 45.3481 33.7323 45.2097C33.4046 45.0713 33.0524 45 32.6967 45C32.341 45 31.9888 45.0713 31.6611 45.2097C31.3334 45.3481 31.0368 45.5507 30.7887 45.8057C30.2828 46.328 30 47.0266 30 47.7537C30 48.4808 30.2828 49.1794 30.7887 49.7017L34.9997 54.0007L39.2097 49.7027C39.7156 49.1804 39.9984 48.4818 39.9984 47.7547C39.9984 47.0276 39.7156 46.329 39.2097 45.8067C38.9619 45.5519 38.6656 45.3494 38.3382 45.2109C38.0109 45.0725 37.6591 45.001 37.3037 45.0007H37.3027Z" fill="#434141"/>
</svg>
