<svg width="28" height="28" viewBox="0 0 28 28" fill="none" xmlns="http://www.w3.org/2000/svg">
<path d="M19.787 0.666504H8.22699C3.70699 0.666504 0.666992 3.83984 0.666992 8.55984V19.4532C0.666992 24.1598 3.70699 27.3332 8.22699 27.3332H19.787C24.307 27.3332 27.3337 24.1598 27.3337 19.4532V8.55984C27.3337 3.83984 24.307 0.666504 19.787 0.666504Z" fill="url(#paint0_linear_3_1886)"/>
<path d="M12.4178 18.3309C12.1191 18.3309 11.8204 18.2176 11.5924 17.9896L8.42843 14.8256C7.97243 14.3696 7.97243 13.6309 8.42843 13.1763C8.88443 12.7203 9.62176 12.7189 10.0778 13.1749L12.4178 15.5149L17.9218 10.0109C18.3778 9.55495 19.1151 9.55495 19.5711 10.0109C20.0271 10.4669 20.0271 11.2056 19.5711 11.6616L13.2431 17.9896C13.0151 18.2176 12.7164 18.3309 12.4178 18.3309Z" fill="#FBFAF5"/>
<defs>
<linearGradient id="paint0_linear_3_1886" x1="31.9793" y1="-4.15424" x2="-12.7744" y2="30.2433" gradientUnits="userSpaceOnUse">
<stop stop-color="#FF820F"/>
<stop offset="1" stop-color="#FFC85C"/>
</linearGradient>
</defs>
</svg>
