<svg width="25" height="25" viewBox="0 0 25 25" fill="none" xmlns="http://www.w3.org/2000/svg">
<mask id="mask0_2869_17263" style="mask-type:alpha" maskUnits="userSpaceOnUse" x="14" y="2" width="10" height="10">
<path fill-rule="evenodd" clip-rule="evenodd" d="M14.5566 2.54248H23.1674V11.147H14.5566V2.54248Z" fill="white"/>
</mask>
<g mask="url(#mask0_2869_17263)">
<path fill-rule="evenodd" clip-rule="evenodd" d="M22.4108 11.147C22.0306 11.147 21.7039 10.8616 21.6605 10.4754C21.2784 7.07103 18.6343 4.42902 15.2289 4.05086C14.8145 4.00448 14.515 3.63137 14.5614 3.21591C14.6068 2.80145 14.9768 2.49591 15.3963 2.54834C19.5086 3.00515 22.7022 6.19473 23.1631 10.306C23.2094 10.7215 22.911 11.0956 22.4965 11.142C22.4683 11.145 22.439 11.147 22.4108 11.147Z" fill="#123D7E"/>
</g>
<path fill-rule="evenodd" clip-rule="evenodd" d="M18.8413 11.1584C18.4863 11.1584 18.1707 10.9084 18.1001 10.5473C17.8097 9.05491 16.6591 7.90432 15.1687 7.61491C14.7582 7.53524 14.491 7.13894 14.5707 6.72852C14.6504 6.3181 15.0537 6.04987 15.4571 6.13054C17.5556 6.53793 19.1761 8.15743 19.5845 10.2569C19.6641 10.6684 19.3969 11.0647 18.9875 11.1443C18.9381 11.1534 18.8897 11.1584 18.8413 11.1584Z" fill="#123D7E"/>
<mask id="mask1_2869_17263" style="mask-type:alpha" maskUnits="userSpaceOnUse" x="2" y="2" width="21" height="22">
<path fill-rule="evenodd" clip-rule="evenodd" d="M2.09961 2.54248H22.7721V23.2153H2.09961V2.54248Z" fill="white"/>
</mask>
<g mask="url(#mask1_2869_17263)">
<path fill-rule="evenodd" clip-rule="evenodd" d="M4.47848 5.62871C4.4805 5.62871 4.43008 5.68115 4.36655 5.74367C4.12252 5.98065 3.61731 6.47376 3.61227 7.50535C3.6042 8.94838 4.55311 11.6277 9.12218 16.1958C13.6691 20.7417 16.3444 21.7017 17.7914 21.7017H17.8126C18.8442 21.6956 19.3363 21.1904 19.5733 20.9474C19.6449 20.8738 19.7034 20.8183 19.7447 20.785C20.7501 19.7736 21.2644 19.0223 21.2593 18.5393C21.2533 18.0472 20.6412 17.4664 19.7951 16.6606C19.5259 16.4055 19.2334 16.1262 18.9249 15.8176C18.1242 15.02 17.7299 15.1561 16.8576 15.4627C15.6526 15.8852 14.0018 16.464 11.4294 13.8896C8.85596 11.3171 9.43277 9.66636 9.85327 8.46031C10.1578 7.58905 10.297 7.19275 9.49731 6.39208C9.1847 6.07947 8.90336 5.783 8.6442 5.51073C7.84353 4.66972 7.26571 4.06166 6.77664 4.0546H6.76857C6.28554 4.0546 5.53529 4.5709 4.47344 5.63275C4.47647 5.62972 4.47748 5.62871 4.47848 5.62871ZM17.7915 23.2148C15.2785 23.2148 12.0022 21.2141 8.05331 17.2662C4.08827 13.3022 2.08457 10.0158 2.09969 7.49783C2.10877 5.83397 2.98104 4.98186 3.30877 4.6622C3.32591 4.64102 3.3844 4.58355 3.40457 4.56338C4.85163 3.11632 5.84591 2.52136 6.79583 2.54254C7.92222 2.55766 8.7249 3.4017 9.74037 4.4696C9.99146 4.73279 10.2627 5.02018 10.5662 5.32271C12.0375 6.79497 11.619 7.99598 11.2812 8.96002C10.9141 10.0118 10.5965 10.9193 12.4984 12.8212C14.4002 14.723 15.3068 14.4054 16.3575 14.0353C17.3226 13.6985 18.5205 13.277 19.9948 14.7493C20.2943 15.0488 20.5767 15.317 20.8389 15.5661C21.9108 16.5866 22.7578 17.3923 22.772 18.5217C22.7831 19.4837 22.1982 20.4659 20.7541 21.9099L20.1148 21.4763L20.6563 22.0037C20.3367 22.3314 19.4866 23.2047 17.8217 23.2148H17.7915Z" fill="#123D7E"/>
</g>
</svg>
