<svg width="52" height="51" viewBox="0 0 52 51" fill="none" xmlns="http://www.w3.org/2000/svg">
<path d="M45.6415 39.3907C44.846 39.3943 44.0617 39.5774 43.3469 39.9264L35.6683 32.2478H29.5701V35.8193H34.1879L40.8219 42.4532C40.4726 43.168 40.2889 43.9523 40.2844 44.7478C40.2844 45.8074 40.5985 46.8431 41.1872 47.7241C41.7758 48.6051 42.6125 49.2917 43.5914 49.6972C44.5703 50.1027 45.6474 50.2087 46.6866 50.002C47.7258 49.7953 48.6804 49.2851 49.4296 48.5359C50.1788 47.7867 50.689 46.8321 50.8957 45.793C51.1024 44.7538 50.9963 43.6766 50.5908 42.6977C50.1854 41.7189 49.4987 40.8822 48.6178 40.2935C47.7368 39.7049 46.701 39.3907 45.6415 39.3907ZM45.6415 46.5336C45.2883 46.5336 44.9431 46.4288 44.6494 46.2326C44.3557 46.0364 44.1269 45.7575 43.9917 45.4312C43.8566 45.1049 43.8212 44.7459 43.8901 44.3995C43.959 44.0531 44.1291 43.7349 44.3788 43.4851C44.6285 43.2354 44.9467 43.0653 45.2931 42.9964C45.6395 42.9275 45.9986 42.9629 46.3249 43.098C46.6512 43.2332 46.93 43.4621 47.1263 43.7557C47.3225 44.0494 47.4272 44.3947 47.4272 44.7478C47.4272 45.2214 47.2391 45.6756 46.9042 46.0105C46.5693 46.3454 46.1151 46.5336 45.6415 46.5336ZM45.6415 19.7478C44.5371 19.7511 43.4609 20.0962 42.5605 20.7357C41.6601 21.3751 40.9798 22.2776 40.6129 23.3193H29.5701V26.8907H40.6129C40.9419 27.8142 41.5184 28.6296 42.2794 29.2476C43.0404 29.8656 43.9567 30.2626 44.928 30.3952C45.8994 30.5277 46.8885 30.3907 47.7873 29.9991C48.686 29.6075 49.4599 28.9764 50.0242 28.1748C50.5886 27.3731 50.9217 26.4318 50.9873 25.4536C51.0528 24.4754 50.8483 23.4981 50.3959 22.6283C49.9435 21.7585 49.2608 21.0298 48.4223 20.5218C47.5838 20.0138 46.6219 19.7461 45.6415 19.7478ZM45.6415 26.8907C45.2883 26.8907 44.9431 26.786 44.6494 26.5897C44.3557 26.3935 44.1269 26.1146 43.9917 25.7883C43.8566 25.462 43.8212 25.103 43.8901 24.7566C43.959 24.4102 44.1291 24.092 44.3788 23.8423C44.6285 23.5926 44.9467 23.4225 45.2931 23.3536C45.6395 23.2847 45.9986 23.32 46.3249 23.4552C46.6512 23.5904 46.93 23.8192 47.1263 24.1129C47.3225 24.4065 47.4272 24.7518 47.4272 25.105C47.4272 25.5786 47.2391 26.0328 46.9042 26.3677C46.5693 26.7026 46.1151 26.8907 45.6415 26.8907ZM45.6415 0.104983C44.2211 0.106401 42.8593 0.671268 41.855 1.67562C40.8506 2.67997 40.2858 4.04176 40.2844 5.46212C40.2905 6.31758 40.5037 7.15883 40.9058 7.91391L34.2058 14.3907H29.5701V17.9621H35.6486L43.5058 10.3693C44.2357 10.6875 45.0273 10.8391 45.8231 10.8128C46.619 10.7865 47.3989 10.5831 48.1062 10.2174C48.8135 9.85163 49.4303 9.33279 49.9118 8.6986C50.3933 8.0644 50.7273 7.33083 50.8895 6.55127C51.0517 5.77172 51.038 4.9658 50.8494 4.1922C50.6609 3.41859 50.3022 2.69677 49.7995 2.07927C49.2968 1.46178 48.6627 0.964149 47.9434 0.62262C47.2241 0.28109 46.4377 0.104254 45.6415 0.104983ZM45.6415 7.24784C45.2883 7.24784 44.9431 7.14311 44.6494 6.94689C44.3557 6.75067 44.1269 6.47178 43.9917 6.14549C43.8566 5.81919 43.8212 5.46014 43.8901 5.11375C43.959 4.76735 44.1291 4.44917 44.3788 4.19943C44.6285 3.9497 44.9467 3.77962 45.2931 3.71072C45.6395 3.64182 45.9986 3.67718 46.3249 3.81234C46.6512 3.9475 46.93 4.17638 47.1263 4.47004C47.3225 4.76369 47.4272 5.10894 47.4272 5.46212C47.4272 5.93573 47.2391 6.38993 46.9042 6.72481C46.5693 7.0597 46.1151 7.24784 45.6415 7.24784Z" fill="url(#paint0_linear_2728_15782)"/>
<path d="M29.57 7.2477H33.1414V3.67627H29.57C28.5523 3.67967 27.5473 3.90179 26.623 4.32758C25.6987 4.75337 24.8767 5.37288 24.2128 6.14413C23.5489 5.37288 22.7269 4.75337 21.8026 4.32758C20.8783 3.90179 19.8733 3.67967 18.8557 3.67627H17.07C12.809 3.681 8.72392 5.37575 5.71097 8.3887C2.69801 11.4017 1.00326 15.4867 0.998535 19.7477V30.462C1.00326 34.7229 2.69801 38.808 5.71097 41.821C8.72392 44.8339 12.809 46.5287 17.07 46.5334H18.8557C19.8733 46.53 20.8783 46.3079 21.8026 45.8821C22.7269 45.4563 23.5489 44.8368 24.2128 44.0655C24.8767 44.8368 25.6987 45.4563 26.623 45.8821C27.5473 46.3079 28.5523 46.53 29.57 46.5334H33.1414V42.962H29.57C28.623 42.961 27.7152 42.5845 27.0456 41.9149C26.3761 41.2453 25.9995 40.3375 25.9985 39.3905V10.8191C25.9995 9.87221 26.3761 8.96436 27.0456 8.29479C27.7152 7.62522 28.623 7.24864 29.57 7.2477ZM18.8557 42.962H17.07C14.0672 42.9566 11.1665 41.8712 8.89779 39.9041C6.62904 37.937 5.14362 35.2194 4.71282 32.2477H8.14139V28.6763H4.56996V21.5334H9.9271C11.3475 21.532 12.7093 20.9671 13.7136 19.9628C14.718 18.9584 15.2828 17.5966 15.2842 16.1763V12.6048H11.7128V16.1763C11.7128 16.6499 11.5247 17.1041 11.1898 17.439C10.8549 17.7738 10.4007 17.962 9.9271 17.962H4.71282C5.14362 14.9903 6.62904 12.2727 8.89779 10.3055C11.1665 8.33843 14.0672 7.25307 17.07 7.2477H18.8557C19.8026 7.24864 20.7104 7.62522 21.38 8.29479C22.0496 8.96436 22.4262 9.87221 22.4271 10.8191V17.962H18.8557V21.5334H22.4271V28.6763H18.8557C17.4353 28.6777 16.0735 29.2426 15.0692 30.2469C14.0648 31.2513 13.5 32.613 13.4985 34.0334V37.6048H17.07V34.0334C17.07 33.5598 17.2581 33.1056 17.593 32.7707C17.9279 32.4358 18.3821 32.2477 18.8557 32.2477H22.4271V39.3905C22.4262 40.3375 22.0496 41.2453 21.38 41.9149C20.7104 42.5845 19.8026 42.961 18.8557 42.962Z" fill="url(#paint1_linear_2728_15782)"/>
<defs>
<linearGradient id="paint0_linear_2728_15782" x1="27.1175" y1="-1.61638" x2="66.6323" y2="18.0848" gradientUnits="userSpaceOnUse">
<stop stop-color="#FF6BDF"/>
<stop offset="1" stop-color="#A400CD"/>
</linearGradient>
<linearGradient id="paint1_linear_2728_15782" x1="-2.67981" y1="2.20082" x2="39.338" y2="38.8563" gradientUnits="userSpaceOnUse">
<stop stop-color="#FF6BDF"/>
<stop offset="1" stop-color="#A400CD"/>
</linearGradient>
</defs>
</svg>
