<svg width="60" height="51" viewBox="0 0 60 51" fill="none" xmlns="http://www.w3.org/2000/svg">
<path d="M34.1668 39.6883H30.0002V35.5216C29.9985 33.8645 29.3395 32.2758 28.1678 31.1041C26.996 29.9323 25.4073 29.2733 23.7502 29.2716H15.4168C13.7597 29.2733 12.171 29.9323 10.9992 31.1041C9.8275 32.2758 9.16848 33.8645 9.16683 35.5216V39.6883H5.00016V35.5216C5.00347 32.76 6.102 30.1124 8.05479 28.1596C10.0076 26.2068 12.6552 25.1083 15.4168 25.105H23.7502C26.5118 25.1083 29.1594 26.2068 31.1122 28.1596C33.065 30.1124 34.1635 32.76 34.1668 35.5216V39.6883ZM19.5835 4.27165C20.8196 4.27165 22.028 4.6382 23.0558 5.32496C24.0836 6.01172 24.8847 6.98784 25.3577 8.12988C25.8308 9.27191 25.9546 10.5286 25.7134 11.741C25.4722 12.9533 24.877 14.067 24.0029 14.9411C23.1288 15.8151 22.0152 16.4104 20.8028 16.6516C19.5904 16.8927 18.3338 16.7689 17.1917 16.2959C16.0497 15.8228 15.0736 15.0218 14.3868 13.994C13.7001 12.9662 13.3335 11.7578 13.3335 10.5216C13.3335 8.86404 13.992 7.27433 15.1641 6.10223C16.3362 4.93013 17.9259 4.27165 19.5835 4.27165ZM19.5835 0.10498C17.5233 0.10498 15.5093 0.715907 13.7963 1.86051C12.0833 3.0051 10.7482 4.63196 9.95975 6.53536C9.17134 8.43876 8.96505 10.5332 9.36698 12.5538C9.76891 14.5745 10.761 16.4305 12.2178 17.8873C13.6746 19.3441 15.5307 20.3362 17.5513 20.7382C19.5719 21.1401 21.6664 20.9338 23.5698 20.1454C25.4732 19.357 27.1 18.0218 28.2446 16.3088C29.3892 14.5958 30.0002 12.5819 30.0002 10.5216C30.0002 7.75898 28.9027 5.10946 26.9492 3.15595C24.9957 1.20245 22.3462 0.10498 19.5835 0.10498ZM0.833496 45.9383H59.1668V50.105H0.833496V45.9383ZM53.5481 8.43831C52.8069 8.43839 52.0733 8.58702 51.3906 8.87543C50.7078 9.16384 50.0898 9.58618 49.5731 10.1175L48.7502 10.9591L47.9272 10.1154C47.4104 9.5842 46.7924 9.16198 46.1097 8.87367C45.427 8.58536 44.6934 8.43682 43.9522 8.43682C43.2111 8.43682 42.4775 8.58536 41.7948 8.87367C41.1121 9.16198 40.494 9.5842 39.9772 10.1154C38.9234 11.2035 38.3341 12.6589 38.3341 14.1737C38.3341 15.6885 38.9234 17.1439 39.9772 18.2321L48.7502 27.1883L57.521 18.2341C58.5749 17.146 59.1641 15.6906 59.1641 14.1758C59.1641 12.661 58.5749 11.2056 57.521 10.1175C57.0047 9.58668 56.3874 9.16464 55.7054 8.87624C55.0234 8.58785 54.2906 8.43895 53.5502 8.43831H53.5481Z" fill="url(#paint0_linear_2728_15776)"/>
<defs>
<linearGradient id="paint0_linear_2728_15776" x1="-5.84203" y1="-1.61638" x2="41.4166" y2="62.5154" gradientUnits="userSpaceOnUse">
<stop stop-color="#FF6BDF"/>
<stop offset="1" stop-color="#A400CD"/>
</linearGradient>
</defs>
</svg>
