<svg width="20" height="33" viewBox="0 0 20 33" fill="none" xmlns="http://www.w3.org/2000/svg">
<path d="M9.6 19.7361C7.05392 19.7361 4.61212 18.7247 2.81178 16.9244C1.01143 15.124 0 12.6822 0 10.1361C0 7.59005 1.01143 5.14826 2.81178 3.34791C4.61212 1.54756 7.05392 0.536133 9.6 0.536133C12.1461 0.536133 14.5879 1.54756 16.3882 3.34791C18.1886 5.14826 19.2 7.59005 19.2 10.1361C19.2 12.6822 18.1886 15.124 16.3882 16.9244C14.5879 18.7247 12.1461 19.7361 9.6 19.7361ZM9.6 14.9361C10.873 14.9361 12.0939 14.4304 12.9941 13.5302C13.8943 12.6301 14.4 11.4092 14.4 10.1361C14.4 8.86309 13.8943 7.6422 12.9941 6.74202C12.0939 5.84185 10.873 5.33613 9.6 5.33613C8.32696 5.33613 7.10606 5.84185 6.20589 6.74202C5.30571 7.6422 4.8 8.86309 4.8 10.1361C4.8 11.4092 5.30571 12.6301 6.20589 13.5302C7.10606 14.4304 8.32696 14.9361 9.6 14.9361ZM16 19.3361V32.5361L9.6 26.1361L3.2 32.5361V19.3361C5.07541 20.6504 7.30994 21.3554 9.6 21.3554C11.8901 21.3554 14.1246 20.6504 16 19.3361Z" fill="url(#paint0_linear_3342_3002)"/>
<defs>
<linearGradient id="paint0_linear_3342_3002" x1="-2.1972" y1="-0.565538" x2="27.5256" y2="20.1781" gradientUnits="userSpaceOnUse">
<stop stop-color="#FF6BDF"/>
<stop offset="1" stop-color="#A400CD"/>
</linearGradient>
</defs>
</svg>
