<svg width="25" height="24" viewBox="0 0 25 24" fill="none" xmlns="http://www.w3.org/2000/svg">
<path d="M24.001 8.67383C24.001 8.67383 24.001 9.80783 23.536 11.2988L18.354 6.11783C18.073 5.83644 17.6917 5.67818 17.294 5.67783H12.691C12.3556 5.67807 12.0299 5.79073 11.766 5.99783L9.949 7.41983C9.82429 7.51753 9.68155 7.58969 9.52893 7.63217C9.37632 7.67465 9.21682 7.68662 9.05957 7.66739C8.90232 7.64816 8.75041 7.59812 8.61252 7.52012C8.47464 7.44212 8.35348 7.3377 8.256 7.21283C8.05902 6.96029 7.9702 6.63996 8.009 6.32205C8.0478 6.00414 8.21106 5.71457 8.463 5.51683L14.663 0.673828H16.001C18.1227 0.673828 20.1576 1.51668 21.6579 3.01697C23.1581 4.51726 24.001 6.5521 24.001 8.67383ZM3.385 12.0038C3.28495 11.9035 3.16611 11.824 3.03526 11.7697C2.90442 11.7154 2.76415 11.6874 2.6225 11.6874C2.48084 11.6874 2.34057 11.7154 2.20973 11.7697C2.07889 11.824 1.96004 11.9035 1.86 12.0038L0.315995 13.5538C0.113624 13.757 0 14.0321 0 14.3188C0 14.6056 0.113624 14.8807 0.315995 15.0838C0.416039 15.1841 0.534885 15.2637 0.665727 15.318C0.796569 15.3723 0.936836 15.4002 1.0785 15.4002C1.22015 15.4002 1.36042 15.3723 1.49126 15.318C1.62211 15.2637 1.74095 15.1841 1.841 15.0838L3.385 13.5338C3.58731 13.3308 3.7009 13.0559 3.7009 12.7693C3.7009 12.4827 3.58731 12.2078 3.385 12.0048V12.0038ZM4.981 14.0938C5.08099 13.9933 5.19988 13.9135 5.33082 13.859C5.46176 13.8045 5.60218 13.7765 5.744 13.7765C5.88581 13.7765 6.02623 13.8045 6.15717 13.859C6.28811 13.9135 6.407 13.9933 6.507 14.0938C6.70906 14.297 6.82249 14.5718 6.82249 14.8583C6.82249 15.1448 6.70906 15.4197 6.507 15.6228L4.961 17.1698C4.86102 17.2702 4.7422 17.3499 4.61134 17.4043C4.48049 17.4587 4.34019 17.4866 4.1985 17.4866C4.0568 17.4866 3.9165 17.4587 3.78565 17.4043C3.6548 17.3499 3.53597 17.2702 3.436 17.1698C3.23393 16.9667 3.1205 16.6918 3.1205 16.4053C3.1205 16.1188 3.23393 15.844 3.436 15.6408L4.98 14.0928L4.981 14.0938ZM9.098 16.6908C8.99795 16.5905 8.87911 16.511 8.74826 16.4567C8.61742 16.4024 8.47715 16.3744 8.3355 16.3744C8.19384 16.3744 8.05357 16.4024 7.92273 16.4567C7.79189 16.511 7.67304 16.5905 7.573 16.6908L6.029 18.2388C5.82638 18.4419 5.71259 18.717 5.71259 19.0038C5.71259 19.2907 5.82638 19.5658 6.029 19.7688C6.12897 19.8692 6.2478 19.9489 6.37865 20.0033C6.5095 20.0577 6.6498 20.0856 6.7915 20.0856C6.93319 20.0856 7.07349 20.0577 7.20434 20.0033C7.3352 19.9489 7.45402 19.8692 7.554 19.7688L9.098 18.2198C9.30037 18.0167 9.41399 17.7416 9.41399 17.4548C9.41399 17.1681 9.30037 16.894 9.098 16.6908ZM11.688 19.2868C11.588 19.1863 11.4691 19.1065 11.3382 19.052C11.2072 18.9975 11.0668 18.9695 10.925 18.9695C10.7832 18.9695 10.6428 18.9975 10.5118 19.052C10.3809 19.1065 10.262 19.1863 10.162 19.2868L8.618 20.8358C8.41593 21.039 8.3025 21.3138 8.3025 21.6003C8.3025 21.8868 8.41593 22.1617 8.618 22.3648C8.71797 22.4652 8.8368 22.5449 8.96765 22.5993C9.0985 22.6537 9.2388 22.6816 9.3805 22.6816C9.52219 22.6816 9.66249 22.6537 9.79334 22.5993C9.92419 22.5449 10.043 22.4652 10.143 22.3648L11.687 20.8158C11.8893 20.6128 12.0029 20.3379 12.0029 20.0513C12.0029 19.7647 11.8893 19.4898 11.687 19.2868H11.688ZM11.041 0.966828C10.5143 0.810912 9.97203 0.713655 9.424 0.676828C9.39402 0.675195 9.36401 0.674528 9.334 0.674828H9.001C6.87926 0.674828 4.84443 1.51768 3.34414 3.01797C1.84385 4.51826 1.001 6.5531 1.001 8.67483V10.7618C1.49551 10.3601 2.12155 10.1561 2.75783 10.1896C3.3941 10.223 3.99532 10.4914 4.445 10.9428C4.838 11.3378 5.078 11.8288 5.164 12.3408C5.54338 12.2539 5.93751 12.254 6.31687 12.341C6.69622 12.428 7.05098 12.5997 7.35456 12.8433C7.65815 13.0869 7.90269 13.3959 8.06988 13.7474C8.23707 14.0989 8.32258 14.4836 8.32 14.8728C8.66117 14.8712 8.99926 14.9373 9.31472 15.0673C9.63018 15.1972 9.91673 15.3884 10.1578 15.6299C10.3988 15.8713 10.5896 16.1581 10.7191 16.4738C10.8485 16.7895 10.9141 17.1277 10.912 17.4688C11.2524 17.467 11.5898 17.5328 11.9045 17.6626C12.2192 17.7924 12.5049 17.9835 12.745 18.2248C13.2283 18.7101 13.4996 19.367 13.4996 20.0518C13.4996 20.7367 13.2283 21.3936 12.745 21.8788L12.52 22.1048L13.794 23.3688C13.9959 23.5679 14.268 23.6794 14.5515 23.6794C14.835 23.6794 15.1071 23.5679 15.309 23.3688C15.723 22.9588 15.724 22.2948 15.311 21.8838C15.1691 21.7431 15.0889 21.5518 15.0881 21.352C15.0872 21.1522 15.1658 20.9602 15.3065 20.8183C15.4472 20.6764 15.6385 20.5962 15.8383 20.5954C16.0381 20.5946 16.2301 20.6731 16.372 20.8138C16.5739 21.0129 16.846 21.1244 17.1295 21.1244C17.413 21.1244 17.6851 21.0129 17.887 20.8138C17.9853 20.7167 18.0634 20.6011 18.1167 20.4736C18.1701 20.3461 18.1976 20.2092 18.1977 20.071C18.1978 19.9328 18.1704 19.796 18.1173 19.6684C18.0641 19.5408 17.9862 19.4251 17.888 19.3278C17.755 19.1853 17.6824 18.9969 17.6854 18.802C17.6884 18.6071 17.7667 18.421 17.9039 18.2826C18.0412 18.1442 18.2266 18.0643 18.4215 18.0597C18.6163 18.0551 18.8054 18.1261 18.949 18.2578C19.1511 18.4563 19.4231 18.5673 19.7064 18.5669C19.9897 18.5666 20.2614 18.4548 20.463 18.2558C20.887 17.8358 20.885 17.1538 20.48 16.7508L20.477 16.7488L18.224 14.4948C18.0915 14.3527 18.0194 14.1646 18.0228 13.9703C18.0262 13.776 18.105 13.5906 18.2424 13.4532C18.3798 13.3158 18.5652 13.2371 18.7595 13.2337C18.9538 13.2302 19.1418 13.3023 19.284 13.4348L21.92 16.0678C22.447 16.5908 23.316 16.5958 23.773 16.1428C24.228 15.6918 24.224 14.8358 23.702 14.3168L23.7 14.3148L17.064 7.67983H12.864L11.182 8.99583C10.8504 9.25527 10.471 9.44685 10.0654 9.55963C9.6598 9.6724 9.23594 9.70415 8.81805 9.65308C8.40017 9.60201 7.99643 9.4691 7.62992 9.26196C7.26341 9.05481 6.9413 8.77749 6.682 8.44583C6.15806 7.77547 5.92169 6.92454 6.02482 6.08C6.12795 5.23546 6.56214 4.4664 7.232 3.94183L11.04 0.967828L11.041 0.966828Z" fill="#F178B6"/>
<path d="M11.041 0.966828C10.5143 0.810912 9.97201 0.713655 9.42398 0.676828C9.39401 0.675195 9.36399 0.674528 9.33398 0.674828H9.00098C6.87924 0.674828 4.84441 1.51768 3.34412 3.01797C1.84383 4.51826 1.00098 6.5531 1.00098 8.67483V10.7618C1.49549 10.3601 2.12153 10.1561 2.75781 10.1896C3.39408 10.223 3.9953 10.4914 4.44498 10.9428C4.83798 11.3378 5.07798 11.8288 5.16398 12.3408C5.54336 12.2539 5.93749 12.254 6.31685 12.341C6.69621 12.428 7.05096 12.5997 7.35454 12.8433C7.65813 13.0869 7.90267 13.3959 8.06986 13.7474C8.23706 14.0989 8.32256 14.4836 8.31998 14.8728C8.66115 14.8712 8.99924 14.9373 9.3147 15.0673C9.63016 15.1972 9.91671 15.3884 10.1578 15.6299C10.3988 15.8713 10.5896 16.1581 10.7191 16.4738C10.8485 16.7895 10.9141 17.1277 10.912 17.4688C11.2524 17.467 11.5898 17.5328 11.9044 17.6626C12.2191 17.7924 12.5049 17.9835 12.745 18.2248C13.2282 18.7101 13.4996 19.367 13.4996 20.0518C13.4996 20.7367 13.2282 21.3936 12.745 21.8788L12.52 22.1048L13.794 23.3688C13.9959 23.5679 14.268 23.6794 14.5515 23.6794C14.835 23.6794 15.1071 23.5679 15.309 23.3688C15.723 22.9588 15.724 22.2948 15.311 21.8838C15.1691 21.7431 15.0889 21.5518 15.0881 21.352C15.0872 21.1522 15.1658 20.9602 15.3065 20.8183C15.4472 20.6764 15.6385 20.5962 15.8383 20.5954C16.0381 20.5946 16.2301 20.6731 16.372 20.8138C16.5739 21.0129 16.846 21.1244 17.1295 21.1244C17.413 21.1244 17.6851 21.0129 17.887 20.8138C17.9853 20.7167 18.0634 20.6011 18.1167 20.4736C18.17 20.3461 18.1976 20.2092 18.1976 20.071C18.1977 19.9328 18.1704 19.796 18.1173 19.6684C18.0641 19.5408 17.9862 19.4251 17.888 19.3278C17.755 19.1853 17.6824 18.9969 17.6854 18.802C17.6884 18.6071 17.7667 18.421 17.9039 18.2826C18.0411 18.1442 18.2266 18.0643 18.4215 18.0597C18.6163 18.0551 18.8054 18.1261 18.949 18.2578C19.1511 18.4563 19.4231 18.5673 19.7064 18.5669C19.9896 18.5666 20.2614 18.4548 20.463 18.2558C20.887 17.8358 20.885 17.1538 20.48 16.7508L20.477 16.7488L18.224 14.4948C18.0915 14.3527 18.0194 14.1646 18.0228 13.9703C18.0262 13.776 18.1049 13.5906 18.2424 13.4532C18.3798 13.3158 18.5652 13.2371 18.7595 13.2337C18.9538 13.2302 19.1418 13.3023 19.284 13.4348L21.92 16.0678C22.447 16.5908 23.316 16.5958 23.773 16.1428C24.228 15.6918 24.224 14.8358 23.702 14.3168L23.7 14.3148L17.064 7.67983H12.864L11.182 8.99583C10.8504 9.25527 10.471 9.44685 10.0654 9.55963C9.65978 9.6724 9.23592 9.70415 8.81804 9.65308C8.40015 9.60201 7.99642 9.4691 7.6299 9.26196C7.26339 9.05481 6.94128 8.77749 6.68198 8.44583C6.15804 7.77547 5.92167 6.92454 6.0248 6.08C6.12793 5.23546 6.56212 4.4664 7.23198 3.94183L11.04 0.967828L11.041 0.966828Z" fill="url(#paint0_linear_3342_2995)"/>
<defs>
<linearGradient id="paint0_linear_3342_2995" x1="-1.64292" y1="-0.118191" x2="20.8505" y2="26.1568" gradientUnits="userSpaceOnUse">
<stop stop-color="#FF6BDF"/>
<stop offset="1" stop-color="#A400CD"/>
</linearGradient>
</defs>
</svg>
