<svg width="27" height="21" viewBox="0 0 27 21" fill="none" xmlns="http://www.w3.org/2000/svg">
<path opacity="0.4" d="M25.9414 4.02897C25.3827 3.67703 24.6961 3.64589 24.1107 3.94369L22.1347 4.94132C21.404 5.30951 20.9507 6.05401 20.9507 6.88244V14.6604C20.9507 15.4889 21.404 16.232 22.1347 16.6029L24.1094 17.5992C24.3774 17.7373 24.6641 17.8036 24.9507 17.8036C25.2947 17.8036 25.6361 17.7061 25.9414 17.5153C26.5001 17.1647 26.8334 16.5569 26.8334 15.8909V5.65469C26.8334 4.9887 26.5001 4.38092 25.9414 4.02897Z" fill="url(#paint0_linear_3342_2989)"/>
<path d="M13.3738 20.772H5.65105C2.42168 20.772 0.166992 18.5452 0.166992 15.3574V6.18652C0.166992 2.99735 2.42168 0.771973 5.65105 0.771973H13.3738C16.6032 0.771973 18.8578 2.99735 18.8578 6.18652V15.3574C18.8578 18.5452 16.6032 20.772 13.3738 20.772Z" fill="url(#paint1_linear_3342_2989)"/>
<defs>
<linearGradient id="paint0_linear_3342_2989" x1="20.2775" y1="3.25658" x2="31.2275" y2="8.58458" gradientUnits="userSpaceOnUse">
<stop stop-color="#FF6BDF"/>
<stop offset="1" stop-color="#A400CD"/>
</linearGradient>
<linearGradient id="paint1_linear_3342_2989" x1="-1.97194" y1="0.0834284" x2="17.7507" y2="21.5226" gradientUnits="userSpaceOnUse">
<stop stop-color="#FF6BDF"/>
<stop offset="1" stop-color="#A400CD"/>
</linearGradient>
</defs>
</svg>
