<svg width="103" height="105" viewBox="0 0 103 105" fill="none" xmlns="http://www.w3.org/2000/svg">
<path d="M51.5093 57.2613C51.3785 57.2608 51.2499 57.2269 51.1359 57.1628L1.12479 29.4763C0.983851 29.3893 0.867499 29.2676 0.786807 29.123C0.706114 28.9783 0.663765 28.8154 0.663765 28.6497C0.663765 28.4841 0.706114 28.3212 0.786807 28.1765C0.867499 28.0318 0.983851 27.9102 1.12479 27.8232L51.1323 0.122545C51.2464 0.0582236 51.3752 0.0244141 51.5061 0.0244141C51.6371 0.0244141 51.7658 0.0582236 51.8799 0.122545L101.881 27.8232C102.022 27.9102 102.138 28.0318 102.219 28.1765C102.3 28.3212 102.342 28.4841 102.342 28.6497C102.342 28.8154 102.3 28.9783 102.219 29.123C102.138 29.2676 102.022 29.3893 101.881 29.4763L51.8834 57.1628C51.7691 57.2268 51.6404 57.2607 51.5093 57.2613ZM3.36463 28.6501L51.5093 55.3027L99.6426 28.6501L51.5093 1.98329L3.36463 28.6501Z" fill="#F8F8F8"/>
<path d="M51.509 81.1378C51.378 81.1369 51.2495 81.1025 51.1355 81.0379L1.12447 53.3373C0.983357 53.2504 0.866839 53.1288 0.786025 52.9841C0.705211 52.8394 0.662788 52.6764 0.662788 52.5107C0.662788 52.345 0.705211 52.182 0.786025 52.0373C0.866839 51.8927 0.983357 51.7711 1.12447 51.6842L22.6781 39.7587C22.7922 39.695 22.9206 39.6616 23.0512 39.6616C23.1818 39.6616 23.3103 39.695 23.4243 39.7587L51.5076 55.3022L79.5837 39.7587C79.6978 39.695 79.8262 39.6616 79.9568 39.6616C80.0874 39.6616 80.2159 39.695 80.3299 39.7587L101.881 51.6842C102.022 51.7711 102.138 51.8927 102.219 52.0373C102.3 52.182 102.342 52.345 102.342 52.5107C102.342 52.6764 102.3 52.8394 102.219 52.9841C102.138 53.1288 102.022 53.2504 101.881 53.3373L51.8831 81.0379C51.7689 81.1024 51.6401 81.1368 51.509 81.1378ZM3.36571 52.5111L51.509 79.1793L99.6409 52.5111L79.9586 41.6159L51.8831 57.1629C51.769 57.2273 51.6403 57.261 51.5093 57.261C51.3784 57.261 51.2496 57.2273 51.1355 57.1629L23.0516 41.6159L3.36571 52.5111Z" fill="#F8F8F8"/>
<path d="M51.5093 105C51.3785 104.999 51.2499 104.965 51.1359 104.901L1.12479 77.2148C0.983851 77.1278 0.867499 77.0062 0.786807 76.8615C0.706114 76.7168 0.663765 76.5539 0.663765 76.3883C0.663765 76.2226 0.706114 76.0597 0.786807 75.915C0.867499 75.7704 0.983851 75.6487 1.12479 75.5617L22.6784 63.6235C22.7925 63.5592 22.9213 63.5254 23.0522 63.5254C23.1832 63.5254 23.312 63.5592 23.426 63.6235L51.5093 79.1797L79.5855 63.6235C79.6996 63.5592 79.8283 63.5254 79.9592 63.5254C80.0902 63.5254 80.219 63.5592 80.333 63.6235L101.884 75.5596C102.025 75.6466 102.141 75.7683 102.222 75.9129C102.303 76.0576 102.345 76.2205 102.345 76.3861C102.345 76.5518 102.303 76.7147 102.222 76.8594C102.141 77.004 102.025 77.1257 101.884 77.2127L51.8834 104.901C51.7691 104.965 51.6404 104.999 51.5093 105V105ZM3.36463 76.3886L51.5093 103.041L99.6426 76.3886L79.9589 65.4842L51.8834 81.0383C51.7694 81.1027 51.6406 81.1366 51.5097 81.1366C51.3787 81.1366 51.2499 81.1027 51.1359 81.0383L23.0519 65.4835L3.36463 76.3886Z" fill="#F8F8F8"/>
<path d="M14.3534 36.3404C14.1969 36.3369 14.0445 36.289 13.914 36.2023C13.7836 36.1157 13.6804 35.9938 13.6165 35.8508C13.5104 35.6364 13.4868 35.3904 13.5503 35.1598C13.6138 34.9292 13.7599 34.73 13.9609 34.6001L62.0389 6.18595C62.1365 6.12981 62.2449 6.09504 62.357 6.08395C62.469 6.07285 62.5822 6.08569 62.6889 6.12159C62.7956 6.1575 62.8935 6.21566 62.976 6.29223C63.0586 6.3688 63.1239 6.46204 63.1677 6.56576C63.274 6.78011 63.2977 7.0261 63.2342 7.25678C63.1706 7.48746 63.0244 7.68669 62.8233 7.81642L14.7453 36.2306C14.6269 36.3018 14.4916 36.3398 14.3534 36.3404Z" fill="#F8F8F8"/>
<path d="M14.3534 36.3404C14.1969 36.3369 14.0445 36.289 13.914 36.2023C13.7836 36.1157 13.6804 35.9938 13.6165 35.8508C13.5104 35.6364 13.4868 35.3904 13.5503 35.1598C13.6138 34.9292 13.7599 34.73 13.9609 34.6001L62.0389 6.18595C62.1365 6.12981 62.2449 6.09504 62.357 6.08395C62.469 6.07285 62.5822 6.08569 62.6889 6.12159C62.7956 6.1575 62.8935 6.21566 62.976 6.29223C63.0586 6.3688 63.1239 6.46204 63.1677 6.56576C63.274 6.78011 63.2977 7.0261 63.2342 7.25678C63.1706 7.48746 63.0244 7.68669 62.8233 7.81642L14.7453 36.2306C14.6269 36.3018 14.4916 36.3398 14.3534 36.3404Z" stroke="#393939"/>
<path d="M26.4582 43.3071C26.3 43.3038 26.146 43.2554 26.0144 43.1675C25.8829 43.0796 25.7792 42.956 25.7156 42.8111C25.6119 42.5957 25.5908 42.3499 25.656 42.12C25.7213 41.8901 25.8685 41.692 26.0699 41.5633L74.7063 13.5594C74.8048 13.5047 74.9138 13.4715 75.0262 13.4619C75.1385 13.4523 75.2515 13.4666 75.3579 13.5038C75.4643 13.541 75.5617 13.6003 75.6435 13.6778C75.7254 13.7552 75.79 13.8491 75.833 13.9533C75.9366 14.1687 75.9577 14.4145 75.8925 14.6444C75.8272 14.8743 75.68 15.0724 75.4787 15.2012L26.8422 43.2001C26.7259 43.2691 26.5934 43.306 26.4582 43.3071Z" fill="#F8F8F8"/>
<path d="M26.4582 43.3071C26.3 43.3038 26.146 43.2554 26.0144 43.1675C25.8829 43.0796 25.7792 42.956 25.7156 42.8111C25.6119 42.5957 25.5908 42.3499 25.656 42.12C25.7213 41.8901 25.8685 41.692 26.0699 41.5633L74.7063 13.5594C74.8048 13.5047 74.9138 13.4715 75.0262 13.4619C75.1385 13.4523 75.2515 13.4666 75.3579 13.5038C75.4643 13.541 75.5617 13.6003 75.6435 13.6778C75.7254 13.7552 75.79 13.8491 75.833 13.9533C75.9366 14.1687 75.9577 14.4145 75.8925 14.6444C75.8272 14.8743 75.68 15.0724 75.4787 15.2012L26.8422 43.2001C26.7259 43.2691 26.5934 43.306 26.4582 43.3071Z" stroke="#393939"/>
<path d="M38.715 49.5995C38.5542 49.5956 38.398 49.5451 38.2653 49.4542C38.1326 49.3632 38.0291 49.2358 37.9675 49.0872C37.8668 48.8708 37.8492 48.6251 37.9179 48.3966C37.9866 48.1681 38.1369 47.9728 38.3402 47.8479L87.7632 20.4115C87.8627 20.3587 87.9723 20.3274 88.0848 20.3197C88.1972 20.3121 88.31 20.3282 88.4158 20.3671C88.5216 20.4061 88.618 20.4669 88.6987 20.5456C88.7794 20.6243 88.8426 20.7191 88.8841 20.8239C88.9853 21.0405 89.0031 21.2867 88.9342 21.5156C88.8654 21.7445 88.7146 21.9399 88.5107 22.0647L39.0877 49.501C38.974 49.5653 38.8457 49.5992 38.715 49.5995Z" fill="#F8F8F8"/>
<path d="M38.715 49.5995C38.5542 49.5956 38.398 49.5451 38.2653 49.4542C38.1326 49.3632 38.0291 49.2358 37.9675 49.0872C37.8668 48.8708 37.8492 48.6251 37.9179 48.3966C37.9866 48.1681 38.1369 47.9728 38.3402 47.8479L87.7632 20.4115C87.8627 20.3587 87.9723 20.3274 88.0848 20.3197C88.1972 20.3121 88.31 20.3282 88.4158 20.3671C88.5216 20.4061 88.618 20.4669 88.6987 20.5456C88.7794 20.6243 88.8426 20.7191 88.8841 20.8239C88.9853 21.0405 89.0031 21.2867 88.9342 21.5156C88.8654 21.7445 88.7146 21.9399 88.5107 22.0647L39.0877 49.501C38.974 49.5653 38.8457 49.5992 38.715 49.5995Z" stroke="#393939"/>
<path d="M86.0323 84.8406C86.1006 84.8397 86.1673 84.8198 86.2249 84.7832C86.2824 84.7465 86.3286 84.6945 86.3583 84.633C86.4049 84.5418 86.415 84.4364 86.3865 84.338C86.3581 84.2397 86.2933 84.1559 86.2052 84.1037L64.9477 72.0826C64.9046 72.0587 64.8571 72.044 64.8081 72.0392C64.7591 72.0345 64.7096 72.0399 64.6627 72.0552C64.6159 72.0704 64.5727 72.0951 64.5358 72.1277C64.4989 72.1603 64.469 72.2002 64.4482 72.2448C64.4016 72.3358 64.3914 72.4411 64.4196 72.5394C64.4477 72.6377 64.5122 72.7216 64.5998 72.7741L85.8587 84.7917C85.9114 84.8227 85.9712 84.8396 86.0323 84.8406Z" fill="#F8F8F8"/>
<path d="M73.963 91.6752C74.0304 91.6706 74.0948 91.646 74.148 91.6044C74.2012 91.5629 74.2407 91.5063 74.2614 91.4421C74.3036 91.3425 74.3127 91.2321 74.2871 91.127C74.2616 91.0219 74.2029 90.9279 74.1196 90.8589L54.6187 77.7763C54.5781 77.7516 54.5323 77.7367 54.4849 77.7329C54.4375 77.7291 54.3899 77.7365 54.3459 77.7545C54.302 77.7725 54.2628 77.8006 54.2316 77.8365C54.2005 77.8724 54.1782 77.9152 54.1666 77.9613C54.1244 78.0606 54.1153 78.1708 54.1409 78.2757C54.1664 78.3805 54.2252 78.4743 54.3084 78.543L73.8093 91.6256C73.8543 91.6573 73.9079 91.6746 73.963 91.6752V91.6752Z" fill="#F8F8F8"/>
<path d="M61.2618 97.9674C61.4177 97.9595 61.5677 97.9049 61.6922 97.8108C61.8168 97.7167 61.9102 97.5873 61.9604 97.4395C62.055 97.2188 62.0721 96.9727 62.0089 96.7411C61.9457 96.5095 61.806 96.3061 61.6125 96.164L15.4406 67.8739C15.3461 67.8205 15.2408 67.7892 15.1325 67.7822C15.0242 67.7753 14.9157 67.7929 14.8152 67.8338C14.7147 67.8747 14.6248 67.9378 14.5521 68.0183C14.4794 68.0989 14.4258 68.1948 14.3954 68.299C14.2999 68.5195 14.2824 68.766 14.3456 68.9978C14.4088 69.2296 14.5491 69.433 14.7433 69.5744L60.9139 97.8646C61.0181 97.9303 61.1386 97.9659 61.2618 97.9674V97.9674Z" fill="#F8F8F8"/>
<path d="M99.8455 28.3433H3.16211L51.5038 0.81543L99.8455 28.3433Z" fill="#068BE9"/>
<path d="M51.5043 1.63082L5.8389 27.6347H97.1697L51.5043 1.63082ZM51.5043 0L102.522 29.0519H0.486328L51.5043 0Z" fill="#F8F8F8"/>
</svg>
