<svg width="25" height="25" viewBox="0 0 25 25" fill="none" xmlns="http://www.w3.org/2000/svg">
<mask id="mask0_2778_15915" style="mask-type:alpha" maskUnits="userSpaceOnUse" x="14" y="2" width="10" height="9">
<path fill-rule="evenodd" clip-rule="evenodd" d="M14.9747 2.26978H23.5854V10.8743H14.9747V2.26978Z" fill="white"/>
</mask>
<g mask="url(#mask0_2778_15915)">
<path fill-rule="evenodd" clip-rule="evenodd" d="M22.8288 10.8743C22.4487 10.8743 22.1219 10.5889 22.0786 10.2027C21.6964 6.79833 19.0523 4.15631 15.647 3.77816C15.2325 3.73177 14.933 3.35866 14.9794 2.9432C15.0248 2.52875 15.3949 2.2232 15.8144 2.27564C19.9266 2.73244 23.1202 5.92202 23.5811 10.0333C23.6275 10.4487 23.329 10.8229 22.9145 10.8693C22.8863 10.8723 22.8571 10.8743 22.8288 10.8743Z" fill="#123D7E"/>
</g>
<path fill-rule="evenodd" clip-rule="evenodd" d="M19.2589 10.8852C18.904 10.8852 18.5883 10.6352 18.5177 10.2742C18.2273 8.78171 17.0767 7.63113 15.5863 7.34171C15.1759 7.26205 14.9087 6.86575 14.9883 6.45533C15.068 6.04491 15.4713 5.77667 15.8747 5.85734C17.9732 6.26474 19.5937 7.88423 20.0021 9.98373C20.0818 10.3952 19.8145 10.7915 19.4051 10.8711C19.3557 10.8802 19.3073 10.8852 19.2589 10.8852Z" fill="#123D7E"/>
<mask id="mask1_2778_15915" style="mask-type:alpha" maskUnits="userSpaceOnUse" x="2" y="2" width="22" height="21">
<path fill-rule="evenodd" clip-rule="evenodd" d="M2.51724 2.26929H23.1898V22.9421H2.51724V2.26929Z" fill="white"/>
</mask>
<g mask="url(#mask1_2778_15915)">
<path fill-rule="evenodd" clip-rule="evenodd" d="M4.89614 5.35646C4.89816 5.35646 4.84774 5.4089 4.78421 5.47142C4.54018 5.70839 4.03497 6.2015 4.02992 7.2331C4.02186 8.67612 4.97076 11.3555 9.53984 15.9235C14.0867 20.4694 16.762 21.4294 18.2091 21.4294H18.2303C19.2619 21.4234 19.754 20.9181 19.9909 20.6751C20.0625 20.6015 20.121 20.546 20.1624 20.5128C21.1677 19.5013 21.682 18.7501 21.677 18.267C21.6709 17.7749 21.0588 17.1941 20.2128 16.3884C19.9435 16.1333 19.6511 15.8539 19.3425 15.5454C18.5419 14.7477 18.1476 14.8839 17.2753 15.1904C16.0703 15.6129 14.4195 16.1918 11.8471 13.6173C9.27362 11.0449 9.85043 9.39411 10.2709 8.18806C10.5755 7.3168 10.7146 6.9205 9.91497 6.11982C9.60236 5.80722 9.32102 5.51075 9.06186 5.23848C8.26118 4.39747 7.68337 3.7894 7.19429 3.78234H7.18623C6.7032 3.78234 5.95295 4.29865 4.8911 5.36049C4.89413 5.35747 4.89513 5.35646 4.89614 5.35646ZM18.2091 22.9421C15.6962 22.9421 12.4198 20.9414 8.47094 16.9935C4.5059 13.0295 2.5022 9.74311 2.51733 7.22513C2.5264 5.56126 3.39867 4.70916 3.7264 4.3895C3.74355 4.36832 3.80203 4.31084 3.8222 4.29067C5.26926 2.84361 6.26355 2.24866 7.21346 2.26983C8.33985 2.28496 9.14254 3.12899 10.158 4.19689C10.4091 4.46008 10.6804 4.74748 10.9839 5.05C12.4551 6.52227 12.0367 7.72328 11.6988 8.68731C11.3318 9.73908 11.0141 10.6466 12.916 12.5485C14.8178 14.4503 15.7244 14.1327 16.7751 13.7626C17.7402 13.4258 18.9382 13.0043 20.4125 14.4766C20.712 14.7761 20.9943 15.0443 21.2565 15.2934C22.3284 16.3139 23.1755 17.1196 23.1896 18.249C23.2007 19.211 22.6158 20.1932 21.1718 21.6372L20.5325 21.2036L21.074 21.731C20.7543 22.0587 19.9042 22.932 18.2393 22.9421H18.2091Z" fill="#123D7E"/>
</g>
</svg>
