<svg width="264" height="43" viewBox="0 0 264 43" fill="none" xmlns="http://www.w3.org/2000/svg">
<g clip-path="url(#clip0_2461_15798)">
<path d="M51.7891 25.026C51.7891 18.2083 57.0213 13.4194 64.1505 13.4194C68.496 13.4194 71.92 15.0071 74.1089 17.8601L69.3828 22.0757C68.0829 20.4297 66.5298 19.4758 64.5312 19.4758C61.4252 19.4758 59.3314 21.6345 59.3314 25.026C59.3314 28.4176 61.4252 30.5763 64.5312 30.5763C66.5298 30.5763 68.0829 29.6246 69.3828 27.9742L74.1089 32.192C71.9287 35.0472 68.496 36.6326 64.1505 36.6326C57.0213 36.624 51.7891 31.8351 51.7891 25.026Z" fill="#2B2B2B"/>
<path d="M88.4795 18.4521V24.794C87.9561 24.7097 87.4262 24.6664 86.8941 24.6664C84.7376 24.6664 83.2148 25.6506 83.2148 28.4084V36.113H76.0488V18.7701H82.8644V20.6433C84.1341 19.1811 86.0678 18.4521 88.4795 18.4521Z" fill="#2B2B2B"/>
<path d="M108.709 29.107H96.6592C97.1653 30.4394 98.3723 31.1381 100.148 31.1381C101.734 31.1381 102.623 30.725 103.765 29.8662L107.507 33.6407C105.826 35.4792 103.386 36.4309 99.9274 36.4309C93.5553 36.4309 89.4326 32.5938 89.4326 27.4264C89.4326 22.1552 93.6504 18.4521 99.2634 18.4521C104.401 18.4521 108.807 21.5582 108.807 27.4264C108.804 27.9347 108.742 28.5987 108.709 29.107ZM96.5315 25.6527H102.112C101.827 24.1992 100.78 23.3362 99.3218 23.3362C97.8358 23.334 96.8214 24.1906 96.5359 25.6506L96.5315 25.6527Z" fill="#2B2B2B"/>
<path d="M127.738 26.7928V36.1132H121.08V33.8334C120.254 35.5767 118.606 36.4333 116.172 36.4333C111.922 36.4333 109.735 34.0237 109.735 31.041C109.735 27.6797 112.27 25.8087 117.663 25.8087H120.548C120.325 24.4763 119.313 23.7798 117.276 23.7798C115.72 23.7798 113.979 24.2859 112.837 25.1425L110.553 20.4164C112.582 19.1445 115.66 18.4502 118.353 18.4502C124.314 18.4524 127.738 21.0263 127.738 26.7928ZM120.574 30.4786V29.2738H118.798C117.276 29.2738 116.618 29.7799 116.618 30.7273C116.618 31.519 117.252 32.1224 118.331 32.1224C119.304 32.116 120.191 31.612 120.574 30.4786Z" fill="#2B2B2B"/>
<path d="M143.626 35.512C142.517 36.1458 140.899 36.4313 139.218 36.4313C134.429 36.4313 131.639 34.1796 131.639 29.3908V24.9523H129.262V19.7222H131.639V14.8706H138.807V19.7222H142.359V24.9545H138.807V29.3302C138.807 30.4074 139.441 31.0108 140.297 31.0108C140.87 31.0152 141.433 30.8486 141.913 30.535L143.626 35.512Z" fill="#2B2B2B"/>
<path d="M144.706 13.7283C144.706 11.667 146.387 10.0815 149.017 10.0815C151.647 10.0815 153.33 11.5351 153.33 13.6007C153.33 15.781 151.649 17.3751 149.017 17.3751C146.385 17.3751 144.706 15.7897 144.706 13.7283ZM145.433 18.7703H152.601V36.1153H145.435L145.433 18.7703Z" fill="#2B2B2B"/>
<path d="M175.084 18.7707L168.108 36.1157H160.685L153.709 18.7686H161.065L164.556 28.0629L168.298 18.7707H175.084Z" fill="#2B2B2B"/>
<path d="M194.077 29.107H182.027C182.536 30.4394 183.74 31.1381 185.516 31.1381C187.102 31.1381 187.991 30.725 189.133 29.8662L192.875 33.6407C191.194 35.4792 188.754 36.4309 185.296 36.4309C178.923 36.4309 174.801 32.5938 174.801 27.4264C174.801 22.1552 179.019 18.4521 184.632 18.4521C189.769 18.4521 194.177 21.5582 194.177 27.4264C194.175 27.9347 194.11 28.5987 194.077 29.107ZM181.898 25.6527H187.478C187.193 24.1992 186.146 23.3362 184.688 23.3362C183.202 23.334 182.187 24.1906 181.902 25.6506L181.898 25.6527Z" fill="#2B2B2B"/>
<path d="M218.529 13.9189V36.1155H211.045V27.9351H204.128V36.1155H196.648V13.9189H204.128V21.7836H211.034V13.9189H218.529Z" fill="#2B2B2B"/>
<path d="M240.886 18.7705V36.1155H234.069V34.4652C232.769 35.7976 231.025 36.4313 229.161 36.4313C225.006 36.4313 221.867 33.9893 221.867 28.3461V18.7705H229.035V27.111C229.035 29.5855 229.892 30.4074 231.285 30.4074C232.522 30.4074 233.727 29.4903 233.727 26.9207V18.7705H240.886Z" fill="#2B2B2B"/>
<path d="M264.003 27.4272C264.003 33.0077 260.168 36.4317 255.633 36.4317C253.476 36.4317 251.923 35.8607 250.876 34.6862V36.1137H244.061V12.5869H251.227V19.9367C252.273 18.9223 253.731 18.4465 255.635 18.4465C260.168 18.4529 264.003 21.8467 264.003 27.4272ZM256.744 27.4272C256.744 25.1755 255.507 24.0335 253.922 24.0335C252.336 24.0335 251.099 25.1755 251.099 27.4272C251.099 29.6789 252.336 30.8512 253.922 30.8512C255.507 30.8512 256.742 29.6789 256.744 27.4272Z" fill="#2B2B2B"/>
<path d="M20.8793 0.804688C9.34844 0.804688 0 10.1531 0 21.684C0 33.2149 9.34844 42.5634 20.8793 42.5634C32.4102 42.5634 41.7587 33.2192 41.7587 21.684C41.7587 10.1488 32.4081 0.804688 20.8793 0.804688ZM29.382 21.7121C28.7245 22.188 27.9739 22.5189 27.1801 22.6833L27.0503 22.7093V28.3504H22.9277V22.4173L22.2874 22.2659C21.5131 22.0863 20.7128 21.9025 20.0012 21.8592C19.8433 21.8527 19.6854 21.8549 19.5275 21.8679L19.3761 21.8809V32.804H15.2599V23.25L13.9881 24.1542L11.6088 20.7885L12.9325 19.8433C13.5901 19.3675 14.3406 19.0365 15.1344 18.8721L15.2642 18.8462V11.7299H19.3869V17.7517L19.5556 17.7452C19.6508 17.7409 19.7481 17.7409 19.8433 17.7409C19.9839 17.7387 20.1245 17.7452 20.265 17.7604H20.278C21.1064 17.8101 21.9305 17.9356 22.7373 18.1346L22.932 18.1821V11.6888H27.0547V18.3054L28.3265 17.4013L30.7101 20.7648L29.382 21.7121Z" fill="#2B2B2B"/>
</g>
<defs>
<clipPath id="clip0_2461_15798">
<rect width="264" height="42" fill="white" transform="translate(0 0.853516)"/>
</clipPath>
</defs>
</svg>
