<svg width="77" height="76" viewBox="0 0 77 76" fill="none" xmlns="http://www.w3.org/2000/svg">
<path d="M44.467 0.644757C23.926 -2.65061 4.60123 11.3309 1.30587 31.8718C-1.9895 52.4127 11.992 71.7375 32.5329 75.0329C53.0739 78.3283 72.3974 64.3545 75.694 43.8059C78.9906 23.2572 65.0041 3.93951 44.467 0.644757ZM53.6385 40.3189C52.3311 40.9787 50.8995 41.3537 49.4385 41.4197L49.1999 41.4288L47.5877 51.4777L40.2437 50.2995L41.9393 39.7304L40.842 39.2777C39.5139 38.7366 38.1408 38.1804 36.8855 37.9C36.6061 37.8433 36.3242 37.802 36.0392 37.78L35.7658 37.7599L32.6441 57.2181L25.3116 56.0417L28.042 39.0225L25.518 40.2697L22.2414 33.5942L24.8697 32.2887C26.177 31.629 27.6086 31.254 29.0697 31.188L29.3083 31.1788L31.342 18.5021L38.686 19.6803L36.9651 30.4074L37.2675 30.444C37.4383 30.4635 37.6117 30.4913 37.7812 30.5185C38.0323 30.5548 38.2809 30.6066 38.527 30.6737L38.5501 30.6774C40.0116 31.0028 41.4438 31.4618 42.8242 32.0469L43.1573 32.1873L45.013 20.6202L52.3571 21.7984L50.4661 33.5851L52.9901 32.338L56.275 39.0108L53.6385 40.3189Z" fill="#D6D6D6"/>
</svg>
