<svg width="73" height="101" viewBox="0 0 73 101" fill="none" xmlns="http://www.w3.org/2000/svg">
<g clip-path="url(#clip0)">
<path d="M36.4564 100.747L7.27974 92.7177L0.77771 20.428H72.2224L65.7137 92.7066L36.4564 100.747Z" fill="#264DE4"/>
<path d="M60.1414 88.1042L65.7032 26.3386H36.5V94.6011L60.1414 88.1042Z" fill="#2965F1"/>
<path d="M15.6833 53.1499L16.4848 62.0159H36.5V53.1499H15.6833Z" fill="#EBEBEB"/>
<path d="M14.0724 35.2051L14.8854 44.0711H36.5V35.2051H14.0724Z" fill="#EBEBEB"/>
<path d="M36.5 76.1761L36.4608 76.1864L26.4998 73.5202L25.8629 66.4492H16.8844L18.1374 80.3703L36.4588 85.4117L36.5 85.4006V76.1761Z" fill="#EBEBEB"/>
<path d="M17.5919 0.782715H28.4244V5.27334H22.122V9.76397H28.4249V14.2543H17.5919V0.782715Z" fill="#E1E1E1"/>
<path d="M30.5912 0.782715H41.4239V4.68758H35.1213V5.4685H41.4239V14.4498H30.5914V10.3492H36.8941V9.56825H30.5909V0.782715H30.5912Z" fill="#E1E1E1"/>
<path d="M43.5908 0.782715H54.4235V4.68758H48.1209V5.4685H54.4235V14.4498H43.5908V10.3492H49.8934V9.56825H43.591V0.782715H43.5908Z" fill="#E1E1E1"/>
<path d="M57.2596 53.1501L58.8741 35.2051H36.4692V44.0711H49.0722L48.2583 53.1501H36.4692V62.0161H47.4829L46.4444 73.5148L36.4689 76.1837V85.4076L54.8049 80.3703L54.9393 78.8724L57.0414 55.5309L57.2596 53.1501Z" fill="#3F3E44"/>
</g>
<defs>
<clipPath id="clip0">
<rect width="71.694" height="100.217" fill="white" transform="translate(0.653015 0.782715)"/>
</clipPath>
</defs>
</svg>
