<svg width="72" height="100" viewBox="0 0 72 100" fill="none" xmlns="http://www.w3.org/2000/svg">
<path d="M71.0761 20.4399L64.6852 92.0358L35.9572 100L7.30838 92.0468L0.923981 20.4399H71.0761Z" fill="#E44D26"/>
<path d="M36.0002 93.912L59.2138 87.4765L64.6751 26.2944H36.0002V93.912Z" fill="#F16529"/>
<path d="M23.5761 43.8594H36.0001V35.0771H13.9782L14.1883 37.4332L16.347 61.6349H36.0001V52.8526H24.3788L23.5761 43.8594Z" fill="#EBEBEB"/>
<path d="M25.5554 66.0264H16.7393L17.9696 79.8159L35.9596 84.8097L36 84.7987V75.6614L35.9615 75.6716L26.1808 73.0306L25.5554 66.0264Z" fill="#EBEBEB"/>
<path d="M7.45087 0.97998H11.9139V5.38941H15.9967V0.97998H20.46V14.3328H15.9969V9.86154H11.9142V14.3328H7.45114V0.97998H7.45087Z" fill="#E1E1E1"/>
<path d="M26.3287 5.40811H22.4002V0.97998H34.7235V5.40811H30.7926V14.3328H26.3295V5.40811H26.3292H26.3287Z" fill="#E1E1E1"/>
<path d="M36.6792 0.97998H41.3328L44.1954 5.67182L47.0553 0.97998H51.7109V14.3328H47.266V7.71443L44.1954 12.4621H44.1184L41.046 7.71443V14.3328H36.6792V0.97998Z" fill="#E1E1E1"/>
<path d="M53.9321 0.97998H58.3965V9.91929H64.6729V14.3328H53.9318V0.97998H53.9321Z" fill="#E1E1E1"/>
<path d="M35.9697 61.6351H46.7842L45.7645 73.0251L35.9695 75.6688V84.8056L53.9737 79.8159L54.1057 78.3321L56.1698 55.2111L56.384 52.8528H35.9697V61.6351Z" fill="#3F3E44"/>
<path d="M35.9698 43.838V43.8594H57.1832L57.3591 41.8856L57.7595 37.4332L57.9693 35.0771H35.9698V43.8383V43.838Z" fill="#3F3E44"/>
</svg>
