<svg width="74" height="73" viewBox="0 0 74 73" fill="none" xmlns="http://www.w3.org/2000/svg">
<g clip-path="url(#clip0)">
<path d="M0.5 0H73.5V73H0.5V0Z" fill="#F7DF1E"/>
<path d="M19.6944 61.0041L25.2806 57.6233C26.3585 59.5341 27.3389 61.1509 29.6906 61.1509C31.9447 61.1509 33.3662 60.2692 33.3662 56.8394V33.5142H40.2262V56.9363C40.2262 64.0416 36.0612 67.2758 29.9846 67.2758C24.4967 67.2758 21.3112 64.4337 19.6941 61.0035" fill="#3F3E44"/>
<path d="M43.9525 60.269L49.5381 57.035C51.0087 59.4363 52.9198 61.2003 56.3006 61.2003C59.1433 61.2003 60.9558 59.7791 60.9558 57.8189C60.9558 55.467 59.0937 54.6337 55.9575 53.2621L54.2429 52.5264C49.2934 50.42 46.0104 47.7737 46.0104 42.1875C46.0104 37.0422 49.9305 33.1218 56.0559 33.1218C60.4171 33.1218 63.5532 34.6411 65.8071 38.6102L60.4656 42.0407C59.2893 39.9336 58.0158 39.1007 56.0556 39.1007C54.0464 39.1007 52.7723 40.3748 52.7723 42.0407C52.7723 44.0986 54.0464 44.9321 56.9864 46.2062L58.7013 46.9411C64.5328 49.4405 67.8158 51.9883 67.8158 57.7211C67.8158 63.8959 62.9647 67.2767 56.4474 67.2767C50.0773 67.2767 45.9611 64.2386 43.9522 60.2693" fill="#3F3E44"/>
</g>
<defs>
<clipPath id="clip0">
<rect width="73" height="73" fill="white" transform="translate(0.5)"/>
</clipPath>
</defs>
</svg>
