<svg width="105" height="105" viewBox="0 0 105 105" fill="none" xmlns="http://www.w3.org/2000/svg">
<path d="M84.2481 46.101H73.6398C73.6134 44.7116 73.043 43.3881 72.0511 42.4149C71.0593 41.4417 69.7252 40.8966 68.3356 40.8966C66.9461 40.8966 65.6119 41.4417 64.6201 42.4149C63.6282 43.3881 63.0578 44.7116 63.0314 46.101H52.4231V35.5213C51.0338 35.4949 49.7103 34.9245 48.7371 33.9327C47.7639 32.9408 47.2188 31.6067 47.2188 30.2172C47.2188 28.8276 47.7639 27.4935 48.7371 26.5017C49.7103 25.5098 51.0338 24.9394 52.4231 24.913V14.3047C60.8591 14.3044 68.9502 17.6531 74.9186 23.6149C80.8871 29.5767 84.2447 37.6641 84.2538 46.1L84.2481 46.101Z" fill="#068BE9"/>
<path d="M80.8437 28.6564C80.7399 28.4802 80.602 28.3266 80.438 28.2043C80.2741 28.0821 80.0874 27.9938 79.8889 27.9446C79.6904 27.8954 79.4841 27.8862 79.2821 27.9177C79.08 27.9492 78.8863 28.0207 78.7122 28.128C78.5381 28.2353 78.3871 28.3763 78.2681 28.5426C78.1492 28.7089 78.0646 28.8973 78.0194 29.0967C77.9741 29.2962 77.969 29.5026 78.0045 29.704C78.04 29.9054 78.1154 30.0977 78.2261 30.2697C80.8833 34.587 82.4107 39.5039 82.6672 44.567H74.9939C74.6397 43.0667 73.7894 41.73 72.5806 40.7733C71.3719 39.8167 69.8756 39.2961 68.3341 39.2961C66.7925 39.2961 65.2962 39.8167 64.0875 40.7733C62.8787 41.73 62.0284 43.0667 61.6742 44.567H53.956V35.5279C53.956 35.3261 53.9162 35.1264 53.839 34.94C53.7617 34.7536 53.6486 34.5842 53.5058 34.4416C53.3631 34.299 53.1937 34.1859 53.0072 34.1088C52.8208 34.0316 52.6209 33.992 52.4192 33.9921C51.4303 33.9763 50.4872 33.5725 49.7934 32.8676C49.0997 32.1627 48.7109 31.2133 48.7109 30.2242C48.7109 29.2352 49.0997 28.2858 49.7934 27.5809C50.4872 26.876 51.4303 26.4721 52.4192 26.4564C52.8268 26.4564 53.2177 26.2945 53.5059 26.0063C53.7941 25.7181 53.956 25.3272 53.956 24.9196V15.8834C61.6809 16.2473 68.9674 19.5788 74.2962 25.1834C74.4355 25.3305 74.6025 25.4485 74.7876 25.5308C74.9727 25.6131 75.1722 25.658 75.3747 25.6629C75.5772 25.6678 75.7787 25.6326 75.9675 25.5594C76.1564 25.4862 76.329 25.3763 76.4752 25.2362C76.6215 25.096 76.7385 24.9284 76.8198 24.7428C76.901 24.5573 76.9447 24.3575 76.9484 24.155C76.9522 23.9524 76.9159 23.7511 76.8415 23.5627C76.7672 23.3743 76.6563 23.2024 76.5153 23.057C73.4131 19.7952 69.6778 17.2007 65.5382 15.4324C61.3986 13.664 56.9417 12.7589 52.4402 12.7726H52.3991C44.3149 12.7692 36.5042 15.7003 30.4179 21.0213C30.1204 21.2924 29.941 21.6694 29.9183 22.0712C29.8956 22.4731 30.0314 22.8678 30.2965 23.1707C30.5616 23.4736 30.9349 23.6605 31.3362 23.6912C31.7376 23.7219 32.135 23.5941 32.4431 23.335C37.577 18.8456 44.0763 16.2209 50.8882 15.8863V23.5578C49.3805 23.9058 48.0354 24.7545 47.0722 25.9654C46.109 27.1764 45.5846 28.6779 45.5846 30.2252C45.5846 31.7725 46.109 33.2741 47.0722 34.485C48.0354 35.6959 49.3805 36.5446 50.8882 36.8927V44.5679H41.8166C41.6147 44.5679 41.4148 44.6077 41.2283 44.685C41.0418 44.7623 40.8724 44.8756 40.7297 45.0184C40.5869 45.1612 40.4738 45.3307 40.3966 45.5172C40.3194 45.7038 40.2797 45.9037 40.2799 46.1056V46.142C40.2799 47.1414 39.8828 48.0999 39.1761 48.8066C38.4694 49.5133 37.511 49.9103 36.5115 49.9103C35.5121 49.9103 34.5536 49.5133 33.8469 48.8066C33.1402 48.0999 32.7432 47.1414 32.7432 46.142V46.1056C32.7432 45.9037 32.7034 45.7037 32.6261 45.5172C32.5489 45.3306 32.4356 45.1611 32.2928 45.0183C32.15 44.8755 31.9805 44.7622 31.7939 44.685C31.6074 44.6077 31.4074 44.5679 31.2055 44.5679H22.1636C22.449 38.5835 24.5186 32.8213 28.1061 28.0228C28.2269 27.861 28.3146 27.677 28.3642 27.4814C28.4138 27.2857 28.4244 27.0822 28.3954 26.8824C28.3664 26.6827 28.2983 26.4906 28.195 26.3171C28.0918 26.1437 27.9554 25.9922 27.7936 25.8715C27.6318 25.7507 27.4478 25.6631 27.2522 25.6134C27.0565 25.5638 26.853 25.5532 26.6532 25.5822C26.4535 25.6112 26.2614 25.6793 26.0879 25.7826C25.9145 25.8858 25.7631 26.0222 25.6423 26.184C21.3442 31.9349 19.03 38.9261 19.048 46.1056C18.7412 58.784 26.8312 70.9482 38.1496 76.3059C38.7853 76.6129 39.3214 77.0931 39.6962 77.6913C40.071 78.2894 40.2693 78.9812 40.2684 79.6871V82.7492C37.1146 82.7492 34.9623 84.4389 34.9623 87.4685C34.9623 90.4981 37.0438 92.1916 40.2684 92.1887V99.1844C40.3176 100.696 40.9402 102.132 42.0097 103.202C43.0793 104.271 44.5158 104.894 46.0274 104.943H58.8033C60.3151 104.894 61.7516 104.272 62.8213 103.202C63.8909 102.133 64.5134 100.696 64.5624 99.1844V92.1887C68.1625 92.1887 69.8704 90.2773 69.8685 87.4685C69.8685 84.5393 68.0259 82.7492 64.5624 82.7492V79.691C64.5628 78.9829 64.7631 78.2894 65.1403 77.6902C65.5176 77.091 66.0563 76.6105 66.6945 76.304C72.3706 73.5439 77.1642 69.2552 80.5364 63.9201C83.9087 58.585 85.7259 52.415 85.7837 46.1038C85.7832 39.9429 84.0731 33.903 80.8437 28.6564V28.6564ZM39.4675 73.5305C34.5218 71.1703 30.3045 67.5196 27.26 62.963C24.2156 58.4065 22.4569 53.113 22.1693 47.6405H29.8273C30.1683 49.1568 31.0152 50.5119 32.2288 51.4828C33.4423 52.4537 34.9502 52.9827 36.5044 52.9827C38.0585 52.9827 39.5663 52.4537 40.7799 51.4828C41.9934 50.5119 42.8404 49.1568 43.1814 47.6405H50.8824V56.7484C50.8823 56.9504 50.922 57.1503 50.9992 57.3369C51.0764 57.5236 51.1897 57.6932 51.3325 57.836C51.4753 57.9788 51.6449 58.092 51.8315 58.1693C52.0182 58.2465 52.2182 58.2862 52.4202 58.2861C53.4193 58.2861 54.3776 58.683 55.0841 59.3895C55.7906 60.096 56.1876 61.0543 56.1876 62.0535C56.1876 63.0526 55.7906 64.0109 55.0841 64.7174C54.3776 65.4239 53.4193 65.8209 52.4202 65.8209C52.2182 65.8207 52.0182 65.8604 51.8315 65.9376C51.6449 66.0149 51.4753 66.1281 51.3325 66.2709C51.1897 66.4138 51.0764 66.5833 50.9992 66.77C50.922 66.9566 50.8823 67.1566 50.8824 67.3586V82.7492H43.3467V79.691C43.3458 78.4035 42.9814 77.1425 42.2955 76.053C41.6096 74.9634 40.63 74.0898 39.4694 73.5325L39.4675 73.5305ZM58.8062 101.873H46.0294C44.0759 101.873 43.2483 100.133 43.3448 98.5938H61.4907C61.4907 100.234 60.9747 101.873 58.8062 101.873ZM65.1492 89.119H55.6476C55.4456 89.1189 55.2456 89.1585 55.059 89.2358C54.8723 89.313 54.7028 89.4263 54.5599 89.5691C54.4171 89.7119 54.3039 89.8815 54.2266 90.0681C54.1494 90.2547 54.1097 90.4547 54.1099 90.6567V90.6768C54.1097 90.8788 54.1494 91.0788 54.2266 91.2654C54.3039 91.452 54.4171 91.6216 54.5599 91.7644C54.7028 91.9072 54.8723 92.0205 55.059 92.0977C55.2456 92.175 55.4456 92.2146 55.6476 92.2145H61.4898V95.5203H43.3448V92.2107H48.95C49.3579 92.2107 49.7489 92.0487 50.0373 91.7603C50.3257 91.4719 50.4877 91.0808 50.4877 90.673C50.4877 90.673 50.4877 90.6663 50.4877 90.6634C50.4877 90.6606 50.4877 90.6557 50.4877 90.6529C50.4877 90.245 50.3257 89.8539 50.0373 89.5656C49.7489 89.2772 49.3579 89.1152 48.95 89.1152H39.6863C39.4539 89.1427 39.2183 89.1206 38.9951 89.0504C38.7718 88.9803 38.5659 88.8636 38.3909 88.7081C38.216 88.5527 38.0759 88.3619 37.98 88.1484C37.8841 87.9349 37.8346 87.7035 37.8346 87.4694C37.8346 87.2354 37.8841 87.004 37.98 86.7905C38.0759 86.577 38.216 86.3862 38.3909 86.2308C38.5659 86.0753 38.7718 85.9586 38.9951 85.8885C39.2183 85.8183 39.4539 85.7962 39.6863 85.8237H65.1492C65.37 85.8162 65.5901 85.8532 65.7963 85.9325C66.0026 86.0118 66.1907 86.1318 66.3496 86.2854C66.5085 86.439 66.6349 86.623 66.7212 86.8264C66.8075 87.0298 66.852 87.2485 66.852 87.4694C66.852 87.6904 66.8075 87.9091 66.7212 88.1125C66.6349 88.3159 66.5085 88.4999 66.3496 88.6535C66.1907 88.8071 66.0026 88.9271 65.7963 89.0064C65.5901 89.0857 65.37 89.1227 65.1492 89.1152V89.119ZM65.3795 73.5257C64.2166 74.0828 63.2347 74.9569 62.5467 76.0474C61.8587 77.138 61.4927 78.4006 61.4907 79.69V82.7492H53.955V68.7185C55.4634 68.3713 56.8093 67.5229 57.7732 66.3119C58.7371 65.1009 59.2619 63.5988 59.2619 62.0511C59.2619 60.5033 58.7371 59.0013 57.7732 57.7903C56.8093 56.5793 55.4634 55.7308 53.955 55.3836V47.6424H63.0265C63.433 47.6427 63.823 47.4819 64.1111 47.1954C64.3993 46.9088 64.5622 46.5197 64.5643 46.1133C64.5643 45.1139 64.9613 44.1554 65.668 43.4487C66.3747 42.742 67.3332 42.3449 68.3326 42.3449C69.332 42.3449 70.2905 42.742 70.9972 43.4487C71.7039 44.1554 72.101 45.1139 72.101 46.1133C72.1033 46.5197 72.2663 46.9086 72.5544 47.1951C72.8425 47.4816 73.2323 47.6424 73.6387 47.6424H82.6691C82.3813 53.1129 80.6235 58.4044 77.5809 62.9598C74.5383 67.5151 70.3235 71.1656 65.3804 73.5267L65.3795 73.5257Z" fill="white"/>
<path d="M52.4192 9.44095C52.2173 9.44095 52.0174 9.40117 51.8309 9.32388C51.6443 9.24659 51.4749 9.13332 51.3322 8.99052C51.1895 8.84771 51.0763 8.67817 50.9991 8.49161C50.9219 8.30505 50.8823 8.10511 50.8824 7.90322V1.53727C50.8824 1.12956 51.0444 0.738551 51.3326 0.450261C51.6209 0.161971 52.012 0 52.4197 0C52.8274 0 53.2184 0.161971 53.5067 0.450261C53.795 0.738551 53.9569 1.12956 53.9569 1.53727V7.90322C53.957 8.10519 53.9173 8.30522 53.8401 8.49184C53.7629 8.67846 53.6496 8.84799 53.5068 8.99081C53.364 9.13363 53.1944 9.24694 53.0078 9.32417C52.8211 9.40141 52.6212 9.44108 52.4192 9.44095Z" fill="white"/>
<path d="M73.9252 15.2038C73.7498 15.1031 73.596 14.9688 73.4727 14.8084C73.3493 14.6481 73.2589 14.465 73.2066 14.2696C73.1543 14.0742 73.1411 13.8704 73.1678 13.6699C73.1946 13.4694 73.2607 13.2762 73.3623 13.1013L76.5458 7.58782C76.7497 7.23473 77.0855 6.97716 77.4793 6.87168C77.8732 6.7662 78.2928 6.82147 78.6459 7.02538C78.999 7.2293 79.2566 7.56512 79.3621 7.95898C79.4676 8.35284 79.4123 8.77247 79.2084 9.12555L76.0249 14.639C75.8014 14.9708 75.4654 15.2106 75.079 15.3141C74.6926 15.4175 74.2817 15.3777 73.9224 15.2019L73.9252 15.2038Z" fill="white"/>
<path d="M89.6709 30.9492C89.5695 30.7743 89.5036 30.581 89.477 30.3806C89.4505 30.1801 89.4637 29.9764 89.516 29.7811C89.5683 29.5858 89.6586 29.4027 89.7818 29.2424C89.905 29.082 90.0586 28.9475 90.2338 28.8466L95.7463 25.6642C95.9211 25.5632 96.114 25.4976 96.3141 25.4712C96.5142 25.4448 96.7176 25.4581 96.9126 25.5102C97.1075 25.5624 97.2903 25.6525 97.4505 25.7754C97.6107 25.8982 97.745 26.0513 97.846 26.2261C97.947 26.4009 98.0125 26.5938 98.0389 26.7939C98.0653 26.994 98.052 27.1973 97.9999 27.3923C97.9477 27.5873 97.8576 27.7701 97.7348 27.9302C97.612 28.0904 97.4588 28.2248 97.2841 28.3258L91.7716 31.5092C91.4147 31.6977 90.9998 31.7445 90.6099 31.6401C90.22 31.5357 89.884 31.2879 89.669 30.9463L89.6709 30.9492Z" fill="white"/>
<path d="M6.98966 78.6847C6.79119 78.3299 6.73899 77.9118 6.84412 77.5191C6.94925 77.1264 7.20345 76.7903 7.55262 76.5822L13.0651 73.3987C13.4182 73.1949 13.8377 73.1398 14.2315 73.2453C14.6253 73.3509 14.961 73.6085 15.1648 73.9616C15.3685 74.3147 15.4237 74.7343 15.3182 75.128C15.2126 75.5218 14.9549 75.8575 14.6019 76.0613L9.08936 79.2447C8.91823 79.3598 8.72445 79.4369 8.52103 79.4708C8.31762 79.5047 8.10933 79.4947 7.91013 79.4413C7.71093 79.388 7.52545 79.2926 7.36619 79.1616C7.20693 79.0306 7.07754 78.867 6.9868 78.6818L6.98966 78.6847Z" fill="white"/>
<path d="M28.8112 14.643L25.6278 9.12946C25.4239 8.77638 25.3686 8.35674 25.4741 7.96289C25.5795 7.56903 25.8371 7.23321 26.1902 7.02929C26.5433 6.82537 26.9629 6.77011 27.3568 6.87559C27.7506 6.98106 28.0865 7.23864 28.2904 7.59172L31.4738 13.1052C31.6723 13.46 31.7245 13.8781 31.6194 14.2708C31.5143 14.6635 31.2601 14.9996 30.9109 15.2078C30.5539 15.3958 30.1392 15.4423 29.7494 15.338C29.3597 15.2336 29.0236 14.9861 28.8084 14.6448L28.8112 14.643Z" fill="white"/>
<path d="M13.0652 31.5111L7.5527 28.3286C7.19962 28.1247 6.94199 27.7889 6.83651 27.395C6.73103 27.0012 6.78636 26.5815 6.99027 26.2284C7.19419 25.8754 7.53001 25.6178 7.92387 25.5123C8.31772 25.4068 8.73736 25.4621 9.09044 25.666L14.6029 28.8485C14.7859 28.9416 14.9472 29.0721 15.0765 29.2316C15.2057 29.3911 15.2999 29.576 15.353 29.7743C15.4061 29.9726 15.4169 30.1799 15.3846 30.3826C15.3524 30.5854 15.2778 30.779 15.1658 30.9511C14.9569 31.2993 14.6207 31.5527 14.2284 31.6577C13.8361 31.7627 13.4183 31.7112 13.0633 31.514L13.0652 31.5111Z" fill="white"/>
<path d="M95.7457 79.2465L90.2332 76.063C90.0584 75.962 89.9051 75.8276 89.7822 75.6674C89.6594 75.5072 89.5692 75.3244 89.517 75.1294C89.4648 74.9343 89.4515 74.731 89.4779 74.5308C89.5043 74.3307 89.5698 74.1377 89.6708 73.9629C89.7717 73.788 89.9061 73.6348 90.0663 73.5119C90.2265 73.389 90.4094 73.2989 90.6044 73.2467C90.7994 73.1944 91.0028 73.1811 91.2029 73.2075C91.4031 73.2339 91.5961 73.2995 91.7709 73.4004L97.2834 76.5839C97.4611 76.6824 97.617 76.8156 97.742 76.9757C97.8671 77.1358 97.9586 77.3194 98.0111 77.5156C98.0637 77.7119 98.0761 77.9167 98.0478 78.1178C98.0195 78.3189 97.951 78.5123 97.8463 78.6864C97.7593 78.875 97.6319 79.0423 97.473 79.1761C97.3141 79.31 97.1277 79.4072 96.927 79.4609C96.7264 79.5146 96.5163 79.5235 96.3118 79.487C96.1073 79.4504 95.9134 79.3693 95.7438 79.2493L95.7457 79.2465Z" fill="white"/>
<path d="M7.86536 53.9929H1.49941C1.09834 53.9829 0.717089 53.8166 0.436961 53.5294C0.156834 53.2422 0 52.8569 0 52.4557C0 52.0545 0.156834 51.6692 0.436961 51.382C0.717089 51.0948 1.09834 50.9285 1.49941 50.9185H7.86536C8.26643 50.9285 8.64768 51.0948 8.92781 51.382C9.20794 51.6692 9.36471 52.0545 9.36471 52.4557C9.36471 52.8569 9.20794 53.2422 8.92781 53.5294C8.64768 53.8166 8.26643 53.9829 7.86536 53.9929V53.9929Z" fill="white"/>
<path d="M103.336 53.9929H96.9696C96.5686 53.9829 96.1873 53.8166 95.9072 53.5294C95.627 53.2422 95.4702 52.8569 95.4702 52.4557C95.4702 52.0545 95.627 51.6692 95.9072 51.382C96.1873 51.0948 96.5686 50.9285 96.9696 50.9185H103.336C103.737 50.9285 104.118 51.0948 104.398 51.382C104.678 51.6692 104.835 52.0545 104.835 52.4557C104.835 52.8569 104.678 53.2422 104.398 53.5294C104.118 53.8166 103.737 53.9829 103.336 53.9929V53.9929Z" fill="white"/>
</svg>
