<svg width="42" height="41" viewBox="0 0 42 41" fill="none" xmlns="http://www.w3.org/2000/svg">
<path d="M38.0457 20.4875C38.0457 29.8892 30.3857 37.5455 20.9795 37.5455C11.5733 37.5455 3.91327 29.8892 3.91327 20.4875C3.91327 11.0694 11.5733 3.41309 20.9795 3.41309C30.3857 3.41309 38.0457 11.0694 38.0457 20.4875Z" fill="url(#paint0_linear_1377_18314)"/>
<path d="M27.806 20.4876C27.806 20.9189 27.6702 21.3519 27.3987 21.6986C27.3478 21.7666 27.1102 22.047 26.9236 22.2295L26.8218 22.329C25.3963 23.8403 21.8498 26.113 20.051 26.8413C20.051 26.8579 18.982 27.2909 18.4729 27.3058H18.405C17.6244 27.3058 16.8947 26.8761 16.5214 26.1794C16.3178 25.7962 16.1311 24.6847 16.1142 24.6698C15.9614 23.6728 15.8596 22.1465 15.8596 20.471C15.8596 18.7142 15.9614 17.12 16.1481 16.1412C16.1481 16.1246 16.3348 15.2288 16.4535 14.9302C16.6402 14.5005 16.9796 14.1339 17.4038 13.9017C17.7432 13.7374 18.0996 13.6528 18.4729 13.6528C18.8632 13.6711 19.5929 13.9183 19.8813 14.0344C21.7819 14.7643 25.4133 17.1532 26.8048 18.613C27.0424 18.8453 27.2969 19.129 27.3648 19.1936C27.6532 19.5586 27.806 20.0065 27.806 20.4876Z" fill="#F8F8F8"/>
<defs>
<linearGradient id="paint0_linear_1377_18314" x1="43.9919" y1="-2.7573" x2="-13.2913" y2="41.2704" gradientUnits="userSpaceOnUse">
<stop stop-color="#4F9FF1"/>
<stop offset="1" stop-color="#001F49"/>
</linearGradient>
</defs>
</svg>
