<svg width="96" height="85" viewBox="0 0 96 85" fill="none" xmlns="http://www.w3.org/2000/svg">
<path d="M78.9311 27.5502C77.9095 27.2014 76.8791 26.8782 75.8411 26.581C76.0155 25.872 76.176 25.1715 76.3185 24.4834C78.6578 13.1828 77.1285 4.07889 71.9051 1.08144C66.897 -1.79212 58.7066 1.20421 50.4349 8.36832C49.6197 9.07563 48.8225 9.80334 48.0443 10.5507C47.5232 10.0537 46.993 9.56639 46.4539 9.08895C37.7846 1.42887 29.0951 -1.79958 23.8774 1.20645C18.8738 4.08896 17.3921 12.6473 19.4981 23.3571C19.7076 24.4178 19.9442 25.473 20.2076 26.5217C18.9776 26.8695 17.7907 27.2397 16.6549 27.6338C6.49087 31.1604 0 36.687 0 42.4195C0 48.3402 6.96825 54.2787 17.5545 57.8796C18.4127 58.1704 19.2781 58.4398 20.1499 58.6876C19.8668 59.8171 19.6154 60.9543 19.3961 62.0978C17.3884 72.6217 18.9562 80.9778 23.9464 83.842C29.1004 86.7999 37.7509 83.7599 46.1737 76.4323C46.8568 75.8366 47.5247 75.224 48.177 74.5951C49.0198 75.4044 49.8852 76.1901 50.772 76.9514C58.9312 83.9383 66.9893 86.7596 71.9745 83.8875C77.1236 80.9211 78.7972 71.9444 76.6245 61.023C76.4533 60.1674 76.2614 59.316 76.0489 58.4696C76.6564 58.2905 77.2526 58.1062 77.8339 57.9143C88.8394 54.2858 96 48.4193 96 42.4195C96 36.6661 89.2995 31.1022 78.9311 27.5502ZM76.5443 54.0406C76.0192 54.2134 75.4808 54.3802 74.9317 54.5426C73.7168 50.7148 72.0772 46.6448 70.0706 42.4393C71.9854 38.3342 73.5619 34.3161 74.7428 30.5133C75.7249 30.7962 76.6777 31.0944 77.5965 31.409C86.4802 34.4527 91.899 38.9522 91.899 42.4195C91.899 46.1126 86.0467 50.907 76.5443 54.0406ZM72.6015 61.8157C73.5622 66.6447 73.6991 71.011 73.0628 74.4246C72.4912 77.4918 71.3415 79.5365 69.9195 80.3557C66.8944 82.0985 60.4245 79.8332 53.4469 73.8577C52.622 73.1499 51.8171 72.4194 51.033 71.6671C53.7383 68.723 56.4416 65.3005 59.0801 61.4992C63.7211 61.0894 68.1056 60.4192 72.0817 59.5045C72.2775 60.2908 72.4515 61.0618 72.6015 61.8157ZM32.7285 80.0545C29.7728 81.0931 27.4185 81.1229 25.9954 80.3064C22.9672 78.5685 21.7084 71.8589 23.4255 62.8591C23.6296 61.7956 23.8633 60.738 24.1264 59.6874C28.0586 60.5532 32.4113 61.1756 37.0631 61.5511C39.7196 65.2706 42.501 68.6894 45.3041 71.6831C44.7084 72.2568 44.0986 72.8157 43.4753 73.3595C39.7504 76.5995 36.018 78.8984 32.7285 80.0545ZM18.8812 54.0179C14.2001 52.4255 10.3343 50.3562 7.6845 48.098C5.30325 46.069 4.10138 44.0541 4.10138 42.4195C4.10138 38.9407 9.31275 34.5035 18.0049 31.4877C19.0597 31.122 20.1637 30.7768 21.3094 30.4529C22.5109 34.3415 24.0866 38.4074 25.9883 42.5188C24.0619 46.6911 22.4636 50.8219 21.2505 54.7564C20.4548 54.5296 19.6648 54.2833 18.8812 54.0179ZM23.523 22.573C21.7189 13.3974 22.917 6.47588 25.9324 4.73868C29.1439 2.88842 36.2456 5.52649 43.731 12.1409C44.2191 12.5732 44.6993 13.0142 45.1714 13.4638C42.3821 16.4445 39.6263 19.8379 36.9934 23.5355C32.4784 23.9519 28.1565 24.6207 24.183 25.5167C23.9382 24.5413 23.7181 23.5598 23.523 22.5734V22.573ZM64.9331 32.7491C63.9946 31.1358 63.0212 29.5428 62.0137 27.9712C65.0768 28.3567 68.0115 28.8683 70.7674 29.4938C69.9401 32.133 68.9089 34.892 67.695 37.7207C66.8077 36.0454 65.8869 34.3879 64.9331 32.7491ZM48.0461 16.3807C49.9376 18.4202 51.8321 20.697 53.6955 23.1675C49.9155 22.9898 46.1292 22.9891 42.3491 23.1652C44.2144 20.7175 46.125 18.4437 48.0461 16.3807ZM31.0508 32.7771C30.1089 34.4026 29.2053 36.0499 28.3406 37.7174C27.1466 34.8987 26.1248 32.127 25.2904 29.4505C28.0294 28.8407 30.9503 28.3421 33.9938 27.9637C32.975 29.5449 31.9938 31.1497 31.0508 32.7767V32.7771ZM34.0811 57.1657C30.9368 56.8164 27.972 56.3436 25.2337 55.7502C26.0813 53.0259 27.1256 50.1953 28.3455 47.3162C29.2136 48.9849 30.1209 50.6331 31.0669 52.2594C32.0396 53.9313 33.0469 55.5689 34.0811 57.1657ZM48.1594 68.7458C46.2154 66.6589 44.2766 64.35 42.3833 61.8668C44.2215 61.9384 46.0954 61.975 48 61.975C49.9567 61.975 51.891 61.9313 53.7949 61.847C51.9255 64.375 50.0381 66.6873 48.1594 68.7458ZM67.7336 47.1691C69.0169 50.08 70.0984 52.8957 70.9571 55.5733C68.1739 56.2055 65.1686 56.7145 62.0021 57.0926C63.0168 55.4918 63.9994 53.8711 64.9492 52.2314C65.915 50.5648 66.8434 48.8769 67.7336 47.1691ZM61.3969 50.1923C59.9427 52.7063 58.4068 55.1725 56.7915 57.5871C53.8656 57.7933 50.9332 57.8957 48 57.8942C45.0124 57.8942 42.1065 57.8016 39.3083 57.621C37.6508 55.212 36.0856 52.7415 34.6159 50.2147H34.6162C33.1534 47.7013 31.7871 45.1335 30.5201 42.5169C31.7839 39.8997 33.1461 37.3308 34.6039 34.8155L34.6035 34.8158C36.0607 32.2999 37.6135 29.8399 39.2584 27.4412C42.1133 27.2263 45.0409 27.1143 47.9996 27.1143H48C50.9723 27.1143 53.9036 27.2274 56.7578 27.4439C58.386 29.8389 59.9289 32.2904 61.3834 34.7938C62.846 37.3036 64.2263 39.86 65.5219 42.4591C64.2396 45.0848 62.8637 47.6641 61.3969 50.1923ZM69.8569 4.61702C73.0714 6.46207 74.3216 13.9023 72.3019 23.6593C72.1729 24.2818 72.0281 24.9159 71.8706 25.5589C67.8874 24.6438 63.5625 23.9635 59.0344 23.5407C56.3966 19.8024 53.6632 16.4038 50.9194 13.4616C51.6385 12.7718 52.3747 12.0998 53.1274 11.4464C60.2149 5.30854 66.8389 2.88506 69.8569 4.61702ZM48 33.8885C52.7344 33.8885 56.5725 37.708 56.5725 42.4195C56.5725 47.1311 52.7344 50.9506 48 50.9506C43.2656 50.9506 39.4275 47.1311 39.4275 42.4195C39.4275 37.708 43.2656 33.8885 48 33.8885Z" fill="#00D8FF"/>
</svg>
