<svg width="106" height="76" viewBox="0 0 106 76" fill="none" xmlns="http://www.w3.org/2000/svg">
<path d="M98.7102 51.6683C98.2738 51.5206 97.8338 51.3837 97.3905 51.2579C97.465 50.9575 97.5335 50.6609 97.5944 50.3694C98.5934 45.5833 97.9403 41.7275 95.7095 40.458C93.5706 39.241 90.0726 40.51 86.5399 43.5442C86.1917 43.8438 85.8513 44.152 85.5189 44.4685C85.2964 44.2581 85.0699 44.0516 84.8397 43.8494C81.1372 40.6052 77.426 39.2378 75.1976 40.511C73.0607 41.7318 72.4279 45.3565 73.3273 49.8924C73.4168 50.3416 73.5178 50.7886 73.6303 51.2327C73.105 51.38 72.5981 51.5368 72.113 51.7037C67.7721 53.1974 65 55.538 65 57.9659C65 60.4735 67.976 62.9886 72.4972 64.5137C72.8638 64.6369 73.2334 64.751 73.6057 64.8559C73.4848 65.3343 73.3774 65.8159 73.2838 66.3002C72.4263 70.7574 73.0959 74.2965 75.2271 75.5096C77.4283 76.7623 81.1228 75.4748 84.72 72.3713C85.0117 72.119 85.297 71.8596 85.5756 71.5932C85.9356 71.936 86.3051 72.2688 86.6839 72.5912C90.1686 75.5503 93.61 76.7452 95.7391 75.5288C97.9382 74.2724 98.653 70.4706 97.725 65.845C97.6519 65.4827 97.57 65.1221 97.4792 64.7636C97.7387 64.6877 97.9933 64.6097 98.2416 64.5284C102.942 62.9916 106 60.507 106 57.9659C106 55.5292 103.138 53.1727 98.7102 51.6683ZM97.6908 62.8878C97.4666 62.961 97.2366 63.0316 97.0021 63.1004C96.4832 61.4792 95.783 59.7554 94.926 57.9743C95.7438 56.2357 96.417 54.5339 96.9214 52.9233C97.3408 53.0431 97.7478 53.1694 98.1402 53.3026C101.934 54.5917 104.249 56.4974 104.249 57.9659C104.249 59.5301 101.749 61.5606 97.6908 62.8878ZM96.0069 66.1807C96.4172 68.226 96.4757 70.0753 96.2039 71.521C95.9598 72.8201 95.4688 73.6861 94.8615 74.033C93.5695 74.7711 90.8063 73.8117 87.8263 71.2809C87.474 70.9811 87.1302 70.6718 86.7953 70.3531C87.9507 69.1062 89.1053 67.6567 90.2321 66.0467C92.2142 65.8732 94.0868 65.5893 95.7849 65.2019C95.8685 65.5349 95.9428 65.8615 96.0069 66.1807ZM78.9778 73.9054C77.7154 74.3453 76.71 74.358 76.1022 74.0121C74.8089 73.2761 74.2713 70.4344 75.0046 66.6227C75.0918 66.1723 75.1916 65.7243 75.304 65.2794C76.9834 65.646 78.8423 65.9097 80.829 66.0687C81.9636 67.644 83.1515 69.092 84.3486 70.3599C84.0942 70.6029 83.8338 70.8396 83.5676 71.0699C81.9767 72.4422 80.3827 73.4158 78.9778 73.9054ZM73.0639 62.8782C71.0646 62.2037 69.4136 61.3273 68.2819 60.3709C67.2649 59.5116 66.7516 58.6582 66.7516 57.9659C66.7516 56.4925 68.9773 54.6132 72.6896 53.336C73.1401 53.1811 73.6116 53.0349 74.1009 52.8977C74.614 54.5446 75.287 56.2667 76.0991 58.008C75.2764 59.775 74.5938 61.5246 74.0757 63.191C73.7359 63.0949 73.3985 62.9906 73.0639 62.8782ZM75.0463 49.5603C74.2758 45.6742 74.7875 42.7427 76.0753 42.007C77.4469 41.2233 80.4799 42.3406 83.6768 45.142C83.8852 45.3251 84.0903 45.5119 84.2919 45.7023C83.1007 46.9647 81.9237 48.4019 80.7993 49.968C78.871 50.1443 77.0252 50.4276 75.3282 50.8071C75.2236 50.3939 75.1296 49.9783 75.0463 49.5605V49.5603ZM92.7319 53.8702C92.331 53.1869 91.9153 52.5122 91.485 51.8466C92.7932 52.0099 94.0466 52.2266 95.2236 52.4915C94.8703 53.6093 94.4298 54.7778 93.9114 55.9758C93.5325 55.2663 93.1392 54.5643 92.7319 53.8702ZM85.5197 46.9377C86.3275 47.8015 87.1366 48.7658 87.9325 49.8121C86.3181 49.7369 84.701 49.7366 83.0866 49.8112C83.8832 48.7745 84.6992 47.8114 85.5197 46.9377ZM78.2613 53.8821C77.859 54.5705 77.4731 55.2682 77.1038 55.9744C76.5939 54.7806 76.1574 53.6067 75.8011 52.4731C76.9709 52.2149 78.2183 52.0037 79.5182 51.8435C79.0831 52.5131 78.664 53.1928 78.2613 53.8819V53.8821ZM79.5555 64.2114C78.2126 64.0634 76.9464 63.8632 75.7769 63.6119C76.1389 62.458 76.5849 61.2592 77.1059 60.0398C77.4766 60.7465 77.8642 61.4446 78.2681 62.1334C78.6836 62.8415 79.1138 63.535 79.5555 64.2114ZM85.5681 69.1159C84.7378 68.232 83.9098 67.2541 83.1012 66.2024C83.8863 66.2327 84.6866 66.2482 85.5 66.2482C86.3357 66.2482 87.1618 66.2297 87.9749 66.194C87.1765 67.2647 86.3704 68.244 85.5681 69.1159ZM93.9279 59.9775C94.476 61.2103 94.9378 62.4029 95.3046 63.5369C94.1159 63.8047 92.8324 64.0203 91.4801 64.1804C91.9134 63.5024 92.3331 62.816 92.7387 62.1215C93.1512 61.4157 93.5477 60.7008 93.9279 59.9775ZM91.2216 61.2579C90.6005 62.3227 89.9446 63.3672 89.2547 64.3898C88.0051 64.4772 86.7527 64.5205 85.5 64.5199C84.224 64.5199 82.983 64.4807 81.7879 64.4042C81.08 63.3839 80.4116 62.3376 79.7839 61.2674H79.784C79.1593 60.2029 78.5757 59.1154 78.0346 58.0072C78.5744 56.8987 79.1561 55.8107 79.7787 54.7454L79.7786 54.7455C80.4009 53.6799 81.0641 52.6381 81.7666 51.6222C82.9859 51.5311 84.2362 51.4837 85.4998 51.4837H85.5C86.7694 51.4837 88.0213 51.5316 89.2403 51.6233C89.9357 52.6377 90.5946 53.6759 91.2158 54.7362C91.8405 55.7992 92.43 56.8819 92.9833 57.9827C92.4356 59.0947 91.848 60.1872 91.2216 61.2579ZM94.8347 41.9554C96.2076 42.7369 96.7415 45.888 95.8789 50.0204C95.8238 50.2841 95.762 50.5526 95.6947 50.8249C93.9936 50.4374 92.1465 50.1492 90.2126 49.9702C89.0861 48.3869 87.9187 46.9475 86.7468 45.7014C87.0539 45.4092 87.3684 45.1246 87.6898 44.8479C90.7168 42.2483 93.5458 41.2219 94.8347 41.9554ZM85.5 54.3528C87.522 54.3528 89.1612 55.9705 89.1612 57.9659C89.1612 59.9614 87.522 61.5791 85.5 61.5791C83.478 61.5791 81.8388 59.9614 81.8388 57.9659C81.8388 55.9705 83.478 54.3528 85.5 54.3528Z" fill="#00D8FF"/>
<g clip-path="url(#clip0)">
<path d="M46.4239 44.5201C48.8964 44.2636 50.7721 42.1275 50.6868 39.5638C50.6017 37.0004 48.47 34.9495 45.9123 34.9495H45.7419C43.0985 35.035 41.0524 37.2567 41.1377 39.9056C41.2231 41.1874 41.7345 42.2982 42.5018 43.0673C39.603 48.7927 35.1695 52.9797 28.5192 56.4831C24.0004 58.8758 19.3112 59.7304 14.622 59.1323C10.7852 58.6195 7.80105 56.9107 5.92505 54.0905C3.19689 49.9035 2.94119 45.3744 5.24327 40.8456C6.86331 37.5984 9.42083 35.2058 11.0409 34.0094C10.6998 32.8986 10.1882 31.0188 9.93249 29.6517C-2.43032 38.624 -1.1513 50.758 2.60017 56.4831C5.41365 60.7559 11.1262 63.4049 17.4354 63.4049C19.1405 63.4049 20.8456 63.2338 22.551 62.8068C33.4644 60.6704 41.7347 54.176 46.4239 44.5201ZM61.4298 33.9242C54.9499 26.3189 45.4009 22.1319 34.4875 22.1319H33.1234C32.356 20.5938 30.736 19.5683 28.9456 19.5683H28.7749C26.1321 19.6538 24.086 21.8754 24.171 24.5246C24.2564 27.088 26.3878 29.1389 28.9456 29.1389H29.1159C30.9917 29.0534 32.6117 27.857 33.2938 26.2334H34.8285C41.3084 26.2334 47.447 28.1133 52.9891 31.7878C57.252 34.6077 60.3215 38.2822 62.0266 42.7255C63.476 46.3145 63.3906 49.818 61.8559 52.8089C59.4688 57.3377 55.4616 59.8159 50.1754 59.8159C46.7649 59.8159 43.5251 58.7903 41.8198 58.0212C40.882 58.8758 39.1767 60.2429 37.983 61.0977C41.6494 62.8066 45.4009 63.7466 48.9817 63.7466C57.1667 63.7466 63.2203 59.2176 65.5223 54.6888C67.9948 49.7325 67.8242 41.1874 61.4298 33.9242ZM18.1175 45.9725C18.2028 48.5361 20.3342 50.5868 22.892 50.5868H23.0627C25.7058 50.5015 27.7519 48.2796 27.6665 45.6307C27.5815 43.067 25.4498 41.0164 22.892 41.0164H22.7216C22.551 41.0164 22.295 41.0164 22.1249 41.1016C18.6291 35.291 17.1797 28.9679 17.6914 22.1317C18.0322 17.0046 19.7375 12.561 22.7216 8.88656C25.1941 5.72485 29.9686 4.18675 33.2087 4.10151C42.2461 3.93049 46.0826 15.21 46.3386 19.739C47.447 19.9953 49.3227 20.5936 50.6017 21.0209C49.5784 7.17797 41.0524 0 32.8677 0C25.1941 0 18.1175 5.55436 15.3037 13.7576C11.3819 24.6953 13.9397 35.2058 18.7142 43.4946C18.2881 44.0926 18.0322 45.0327 18.1175 45.9727V45.9725Z" fill="#A67FE3"/>
</g>
<defs>
<clipPath id="clip0">
<rect width="67" height="64" fill="white"/>
</clipPath>
</defs>
</svg>
