<svg width="41" height="41" viewBox="0 0 41 41" fill="none" xmlns="http://www.w3.org/2000/svg">
<path d="M27.7336 4.25073H13.2836C7.63363 4.25073 3.83363 8.2174 3.83363 14.1174V27.7341C3.83363 33.6174 7.63363 37.5841 13.2836 37.5841H27.7336C33.3836 37.5841 37.167 33.6174 37.167 27.7341V14.1174C37.167 8.2174 33.3836 4.25073 27.7336 4.25073Z" fill="url(#paint0_linear_1377_18323)"/>
<path d="M18.522 26.3309C18.1487 26.3309 17.7754 26.1893 17.4904 25.9043L13.5354 21.9493C12.9654 21.3793 12.9654 20.4559 13.5354 19.8876C14.1054 19.3176 15.027 19.3159 15.597 19.8859L18.522 22.8109L25.402 15.9309C25.972 15.3609 26.8937 15.3609 27.4637 15.9309C28.0337 16.5009 28.0337 17.4243 27.4637 17.9943L19.5537 25.9043C19.2687 26.1893 18.8954 26.3309 18.522 26.3309Z" fill="#F8F8F8"/>
<defs>
<linearGradient id="paint0_linear_1377_18323" x1="42.974" y1="-1.77519" x2="-12.9681" y2="41.2217" gradientUnits="userSpaceOnUse">
<stop stop-color="#4F9FF1"/>
<stop offset="1" stop-color="#001F49"/>
</linearGradient>
</defs>
</svg>
