<svg width="41" height="40" viewBox="0 0 41 40" fill="none" xmlns="http://www.w3.org/2000/svg">
<path d="M37.1665 19.9999C37.1665 29.2066 29.7048 36.6666 20.4998 36.6666C11.2948 36.6666 3.83313 29.2066 3.83313 19.9999C3.83313 10.7966 11.2948 3.33325 20.4998 3.33325C29.7048 3.33325 37.1665 10.7966 37.1665 19.9999" fill="url(#paint0_linear_1377_18311)"/>
<path d="M26.4558 26.3575C26.2375 26.3575 26.0175 26.3008 25.8158 26.1825L19.2725 22.2791C18.8958 22.0525 18.6641 21.6441 18.6641 21.2041V12.7925C18.6641 12.1025 19.2241 11.5425 19.9141 11.5425C20.6041 11.5425 21.1641 12.1025 21.1641 12.7925V20.4941L27.0975 24.0325C27.6891 24.3875 27.8841 25.1541 27.5308 25.7475C27.2958 26.1391 26.8808 26.3575 26.4558 26.3575" fill="#F8F8F8"/>
<defs>
<linearGradient id="paint0_linear_1377_18311" x1="42.9735" y1="-2.69267" x2="-12.9686" y2="40.3043" gradientUnits="userSpaceOnUse">
<stop stop-color="#4F9FF1"/>
<stop offset="1" stop-color="#001F49"/>
</linearGradient>
</defs>
</svg>
