<svg width="42" height="42" viewBox="0 0 42 42" fill="none" xmlns="http://www.w3.org/2000/svg">
<path opacity="0.4" d="M36.9039 13.6607C36.1889 13.2102 35.3099 13.1704 34.5607 13.5515L32.0315 14.8285C31.0962 15.2997 30.516 16.2527 30.516 17.313V27.2686C30.516 28.329 31.0962 29.2802 32.0315 29.7549L34.559 31.0301C34.9021 31.2068 35.269 31.2917 35.6359 31.2917C36.0762 31.2917 36.5131 31.167 36.9039 30.9227C37.619 30.4739 38.0457 29.696 38.0457 28.8436V15.7416C38.0457 14.8891 37.619 14.1112 36.9039 13.6607Z" fill="url(#paint0_linear_1377_18317)"/>
<path d="M20.8176 35.091H10.9327C6.79922 35.091 3.9133 32.2409 3.9133 28.1606V16.4221C3.9133 12.3401 6.79922 9.4917 10.9327 9.4917H20.8176C24.951 9.4917 27.837 12.3401 27.837 16.4221V28.1606C27.837 32.2409 24.951 35.091 20.8176 35.091Z" fill="url(#paint1_linear_1377_18317)"/>
<defs>
<linearGradient id="paint0_linear_1377_18317" x1="39.3574" y1="10.0377" x2="21.1389" y2="15.8953" gradientUnits="userSpaceOnUse">
<stop stop-color="#4F9FF1"/>
<stop offset="1" stop-color="#001F49"/>
</linearGradient>
<linearGradient id="paint1_linear_1377_18317" x1="32.0047" y1="4.86391" x2="-10.1268" y2="35.1264" gradientUnits="userSpaceOnUse">
<stop stop-color="#4F9FF1"/>
<stop offset="1" stop-color="#001F49"/>
</linearGradient>
</defs>
</svg>
