<svg width="41" height="41" viewBox="0 0 41 41" fill="none" xmlns="http://www.w3.org/2000/svg">
<path fill-rule="evenodd" clip-rule="evenodd" d="M37.1607 14.8763H30.103C26.8185 14.882 24.1578 17.4763 24.1518 20.6787C24.1474 23.8883 26.8111 26.4941 30.103 26.4984H37.1667V27.0083C37.1667 32.607 33.7726 35.9177 28.0289 35.9177H12.9726C7.2274 35.9177 3.83333 32.607 3.83333 27.0083V14.8142C3.83333 9.21543 7.2274 5.91772 12.9726 5.91772H28.023C33.7667 5.91772 37.1607 9.21543 37.1607 14.8142V14.8763ZM11.7324 14.8633H21.1324H21.1384H21.1502C21.8539 14.8604 22.4228 14.3014 22.4198 13.6138C22.4169 12.9277 21.8421 12.373 21.1384 12.3759H11.7324C11.0332 12.3788 10.4658 12.932 10.4628 13.6152C10.4598 14.3014 11.0287 14.8604 11.7324 14.8633Z" fill="url(#paint0_linear_1377_18320)"/>
<path opacity="0.4" d="M27.229 21.4122C27.5775 22.9975 28.9675 24.1128 30.5543 24.0838H35.9708C36.6311 24.0838 37.1667 23.537 37.1667 22.8611V18.6419C37.1652 17.9674 36.6311 17.4192 35.9708 17.4177H30.4268C28.6217 17.4235 27.1638 18.9218 27.1667 20.7682C27.1667 20.9843 27.1879 21.2004 27.229 21.4122Z" fill="url(#paint1_linear_1377_18320)"/>
<ellipse cx="30.5" cy="20.7511" rx="1.66667" ry="1.66667" fill="url(#paint2_linear_1377_18320)"/>
<defs>
<linearGradient id="paint0_linear_1377_18320" x1="42.9737" y1="0.494392" x2="-8.48582" y2="44.4406" gradientUnits="userSpaceOnUse">
<stop stop-color="#4F9FF1"/>
<stop offset="1" stop-color="#001F49"/>
</linearGradient>
<linearGradient id="paint1_linear_1377_18320" x1="38.9088" y1="16.2125" x2="27.4468" y2="29.427" gradientUnits="userSpaceOnUse">
<stop stop-color="#4F9FF1"/>
<stop offset="1" stop-color="#001F49"/>
</linearGradient>
<linearGradient id="paint2_linear_1377_18320" x1="32.7474" y1="18.4819" x2="27.1532" y2="22.7816" gradientUnits="userSpaceOnUse">
<stop stop-color="#4F9FF1"/>
<stop offset="1" stop-color="#001F49"/>
</linearGradient>
</defs>
</svg>
