<svg width="77" height="68" viewBox="0 0 77 68" fill="none" xmlns="http://www.w3.org/2000/svg">
<path d="M27.3028 44.8855C41.9365 44.8855 54.286 47.2634 54.286 56.4378C54.286 65.6156 41.8556 67.9091 27.3028 67.9091C12.6724 67.9091 0.319611 65.5312 0.319611 56.3569C0.319611 47.1791 12.75 44.8855 27.3028 44.8855ZM27.3028 0.451172C37.2161 0.451172 45.1589 8.39105 45.1589 18.2974C45.1589 28.2037 37.2161 36.1469 27.3028 36.1469C17.3929 36.1469 9.44672 28.2037 9.44672 18.2974C9.44672 8.39105 17.3929 0.451172 27.3028 0.451172Z" fill="#707070"/>
<path fill-rule="evenodd" clip-rule="evenodd" d="M57.4045 34.0723C58.268 33.3364 59.3654 32.9321 60.5 32.9321C61.6346 32.9321 62.732 33.3364 63.5955 34.0723L65.6173 35.7966C65.8724 36.0142 66.1897 36.1456 66.524 36.172L69.1725 36.3836C70.3029 36.4741 71.3642 36.9642 72.166 37.7661C72.9679 38.568 73.458 39.6292 73.5485 40.7596L73.7601 43.4097C73.7869 43.7434 73.9182 44.0602 74.1355 44.3148L75.8598 46.3366C76.5958 47.2001 77 48.2976 77 49.4321C77 50.5667 76.5958 51.6641 75.8598 52.5276L74.1355 54.5494C73.9179 54.8045 73.7865 55.1219 73.7601 55.4561L73.5485 58.1046C73.458 59.235 72.9679 60.2963 72.166 61.0982C71.3642 61.9 70.3029 62.3901 69.1725 62.4807L66.5224 62.6922C66.1887 62.719 65.872 62.8504 65.6173 63.0676L63.5955 64.7919C62.732 65.5279 61.6346 65.9321 60.5 65.9321C59.3654 65.9321 58.268 65.5279 57.4045 64.7919L55.3827 63.0676C55.1276 62.8501 54.8103 62.7187 54.476 62.6922L51.8275 62.4807C50.6971 62.3901 49.6358 61.9 48.834 61.0982C48.0321 60.2963 47.542 59.235 47.4515 58.1046L47.2399 55.4545C47.2131 55.1208 47.0818 54.8041 46.8645 54.5494L45.1402 52.5276C44.4042 51.6641 44 50.5667 44 49.4321C44 48.2976 44.4042 47.2001 45.1402 46.3366L46.8645 44.3148C47.0821 44.0597 47.2135 43.7424 47.2399 43.4081L47.4515 40.7596C47.542 39.6292 48.0321 38.568 48.834 37.7661C49.6358 36.9642 50.6971 36.4741 51.8275 36.3836L54.4776 36.172C54.8113 36.1453 55.128 36.0139 55.3827 35.7966L57.4045 34.0723ZM66.3967 47.3754C66.6865 47.0753 66.8468 46.6735 66.8432 46.2565C66.8396 45.8394 66.6723 45.4404 66.3774 45.1455C66.0824 44.8505 65.6835 44.6833 65.2664 44.6796C64.8493 44.676 64.4475 44.8363 64.1475 45.1261L58.9093 50.3643L56.8525 48.3075C56.5525 48.0177 56.1507 47.8574 55.7336 47.861C55.3165 47.8647 54.9176 48.032 54.6226 48.3269C54.3277 48.6218 54.1604 49.0208 54.1568 49.4379C54.1532 49.8549 54.3135 50.2567 54.6033 50.5568L57.7847 53.7382C58.083 54.0364 58.4875 54.2039 58.9093 54.2039C59.3311 54.2039 59.7356 54.0364 60.0339 53.7382L66.3967 47.3754Z" fill="#434141"/>
</svg>
