<svg width="75" height="73" viewBox="0 0 75 73" fill="none" xmlns="http://www.w3.org/2000/svg">
<path d="M62.9963 51.1092C60.5137 51.1074 58.105 51.9535 56.1688 53.5074L48.5958 45.9344C50.6719 43.4797 51.8751 40.4057 52.0169 37.1939L66.9075 36.6369C67.221 37.4425 67.8093 38.1113 68.5684 38.525C69.3275 38.9386 70.2085 39.0705 71.0554 38.8972C71.9023 38.724 72.6607 38.2567 73.1964 37.5782C73.732 36.8997 74.0104 36.0535 73.9823 35.1895C73.9543 34.3255 73.6215 33.4992 73.0429 32.8569C72.4643 32.2146 71.6772 31.7976 70.8208 31.6797C69.9644 31.5618 69.0939 31.7505 68.3633 32.2126C67.6326 32.6747 67.089 33.3803 66.8284 34.2046L51.9354 34.7555C51.6834 32.6618 50.9802 30.6476 49.8744 28.852C48.7685 27.0564 47.2862 25.5221 45.5299 24.3549L49.0421 17.9676C50.487 18.4179 52.0476 18.3155 53.4213 17.6803C54.7949 17.045 55.8836 15.9222 56.4762 14.5297C57.0689 13.1371 57.1231 11.5741 56.6285 10.1438C56.1339 8.71348 55.1257 7.51786 53.7994 6.78887C52.4731 6.05988 50.9234 5.84948 49.4508 6.19848C47.9781 6.54748 46.6876 7.43101 45.8296 8.67767C44.9716 9.92434 44.6071 11.4453 44.807 12.9454C45.0069 14.4456 45.7569 15.818 46.9114 16.7965L43.3967 23.1874C40.8911 22.065 38.119 21.675 35.401 22.0624C32.6829 22.4498 30.1301 23.5988 28.0379 25.3765L20.4649 17.8023C22.2137 15.6138 23.0582 12.8388 22.8249 10.0472C22.5916 7.25558 21.2982 4.65926 19.2103 2.79151C17.1225 0.923763 14.3987 -0.0736133 11.5984 0.00423728C8.79812 0.0820878 6.13394 1.22926 4.15308 3.21012C2.17222 5.19098 1.02505 7.85516 0.9472 10.6554C0.869349 13.4557 1.86673 16.1795 3.73447 18.2674C5.60222 20.3552 8.19855 21.6486 10.9902 21.882C13.7818 22.1153 16.5568 21.2708 18.7452 19.5219L26.3182 27.0961C24.0845 29.7259 22.8597 33.0649 22.8631 36.5153C22.8667 37.3887 22.9481 38.2601 23.1064 39.1191L10.0485 42.635C9.45945 41.6204 8.52144 40.8548 7.40945 40.481C6.29747 40.1072 5.08746 40.1507 4.00521 40.6035C2.92295 41.0562 2.04237 41.8872 1.52776 42.9415C1.01315 43.9957 0.899665 45.2011 1.20848 46.3329C1.5173 47.4647 2.22732 48.4454 3.20608 49.0922C4.18483 49.7389 5.36545 50.0075 6.52766 49.8478C7.68987 49.6881 8.75428 49.111 9.5223 48.2242C10.2903 47.3374 10.7095 46.2015 10.7015 45.0284C10.7015 45.0113 10.7015 44.9967 10.7015 44.9797L23.7485 41.4675C24.8796 44.5909 27.0411 47.2358 29.8767 48.9663L26.2136 56.2912C24.4554 55.7468 22.5568 55.8829 20.8942 56.6727C19.2317 57.4625 17.9266 58.8483 17.2379 60.5552C16.5491 62.262 16.5269 64.1654 17.1758 65.8879C17.8246 67.6104 19.097 69.0261 20.7407 69.8544C22.3844 70.6827 24.2794 70.8631 26.0498 70.3597C27.8203 69.8564 29.3369 68.7061 30.299 67.1369C31.2611 65.5678 31.5984 63.6944 31.244 61.8882C30.8896 60.082 29.8694 58.475 28.3857 57.3858L32.0488 50.0608C34.5066 51.0489 37.1876 51.3469 39.8023 50.9228C42.4171 50.4986 44.8664 49.3684 46.8859 47.6541L54.4589 55.2271C52.9116 57.1659 52.0687 59.5727 52.0685 62.0533C52.0682 64.5338 52.9104 66.9408 54.4573 68.88C56.0041 70.8192 58.1637 72.1754 60.5823 72.7265C63.0008 73.2775 65.5348 72.9908 67.769 71.9131C70.0032 70.8355 71.8051 69.0309 72.8795 66.7951C73.9538 64.5593 74.2368 62.0249 73.6822 59.6071C73.1275 57.1894 71.7681 55.0318 69.8266 53.4878C67.8852 51.9439 65.4769 51.1052 62.9963 51.1092ZM17.9985 17.0567H5.83691C5.83691 15.444 6.47757 13.8973 7.61794 12.757C8.7583 11.6166 10.305 10.976 11.9177 10.976C11.1961 10.976 10.4907 10.762 9.89072 10.3611C9.29073 9.96018 8.8231 9.39037 8.54695 8.72369C8.27081 8.05702 8.19856 7.32344 8.33933 6.6157C8.48011 5.90797 8.82759 5.25787 9.33784 4.74762C9.84809 4.23737 10.4982 3.88989 11.2059 3.74911C11.9137 3.60834 12.6472 3.68059 13.3139 3.95673C13.9806 4.23288 14.5504 4.70051 14.9513 5.3005C15.3522 5.90049 15.5662 6.60588 15.5662 7.32748C15.5662 8.29512 15.1818 9.22312 14.4976 9.90734C13.8133 10.5916 12.8853 10.976 11.9177 10.976C13.5304 10.976 15.0771 11.6166 16.2175 12.757C17.3578 13.8973 17.9985 15.444 17.9985 17.0567ZM37.457 26.786C38.4191 26.786 39.3597 27.0713 40.1597 27.6058C40.9596 28.1404 41.5832 28.9001 41.9514 29.789C42.3195 30.6779 42.4159 31.656 42.2282 32.5997C42.0405 33.5433 41.5772 34.4101 40.8968 35.0905C40.2165 35.7708 39.3497 36.2341 38.4061 36.4218C37.4624 36.6095 36.4843 36.5132 35.5954 36.145C34.7065 35.7768 33.9468 35.1533 33.4122 34.3533C32.8777 33.5533 32.5924 32.6128 32.5924 31.6506C32.5924 30.3605 33.1049 29.1231 34.0172 28.2108C34.9295 27.2985 36.1668 26.786 37.457 26.786ZM30.1601 45.0284C30.1601 43.0931 30.9289 41.2371 32.2973 39.8687C33.6657 38.5002 35.5217 37.7314 37.457 37.7314C39.3923 37.7314 41.2483 38.5002 42.6167 39.8687C43.9852 41.2371 44.754 43.0931 44.754 45.0284H30.1601ZM56.9155 68.1354C56.9155 66.5227 57.5562 64.976 58.6966 63.8356C59.8369 62.6952 61.3836 62.0546 62.9963 62.0546C62.2747 62.0546 61.5693 61.8406 60.9693 61.4397C60.3694 61.0388 59.9017 60.469 59.6256 59.8023C59.3494 59.1356 59.2772 58.4021 59.418 57.6943C59.5587 56.9866 59.9062 56.3365 60.4165 55.8263C60.9267 55.316 61.5768 54.9685 62.2845 54.8277C62.9923 54.687 63.7259 54.7592 64.3925 55.0354C65.0592 55.3115 65.629 55.7791 66.0299 56.3791C66.4308 56.9791 66.6448 57.6845 66.6448 58.4061C66.6448 59.3737 66.2604 60.3017 65.5762 60.986C64.892 61.6702 63.964 62.0546 62.9963 62.0546C64.6091 62.0546 66.1557 62.6952 67.2961 63.8356C68.4365 64.976 69.0771 66.5227 69.0771 68.1354H56.9155Z" fill="#707070"/>
<circle cx="24" cy="63" r="8" fill="#434141"/>
<circle cx="70.5" cy="35.5" r="4.5" fill="#434141"/>
<circle cx="33.5" cy="15.5" r="2.5" fill="#434141"/>
</svg>
