<svg width="67" height="75" viewBox="0 0 67 75" fill="none" xmlns="http://www.w3.org/2000/svg">
<path d="M7.82476 56.7189C8.87268 57.8315 9.91321 58.9367 10.8927 60.3414V62.9639H24.6303V60.3414C24.3845 58.301 23.952 54.6249 23.9132 53.6029C23.8614 52.165 21.9319 49.5443 21.9319 49.5443L16.0085 42.0776C16.0085 42.0776 14.3322 40.3071 13.373 38.3443C12.4119 36.3797 10.3716 38.8507 10.1017 40.6176C9.82819 42.3844 10.3457 43.3159 10.3457 43.3159L13.7279 50.0396C13.7279 50.0396 9.80601 44.6669 8.58806 42.5083C7.97077 41.4141 7.79889 39.0965 7.60483 36.5072C7.41816 33.9845 7.21116 31.2029 6.55506 29.0406C5.22437 24.6604 1.37646 25.7564 0.709266 27.7154C0.0439212 29.6727 0.193624 42.6081 0.435736 44.7649C0.626098 46.4541 1.64445 48.1064 2.79217 49.9694C3.11005 50.4869 3.43903 51.0191 3.76246 51.5717C5.04879 53.7748 6.44232 55.2552 7.82476 56.7189Z" fill="#707070"/>
<path d="M56.1066 60.3411C57.0861 58.9365 58.1267 57.8313 59.1746 56.7187C60.557 55.2549 61.9506 53.7746 63.2387 51.5715C63.5603 51.0171 63.8893 50.4866 64.2072 49.971C65.3549 48.108 66.3732 46.4539 66.5636 44.7647C66.8057 42.6078 66.9573 29.6724 66.2901 27.7152C65.6229 25.7561 61.775 24.6602 60.4443 29.0422C59.79 31.2046 59.583 33.9842 59.3945 36.507C59.2005 39.0963 59.0286 41.4139 58.4113 42.508C57.1933 44.6686 53.2697 50.0394 53.2697 50.0394L56.6537 43.3157C56.6537 43.3157 57.1712 42.3842 56.8995 40.6174C56.6278 38.8505 54.5856 36.3795 53.6282 38.3441C52.6671 40.3069 50.9908 42.0774 50.9908 42.0774L45.0674 49.5441C45.0674 49.5441 43.1379 52.1648 43.0862 53.6027C43.0492 54.6247 42.6149 58.3008 42.3691 60.3411V62.9637H56.1066V60.3411Z" fill="#707070"/>
<path d="M37.1942 72.2047C37.1942 72.6949 37.3889 73.165 37.7355 73.5116C38.0821 73.8582 38.5522 74.0529 39.0424 74.0529H53.8278C54.318 74.0529 54.7881 73.8582 55.1347 73.5116C55.4813 73.165 55.676 72.6949 55.676 72.2047V68.5083C55.676 68.0182 55.4813 67.5481 55.1347 67.2015C54.7881 66.8549 54.318 66.6602 53.8278 66.6602H39.0424C38.5522 66.6602 38.0821 66.8549 37.7355 67.2015C37.3889 67.5481 37.1942 68.0182 37.1942 68.5083V72.2047Z" fill="#707070"/>
<path d="M29.8052 72.2047C29.8052 72.6949 29.6104 73.165 29.2638 73.5116C28.9172 73.8582 28.4472 74.0529 27.957 74.0529H13.1715C12.6814 74.0529 12.2113 73.8582 11.8647 73.5116C11.5181 73.165 11.3234 72.6949 11.3234 72.2047V68.5083C11.3234 68.0182 11.5181 67.5481 11.8647 67.2015C12.2113 66.8549 12.6814 66.6602 13.1715 66.6602H27.957C28.4472 66.6602 28.9172 66.8549 29.2638 67.2015C29.6104 67.5481 29.8052 68.0182 29.8052 68.5083V72.2047Z" fill="#707070"/>
<path d="M26 24.3718C33.5926 24.3718 40 25.676 40 30.7081C40 35.742 33.5506 37 26 37C18.4092 37 12 35.6957 12 30.6637C12 25.6298 18.4494 24.3718 26 24.3718ZM26 0C31.1434 0 35.2645 4.35494 35.2645 9.78845C35.2645 15.222 31.1434 19.5787 26 19.5787C20.8583 19.5787 16.7355 15.222 16.7355 9.78845C16.7355 4.35494 20.8583 0 26 0Z" fill="#707070"/>
<path d="M52.5 34.5787C52.5 33.5756 52.1713 32.7371 51.5753 32.0606C50.9884 31.3945 50.1648 30.9102 49.2065 30.5572C47.298 29.8542 44.7245 29.6261 42 29.6261C39.2914 29.6261 36.7185 29.846 34.8068 30.5403C33.847 30.8889 33.0203 31.3689 32.4305 32.032C31.8312 32.7057 31.5 33.5431 31.5 34.5475C31.5 35.5505 31.8288 36.389 32.4249 37.0655C33.0119 37.7316 33.8356 38.216 34.7939 38.5689C36.7026 39.2719 39.2761 39.5 42 39.5C44.7086 39.5 47.2815 39.2801 49.1932 38.5858C50.153 38.2372 50.9797 37.7572 51.5695 37.0941C52.1688 36.4204 52.5 35.583 52.5 34.5787ZM49.1175 19.8784C49.1175 15.8025 45.9681 12.5 42 12.5C38.0332 12.5 34.8825 15.8025 34.8825 19.8784C34.8825 23.9542 38.0331 27.258 42 27.258C45.9682 27.258 49.1175 23.9541 49.1175 19.8784Z" fill="#707070" stroke="white"/>
<path d="M37.3027 45.0007C36.947 45.0008 36.5948 45.0721 36.2671 45.2105C35.9394 45.349 35.6427 45.5517 35.3947 45.8067L34.9997 46.2107L34.6047 45.8057C34.3566 45.5507 34.06 45.3481 33.7323 45.2097C33.4046 45.0713 33.0524 45 32.6967 45C32.341 45 31.9888 45.0713 31.6611 45.2097C31.3334 45.3481 31.0368 45.5507 30.7887 45.8057C30.2828 46.328 30 47.0266 30 47.7537C30 48.4808 30.2828 49.1794 30.7887 49.7017L34.9997 54.0007L39.2097 49.7027C39.7156 49.1804 39.9984 48.4818 39.9984 47.7547C39.9984 47.0276 39.7156 46.329 39.2097 45.8067C38.9619 45.5519 38.6656 45.3494 38.3382 45.2109C38.0109 45.0725 37.6591 45.001 37.3037 45.0007H37.3027Z" fill="#434141"/>
</svg>
