<svg width="106" height="105" viewBox="0 0 106 105" fill="none" xmlns="http://www.w3.org/2000/svg">
<path d="M98.4477 39.8881C102.49 37.866 105 33.8032 105 29.2848V20.3226C105 14.0294 100.07 8.86403 93.8683 8.48976L89.8427 4.46419C86.9654 1.58516 83.1363 0 79.0667 0H71.2628C64.6512 0 59.2742 5.37702 59.2742 11.9886C59.2742 15.6501 60.9136 19.0609 63.774 21.3489L66.6547 23.6538C66.0603 28.5939 66.0484 31.9793 66.0484 32.1774V33.871H69.4355V35.0514C69.4355 38.0608 70.9309 40.8535 73.434 42.5233C74.9158 43.5106 76.6381 44.0323 78.4164 44.0323H78.8753C79.1175 44.0323 79.3563 43.9798 79.5968 43.9611V50.0952L76.4502 50.7252C75.7118 50.8725 75.0344 51.2705 74.5449 51.8429L72.511 54.2156C70.4025 56.6746 68.6954 59.4131 67.3812 62.3226L57.5806 72.1215V65.7351C57.5806 58.988 54.6677 52.5711 49.5905 48.129C45.3261 44.3947 39.8543 42.3387 34.1843 42.3387H33.871V40.5876C37.8 40.298 41.2159 37.8525 42.696 34.1487C43.5835 31.9335 44.0323 29.6015 44.0323 27.2153V20.3226C44.0323 19.1252 43.7765 17.9906 43.326 16.9575C45.9104 14.512 47.4194 11.0656 47.4194 7.47532C47.4194 5.47863 46.642 3.60048 45.2296 2.18976C43.8189 0.777339 41.9407 0 39.944 0H26.311C21.9975 0 17.9347 1.68847 14.761 4.86218C11.8802 7.74121 10.1613 12.2545 10.1613 16.9355C10.1613 23.0001 13.7245 26.648 15.2843 27.9571C15.4824 30.2688 16.4731 32.4179 18.1328 34.0776L18.629 34.5721V42.359C14.8016 42.459 11.1402 43.6715 8.01556 45.9036C2.99589 49.4889 0 55.3096 0 61.4775V76.2097C0 81.983 2.64024 87.15 6.77419 90.5693V105H47.4194V94.8387H51.9699C56.0412 94.8387 59.8686 93.2536 62.7477 90.3745L64.3565 88.7656V105H105.002V62.414C105.002 60.0973 104.455 57.7788 103.418 55.7093C101.975 52.8269 99.5942 50.4457 96.7118 49.0028L94.8387 48.0663V41.6918L98.4477 39.8881ZM65.8892 18.7035C63.8383 17.0625 62.6613 14.6136 62.6613 11.9886C62.6613 7.245 66.5192 3.3871 71.2628 3.3871H79.0667C82.2336 3.3871 85.2092 4.62 87.4498 6.85887L92.444 11.8548H93.1452C97.8143 11.8548 101.613 15.6535 101.613 20.3226V29.2848C101.613 32.5127 99.8194 35.4155 96.9319 36.8584L93.5516 38.5485C92.7269 37.4969 92.1341 36.3131 91.8293 35.0649C91.6633 34.3858 91.5498 33.7152 91.494 33.0835C92.7709 32.1605 94.8387 30.1926 94.8387 27.0968C94.8387 23.3608 91.8005 20.3226 88.0645 20.3226H87.8342C87.5006 19.149 86.8079 18.0939 85.7613 17.1709C83.8865 15.5197 80.706 13.5484 76.2097 13.5484C72.4669 13.5484 68.8309 15.3452 68.6785 15.4198L67.9367 15.7906L67.7741 16.6019C67.5573 17.6857 67.3694 18.7391 67.2034 19.7552L65.8892 18.7035ZM80.2437 55.8871H77.8965L77.9015 53.8887L81.6155 53.1469L80.2437 55.8871ZM78.3859 75.285L76.2622 71.4627L77.7136 59.2742H79.9321L82.3522 70.1637C81.2073 71.9961 79.8847 73.7117 78.3859 75.285ZM84.774 65.4539L83.0736 57.8008L85.8223 52.3052L88.9587 51.6786L86.0289 61.9314C85.6834 63.1389 85.2498 64.3074 84.774 65.4539ZM82.9839 43.3887L88.3965 42.3065L87.7309 38.9855L79.9711 40.5385C79.612 40.6096 79.2445 40.6452 78.8753 40.6452H78.4164C77.3088 40.6452 76.2351 40.32 75.3138 39.7052C73.754 38.6671 72.8226 36.9261 72.8226 35.0514V30.4839H69.4846C69.5896 28.1163 69.9131 23.498 70.9292 18.126C72.0165 17.6806 74.1452 16.9355 76.2097 16.9355C79.6493 16.9355 82.0846 18.4461 83.5224 19.7129C84.3218 20.4174 84.6774 21.127 84.6774 22.0161V23.7097H88.0645C89.9325 23.7097 91.4516 25.2288 91.4516 27.0968C91.4516 29.3695 89.0163 30.6549 89.0011 30.6617L88.0645 31.1308V32.1774C88.0645 33.3341 88.2237 34.5755 88.5387 35.866C89.0265 37.8644 90.0273 39.7357 91.4516 41.3192V47.7242L82.9839 49.4177V43.3887ZM74.5161 57.142V57.4807L73.4526 66.4074L71.1646 62.2887C72.1011 60.4715 73.2206 58.7492 74.5161 57.142ZM54.1936 65.7351V75.5085L53.2875 76.4146C52.3408 77.3613 51.03 77.9032 49.6921 77.9032H47.4194V67.7419H44.0323V77.9032H42.3489C42.3455 77.9032 42.3438 77.9032 42.3404 77.9032H42.3387H30.4839V73.1579L41.2481 47.0146C43.47 47.8529 45.5429 49.0858 47.3601 50.6761C51.7023 54.4764 54.1936 59.9652 54.1936 65.7351ZM47.4194 86.5539C47.4211 87.8562 46.913 89.0857 45.9849 90.0138C45.0636 90.9368 43.846 91.4448 42.5538 91.4516H40.6452V91.4533H37.2581V81.2903H40.6452H42.3489C45.1398 81.2954 47.4143 83.5834 47.4194 86.5539ZM31.1308 45.7258L29.4373 49.1129H26.4498L24.7563 45.7258H31.1308ZM33.3019 57.4147L32.2452 51.0706L34.9023 45.758C35.9354 45.7952 36.96 45.9002 37.9643 46.0933L33.3019 57.4147ZM20.9695 45.7258L23.6419 51.0706L22.8002 56.1174L17.9533 45.8173C18.3496 45.7868 18.7391 45.7258 19.1388 45.7258H20.9695ZM26.8377 52.5H29.0477L30.8565 63.3523L28.6853 68.626L25.3355 61.5063L26.8377 52.5ZM40.6452 27.2153C40.6452 29.168 40.2777 31.0783 39.5511 32.8904C38.491 35.5442 35.9574 37.2598 33.0987 37.2598C31.7219 37.2598 30.389 36.8567 29.2442 36.0929L26.3415 34.1572L24.4633 36.9752L27.3661 38.911C28.328 39.5511 29.3831 40.0016 30.4822 40.2895V42.3387H22.0144V33.1698L20.5258 31.6812C19.3031 30.4568 18.629 28.8276 18.629 27.0968C18.629 26.1636 19.3894 25.4032 20.3226 25.4032H22.0161V20.3226C22.0161 17.5215 24.2956 15.2419 27.0968 15.2419H35.5645C38.3656 15.2419 40.6452 17.5215 40.6452 20.3226V27.2153ZM16.2106 24.1195C14.9913 22.6952 13.5484 20.304 13.5484 16.9355C13.5484 13.1335 14.8965 9.51435 17.264 7.14677C19.6892 4.72331 22.9019 3.3871 26.311 3.3871H39.944C41.0194 3.3871 42.0745 3.82403 42.8349 4.58444C43.5953 5.34484 44.0323 6.39992 44.0323 7.47532C44.0323 9.975 43.0348 12.3714 41.326 14.1547C39.8119 12.7389 37.7949 11.8548 35.5645 11.8548H27.0968C22.4277 11.8548 18.629 15.6535 18.629 20.3226V22.3057C17.6502 22.6529 16.8102 23.2931 16.2106 24.1195ZM3.3871 76.2097V61.4775C3.3871 56.4002 5.8529 51.6092 9.98347 48.659C11.3756 47.6649 12.8981 46.9265 14.5002 46.432L27.0968 73.2019V77.9032H16.9355V67.7419H13.5484V77.9032C13.5484 79.7712 15.0641 81.2903 16.9253 81.2903H33.871V91.4533L18.629 91.4516C10.2256 91.4516 3.3871 84.6148 3.3871 76.2097ZM44.0323 101.613H10.1613V92.7827C12.705 94.0885 15.579 94.8387 18.629 94.8387L42.5267 94.8404H42.5284C42.5369 94.8404 42.5453 94.8387 42.5538 94.8387H44.0323V101.613ZM60.3513 87.9798C58.1124 90.2187 55.1352 91.4516 51.9682 91.4516H49.1637C50.2171 90.0273 50.8098 88.3101 50.8065 86.3896C50.8031 84.4691 50.1375 82.7146 49.0587 81.2903H49.6921C51.9225 81.2903 54.1055 80.386 55.6839 78.8093L65.0848 69.4084C64.619 71.6507 64.3548 73.9403 64.3548 76.2571V83.9763L60.3513 87.9798ZM67.7419 76.2571C67.7419 72.8073 68.3465 69.4169 69.4677 66.2076L75.8405 77.678C75.6085 77.8744 75.39 78.0827 75.1512 78.2741L74.5161 78.7839V101.613H67.7419V76.2571ZM95.1961 52.0326C97.4281 53.1486 99.2707 54.9929 100.387 57.2233C101.19 58.8254 101.613 60.6206 101.613 62.414V101.613H91.4516V74.5161H88.0645V101.613H77.9032V80.3995C83.3869 75.8066 87.3143 69.759 89.2856 62.8628L92.6947 50.9318L92.9081 50.8894L95.1961 52.0326Z" fill="#A3C7FF"/>
</svg>
